<svg xmlns="http://www.w3.org/2000/svg" xmlns:xlink="http://www.w3.org/1999/xlink" width="98" height="98" viewBox="0 0 98 98">
  <defs>
    <filter id="Trazado_982547" x="0" y="0" width="98" height="98" filterUnits="userSpaceOnUse">
      <feOffset dy="3" input="SourceAlpha"/>
      <feGaussianBlur stdDeviation="3" result="blur"/>
      <feFlood flood-opacity="0.161"/>
      <feComposite operator="in" in2="blur"/>
      <feComposite in="SourceGraphic"/>
    </filter>
    <clipPath id="clip-path">
      <path id="path8121" d="M0-682.665H48.414v48.414H0Z" transform="translate(0 682.665)"/>
    </clipPath>
  </defs>
  <g id="Grupo_1208167" data-name="Grupo 1208167" transform="translate(-191 -2467.014)">
    <g id="Grupo_1207718" data-name="Grupo 1207718" transform="translate(0 381.462)">
      <g id="Grupo_1207712" data-name="Grupo 1207712">
        <g id="Grupo_1207285" data-name="Grupo 1207285" transform="translate(0 344.552)">
          <g id="Grupo_1206883" data-name="Grupo 1206883" transform="translate(0 -209)">
            <g id="Grupo_1204569" data-name="Grupo 1204569" transform="translate(-81 -1890.336)">
              <g id="Grupo_1203962" data-name="Grupo 1203962" transform="translate(281 3846.336)">
                <g id="Grupo_1203498" data-name="Grupo 1203498" transform="translate(0)">
                  <g id="Grupo_1202589" data-name="Grupo 1202589">
                    <g id="Grupo_1172010" data-name="Grupo 1172010">
                      <g id="Grupo_1171046" data-name="Grupo 1171046">
                        <g id="Grupo_1148525" data-name="Grupo 1148525">
                          <g transform="matrix(1, 0, 0, 1, -9, -6)" filter="url(#Trazado_982547)">
                            <g id="Trazado_982547-2" data-name="Trazado 982547" transform="translate(9 6)" fill="#fdfbec">
                              <path d="M 39.99999237060547 78.49998474121094 C 34.8018684387207 78.49998474121094 29.76002502441406 77.48226165771484 25.0145263671875 75.47508239746094 C 20.43014717102051 73.53604888916016 16.31264877319336 70.75984954833984 12.77639198303223 67.22359466552734 C 9.240137100219727 63.68733596801758 6.463936805725098 59.5698356628418 4.524903297424316 54.98546981811523 C 2.517725706100464 50.23995971679688 1.500003457069397 45.19811630249023 1.500003457069397 39.99999237060547 C 1.500003457069397 34.8018684387207 2.517725706100464 29.76002502441406 4.524903297424316 25.0145263671875 C 6.463936805725098 20.43014717102051 9.240137100219727 16.31264877319336 12.77639198303223 12.77639198303223 C 16.31264877319336 9.240137100219727 20.43014717102051 6.463936805725098 25.0145263671875 4.524903297424316 C 29.76002502441406 2.517725706100464 34.8018684387207 1.500003457069397 39.99999237060547 1.500003457069397 C 45.19811630249023 1.500003457069397 50.23995971679688 2.517725706100464 54.98546981811523 4.524903297424316 C 59.5698356628418 6.463936805725098 63.68733596801758 9.240137100219727 67.22359466552734 12.77639198303223 C 70.75984954833984 16.31264877319336 73.53604888916016 20.43014717102051 75.47508239746094 25.0145263671875 C 77.48226165771484 29.76002502441406 78.49998474121094 34.8018684387207 78.49998474121094 39.99999237060547 C 78.49998474121094 45.19812393188477 77.48226165771484 50.23995971679688 75.47508239746094 54.98546981811523 C 73.53604888916016 59.5698356628418 70.75984954833984 63.68733596801758 67.22359466552734 67.22359466552734 C 63.68733596801758 70.75984954833984 59.5698356628418 73.53604888916016 54.98546981811523 75.47508239746094 C 50.23995971679688 77.48226165771484 45.19812393188477 78.49998474121094 39.99999237060547 78.49998474121094 Z" stroke="none"/>
                              <path d="M 39.99999237060547 2.999992370605469 C 35.00370025634766 2.999992370605469 30.1584587097168 3.97784423828125 25.59884643554688 5.906402587890625 C 21.19327163696289 7.769805908203125 17.23603057861328 10.43805694580078 13.83704376220703 13.83704376220703 C 10.43805694580078 17.23603057861328 7.769805908203125 21.19327163696289 5.906402587890625 25.59884643554688 C 3.97784423828125 30.1584587097168 2.999992370605469 35.00370025634766 2.999992370605469 39.99999237060547 C 2.999992370605469 44.99628448486328 3.97784423828125 49.84152603149414 5.906402587890625 54.40113830566406 C 7.769805908203125 58.80671310424805 10.43805694580078 62.76395416259766 13.83704376220703 66.16294097900391 C 17.23603057861328 69.56191253662109 21.19327163696289 72.23016357421875 25.59884643554688 74.09356689453125 C 30.1584587097168 76.02212524414062 35.00370025634766 76.99997711181641 39.99999237060547 76.99997711181641 C 44.99628448486328 76.99997711181641 49.84152603149414 76.02212524414062 54.40113830566406 74.09356689453125 C 58.80671310424805 72.23016357421875 62.76395416259766 69.56191253662109 66.16294097900391 66.16294097900391 C 69.56191253662109 62.76395416259766 72.23016357421875 58.80671310424805 74.09356689453125 54.40113830566406 C 76.02212524414062 49.84152603149414 76.99997711181641 44.99628448486328 76.99997711181641 39.99999237060547 C 76.99997711181641 35.00370025634766 76.02212524414062 30.1584587097168 74.09356689453125 25.59884643554688 C 72.23016357421875 21.19327163696289 69.56191253662109 17.23603057861328 66.16294097900391 13.83704376220703 C 62.76395416259766 10.43805694580078 58.80671310424805 7.769805908203125 54.40113830566406 5.906402587890625 C 49.84152603149414 3.97784423828125 44.99628448486328 2.999992370605469 39.99999237060547 2.999992370605469 M 39.99999237060547 -7.62939453125e-06 C 62.09137725830078 -7.62939453125e-06 79.99997711181641 17.90860748291016 79.99997711181641 39.99999237060547 C 79.99997711181641 62.09137725830078 62.09137725830078 79.99997711181641 39.99999237060547 79.99997711181641 C 17.90860748291016 79.99997711181641 -7.62939453125e-06 62.09137725830078 -7.62939453125e-06 39.99999237060547 C -7.62939453125e-06 17.90860748291016 17.90860748291016 -7.62939453125e-06 39.99999237060547 -7.62939453125e-06 Z" stroke="none" fill="#83793c"/>
                            </g>
                          </g>
                        </g>
                      </g>
                    </g>
                  </g>
                </g>
              </g>
            </g>
          </g>
        </g>
        <g id="g8115" transform="translate(215.793 2790.01)">
          <g id="g8117" transform="translate(0 -682.665)">
            <g id="g8119" clip-path="url(#clip-path)">
              <g id="g8125" transform="translate(-33.259 0.709)">
                <path id="path8127" d="M-338.457-377.826h-25.835v-25.108c5.31-7.679,37.755-5.416,25.835,25.108" transform="translate(364.292 406.667)" fill="#fbdf63"/>
              </g>
              <g id="g8129" transform="translate(-33.259 0.709)">
                <path id="path8131" d="M-338.457-377.826h-.619c6.164-24.728-15.887-30.6-25.216-24.374v-.734c5.31-7.679,37.755-5.416,25.835,25.108" transform="translate(364.292 406.667)" fill="#f9d11f"/>
              </g>
            </g>
          </g>
          <g id="g8265" transform="translate(0 -682.665)">
            <g id="g8267" clip-path="url(#clip-path)">
              <g id="g8273" transform="translate(-33.259 51.036)">
                <path id="path8275" d="M-338.457-377.654h-25.835v-25.1c5.31-7.676,37.755-5.413,25.835,25.1" transform="translate(364.292 406.481)" fill="#003343"/>
              </g>
              <g id="g8277" transform="translate(-33.259 51.036)">
                <path id="path8279" d="M-338.457-377.654h-.619c6.164-24.717-15.887-30.585-25.216-24.362v-.734c5.31-7.676,37.755-5.413,25.835,25.1" transform="translate(364.292 406.481)" fill="#002439"/>
              </g>
            </g>
          </g>
          <g id="g8281" transform="translate(0 -682.665)">
            <g id="g8283" clip-path="url(#clip-path)">
              <g id="g8289" transform="translate(17.066 51.014)">
                <path id="path8291" d="M-338.457-377.826h-25.835v-25.108c5.31-7.679,37.755-5.416,25.835,25.108" transform="translate(364.292 406.667)" fill="#ff7e50"/>
              </g>
              <g id="g8293" transform="translate(17.066 51.014)">
                <path id="path8295" d="M-338.457-377.826h-.619c6.164-24.728-15.887-30.6-25.216-24.374v-.734c5.31-7.679,37.755-5.416,25.835,25.108" transform="translate(364.292 406.667)" fill="#ff6247"/>
              </g>
              <g id="g8297" transform="translate(2.941 54.225)">
                <path id="path8299" d="M-233.028-131.751v15.573h-14.6c-12.2-25.649,14.6-34.273,14.6-15.573" transform="translate(250.816 141.808)" fill="#ffa68a"/>
              </g>
              <g id="g8301" transform="translate(2.941 54.225)">
                <path id="path8303" d="M-233.028-131.751c-.9-16.1-20.23-9.82-14.176,15.573h-.427c-12.2-25.649,14.6-34.273,14.6-15.573" transform="translate(250.816 141.808)" fill="#ff7e50"/>
              </g>
            </g>
          </g>
        </g>
      </g>
    </g>
    <g id="notes_17676734" transform="translate(216.751 2485.089)">
      <g id="Grupo_1202186" data-name="Grupo 1202186" transform="translate(3.403 8.953)">
        <path id="Trazado_1040002" data-name="Trazado 1040002" d="M46.424,13.943l6.81,31.443A3.546,3.546,0,0,1,50.519,49.6l-31.443,6.81A3.546,3.546,0,0,1,14.859,53.7L8.049,22.255a3.546,3.546,0,0,1,2.715-4.217l31.443-6.81a3.546,3.546,0,0,1,4.217,2.715Z" transform="translate(-7.191 -10.372)" fill="#53c496"/>
        <path id="Trazado_1040003" data-name="Trazado 1040003" d="M28.523,54.9,19.08,56.956a3.542,3.542,0,0,1-4.223-2.719l-1.316-6.045L8.046,22.8a3.56,3.56,0,0,1,2.719-4.223L25.4,15.41a35.092,35.092,0,0,0-4.5,17.57A35.923,35.923,0,0,0,24.17,48.192a27.217,27.217,0,0,0,4.353,6.71Z" transform="translate(-7.191 -10.915)" opacity="0.15"/>
        <path id="Trazado_1040004" data-name="Trazado 1040004" d="M18.212,57.157a4.33,4.33,0,0,1-4.225-3.408L7.177,22.306a4.323,4.323,0,0,1,3.31-5.139l31.444-6.81a4.333,4.333,0,0,1,5.138,3.309L53.878,45.11a4.319,4.319,0,0,1-3.309,5.138L19.127,57.059a4.3,4.3,0,0,1-.914.1ZM42.846,11.811a2.791,2.791,0,0,0-.588.063l-31.442,6.81a2.771,2.771,0,0,0-2.122,3.293L15.5,53.422A2.771,2.771,0,0,0,18.8,55.544l31.443-6.811a2.772,2.772,0,0,0,2.121-3.3L45.553,13.995a2.778,2.778,0,0,0-2.708-2.184Z" transform="translate(-7.078 -10.259)" fill="#101016"/>
      </g>
      <g id="Grupo_1202190" data-name="Grupo 1202190" transform="translate(0 6.193)">
        <g id="Grupo_1202188" data-name="Grupo 1202188">
          <path id="Trazado_1040005" data-name="Trazado 1040005" d="M43.333,11.532V31.949a3.546,3.546,0,0,1-1.039,2.508L30.539,46.212a3.546,3.546,0,0,1-2.508,1.039H7.614A3.546,3.546,0,0,1,4.067,43.7V11.532A3.546,3.546,0,0,1,7.614,7.986H39.786a3.546,3.546,0,0,1,3.546,3.546Z" transform="translate(-3.292 -7.21)" fill="#ffdc6e"/>
          <path id="Trazado_1040006" data-name="Trazado 1040006" d="M30.166,7.986A24.656,24.656,0,0,0,24.9,14.465a35.093,35.093,0,0,0-4.5,17.57,35.923,35.923,0,0,0,3.268,15.213H7.607A3.549,3.549,0,0,1,4.064,43.7V11.529A3.549,3.549,0,0,1,7.607,7.986Z" transform="translate(-3.292 -7.21)" opacity="0.15"/>
          <g id="Grupo_1202187" data-name="Grupo 1202187">
            <path id="Trazado_1040007" data-name="Trazado 1040007" d="M27.918,47.913H7.5a4.326,4.326,0,0,1-4.322-4.321V11.419A4.327,4.327,0,0,1,7.5,7.1H39.673a4.326,4.326,0,0,1,4.321,4.322V31.837a4.351,4.351,0,0,1-1.265,3.056L30.975,46.648a4.294,4.294,0,0,1-3.056,1.265ZM7.5,8.648A2.774,2.774,0,0,0,4.73,11.419V43.592A2.774,2.774,0,0,0,7.5,46.362H27.918a2.752,2.752,0,0,0,1.959-.811L41.633,33.8a2.789,2.789,0,0,0,.811-1.959V11.419a2.774,2.774,0,0,0-2.77-2.771H7.5Z" transform="translate(-3.179 -7.096)" fill="#101016"/>
            <path id="Trazado_1040008" data-name="Trazado 1040008" d="M37.722,21.375H11.33a.776.776,0,0,1,0-1.552H37.722a.776.776,0,1,1,0,1.552Z" transform="translate(-4.118 -8.717)" fill="#101016"/>
            <path id="Trazado_1040009" data-name="Trazado 1040009" d="M37.722,31.145H11.33a.776.776,0,0,1,0-1.552H37.722a.776.776,0,1,1,0,1.552Z" transform="translate(-4.118 -9.961)" fill="#101016"/>
            <path id="Trazado_1040010" data-name="Trazado 1040010" d="M22.988,40.915H11.33a.776.776,0,0,1,0-1.552H22.988a.776.776,0,0,1,0,1.552Z" transform="translate(-4.118 -11.205)" fill="#101016"/>
          </g>
        </g>
        <g id="Grupo_1202189" data-name="Grupo 1202189" transform="translate(25.433 25.433)">
          <path id="Trazado_1040011" data-name="Trazado 1040011" d="M46.715,37.129A3.356,3.356,0,0,1,46,38.17L34.252,49.921a3.356,3.356,0,0,1-1.041.712V39.8a2.665,2.665,0,0,1,2.671-2.671Z" transform="translate(-32.436 -36.353)" fill="#ffedad"/>
          <path id="Trazado_1040012" data-name="Trazado 1040012" d="M33.1,51.3a.777.777,0,0,1-.776-.776V39.687a3.451,3.451,0,0,1,3.446-3.447H46.6a.776.776,0,0,1,.712,1.083,4.158,4.158,0,0,1-.877,1.282L34.687,50.356a4.141,4.141,0,0,1-1.284.877.79.79,0,0,1-.3.062Zm2.671-13.5a1.9,1.9,0,0,0-1.894,1.9v9.287L45.057,37.792Z" transform="translate(-32.322 -36.24)" fill="#101016"/>
        </g>
      </g>
      <g id="Grupo_1202193" data-name="Grupo 1202193" transform="translate(10.583)">
        <g id="Grupo_1202191" data-name="Grupo 1202191" transform="translate(4.118 4.139)">
          <path id="Trazado_1040013" data-name="Trazado 1040013" d="M26.842,11.537a1.37,1.37,0,0,1-1.937,0L21.314,7.946a1.37,1.37,0,1,1,1.937-1.937L26.842,9.6A1.37,1.37,0,0,1,26.842,11.537Z" transform="translate(-20.138 -4.853)" fill="#f0f0fc"/>
          <path id="Trazado_1040014" data-name="Trazado 1040014" d="M25.76,12.6a2.138,2.138,0,0,1-1.517-.627L20.652,8.385a2.148,2.148,0,0,1,0-3.034,2.2,2.2,0,0,1,3.034,0l3.591,3.591A2.144,2.144,0,0,1,25.76,12.6ZM22.17,6.274a.594.594,0,0,0-.42,1.014l3.591,3.591a.594.594,0,1,0,.84-.84L22.59,6.447a.592.592,0,0,0-.42-.173Z" transform="translate(-20.025 -4.742)" fill="#101016"/>
        </g>
        <g id="Grupo_1202192" data-name="Grupo 1202192">
          <circle id="Elipse_12297" data-name="Elipse 12297" cx="4.422" cy="4.422" r="4.422" transform="translate(0.772 0.773)" fill="#f7524b"/>
          <path id="Trazado_1040015" data-name="Trazado 1040015" d="M20.5,10.39a5.194,5.194,0,1,1,3.674-1.52A5.179,5.179,0,0,1,20.5,10.39Zm0-8.839a3.643,3.643,0,1,0,2.577,1.066A3.634,3.634,0,0,0,20.5,1.551Z" transform="translate(-15.306 0)" fill="#101016"/>
        </g>
      </g>
    </g>
  </g>
</svg>
