<svg xmlns="http://www.w3.org/2000/svg" xmlns:xlink="http://www.w3.org/1999/xlink" width="108" height="108" viewBox="0 0 108 108">
  <defs>
    <filter id="Trazado_904820" x="0" y="0" width="108" height="108" filterUnits="userSpaceOnUse">
      <feOffset dy="3" input="SourceAlpha"/>
      <feGaussianBlur stdDeviation="3" result="blur"/>
      <feFlood flood-opacity="0.161"/>
      <feComposite operator="in" in2="blur"/>
      <feComposite in="SourceGraphic"/>
    </filter>
  </defs>
  <g id="Grupo_1207936" data-name="Grupo 1207936" transform="translate(9 6)">
    <g id="Grupo_1201662" data-name="Grupo 1201662" transform="translate(0 0)">
      <g id="Grupo_1173585" data-name="Grupo 1173585">
        <g id="Grupo_1173428" data-name="Grupo 1173428">
          <g id="Grupo_1171958" data-name="Grupo 1171958">
            <g id="Grupo_1167341" data-name="Grupo 1167341">
              <g id="Grupo_1166792" data-name="Grupo 1166792">
                <g transform="matrix(1, 0, 0, 1, -9, -6)" filter="url(#Trazado_904820)">
                  <g id="Trazado_904820-2" data-name="Trazado 904820" transform="translate(9 6)" fill="#fdfbec">
                    <path d="M 44.99999618530273 88.49999237060547 C 39.12687301635742 88.49999237060547 33.43022155761719 87.35006713867188 28.06829643249512 85.08216857910156 C 22.88852119445801 82.89130401611328 18.23629570007324 79.75457763671875 14.24084663391113 75.75914001464844 C 10.24540901184082 71.76369476318359 7.108683586120605 67.11146545410156 4.917821407318115 61.93169403076172 C 2.649921178817749 56.56976699829102 1.499996185302734 50.87311553955078 1.499996185302734 44.99999237060547 C 1.499996185302734 39.12686920166016 2.649921178817749 33.43021774291992 4.917821407318115 28.06829261779785 C 7.108683586120605 22.88851737976074 10.24540901184082 18.23630523681641 14.24084663391113 14.24085521697998 C 18.23629570007324 10.24540519714355 22.88852119445801 7.108692169189453 28.06829643249512 4.917829990386963 C 33.43022155761719 2.649929761886597 39.12687301635742 1.500004887580872 44.99999618530273 1.500004887580872 C 50.87311935424805 1.500004887580872 56.56977081298828 2.649929761886597 61.93169784545898 4.917829990386963 C 67.11147308349609 7.108692169189453 71.76369476318359 10.24540519714355 75.75914764404297 14.24085521697998 C 79.75458526611328 18.23630523681641 82.89131164550781 22.88851737976074 85.08216857910156 28.06829261779785 C 87.35007476806641 33.43021774291992 88.5 39.12686920166016 88.5 44.99999237060547 C 88.5 50.87311553955078 87.35007476806641 56.56976699829102 85.08216857910156 61.93169403076172 C 82.89131164550781 67.11146545410156 79.75458526611328 71.76369476318359 75.75914764404297 75.75914001464844 C 71.76369476318359 79.75457763671875 67.11147308349609 82.89130401611328 61.93169784545898 85.08216857910156 C 56.56977081298828 87.35006713867188 50.87311935424805 88.49999237060547 44.99999618530273 88.49999237060547 Z" stroke="none"/>
                    <path d="M 44.99999618530273 2.999992370605469 C 39.32870864868164 2.999992370605469 33.82865142822266 4.11004638671875 28.65262603759766 6.299331665039062 C 23.65165710449219 8.414566040039062 19.15968322753906 11.44333648681641 15.301513671875 15.30150604248047 C 11.44333648681641 19.15967559814453 8.414566040039062 23.65164947509766 6.299339294433594 28.65262222290039 C 4.110054016113281 33.82864761352539 2.999992370605469 39.32870483398438 2.999992370605469 44.99999237060547 C 2.999992370605469 50.67127990722656 4.110054016113281 56.17132186889648 6.299339294433594 61.34736633300781 C 8.414566040039062 66.34833526611328 11.44333648681641 70.84029388427734 15.301513671875 74.69846343994141 C 19.15968322753906 78.55663299560547 23.65165710449219 81.58540344238281 28.65262603759766 83.70063781738281 C 33.82865142822266 85.88992309570312 39.32870864868164 86.99997711181641 44.99999618530273 86.99997711181641 C 50.67128372192383 86.99997711181641 56.17134094238281 85.88992309570312 61.34736633300781 83.70063781738281 C 66.34834289550781 81.58540344238281 70.84030914306641 78.55663299560547 74.69847869873047 74.69846343994141 C 78.55665588378906 70.84029388427734 81.58542633056641 66.34833526611328 83.70065307617188 61.34736633300781 C 85.88993835449219 56.17132186889648 87 50.67127990722656 87 44.99999237060547 C 87 39.32870483398438 85.88993835449219 33.82864761352539 83.70065307617188 28.65262222290039 C 81.58542633056641 23.65164947509766 78.55665588378906 19.15967559814453 74.69847869873047 15.30150604248047 C 70.84030914306641 11.44333648681641 66.34834289550781 8.414566040039062 61.34736633300781 6.299331665039062 C 56.17134094238281 4.11004638671875 50.67128372192383 2.999992370605469 44.99999618530273 2.999992370605469 M 44.99999618530273 -7.62939453125e-06 C 69.85281372070312 -7.62939453125e-06 90 20.14717864990234 90 44.99999237060547 C 90 69.85279083251953 69.85281372070312 89.99997711181641 44.99999618530273 89.99997711181641 C 20.14717864990234 89.99997711181641 -7.62939453125e-06 69.85279083251953 -7.62939453125e-06 44.99999237060547 C -7.62939453125e-06 20.14717864990234 20.14717864990234 -7.62939453125e-06 44.99999618530273 -7.62939453125e-06 Z" stroke="none" fill="#83793c"/>
                  </g>
                </g>
              </g>
            </g>
          </g>
        </g>
      </g>
    </g>
    <g id="teacher_4202854" transform="translate(10.485 10.112)">
      <path id="Trazado_1053074" data-name="Trazado 1053074" d="M46.649,12.325v4.911a3.052,3.052,0,0,0-2.059-.793c-13.384,0-13.384-5.148-13.384-5.148,0,5.148-5.148,5.148-5.148,5.148A3.052,3.052,0,0,0,24,17.235V12.325a11.325,11.325,0,0,1,22.649,0Z" transform="translate(0.62 0.03)" fill="#555a66"/>
      <path id="Trazado_1053075" data-name="Trazado 1053075" d="M35.325,1A11.318,11.318,0,0,0,24,12.325v4.118a11.325,11.325,0,0,1,22.649,0V12.325A11.318,11.318,0,0,0,35.325,1Z" transform="translate(0.62 0.03)" fill="#414952"/>
      <path id="Trazado_1053076" data-name="Trazado 1053076" d="M37.089,59.089h1.03v4.118H36.059A2.065,2.065,0,0,1,34,61.148V56a3.089,3.089,0,0,0,3.089,3.089Z" transform="translate(0.915 1.652)" fill="#cfa388"/>
      <path id="Trazado_1053077" data-name="Trazado 1053077" d="M37.089,59.089A3.089,3.089,0,0,1,34,56v2.059a3.089,3.089,0,0,0,3.089,3.089h1.03V59.089Z" transform="translate(0.915 1.652)" fill="#b2876d"/>
      <path id="Trazado_1053078" data-name="Trazado 1053078" d="M38.118,47v6.177h-1.03A3.089,3.089,0,0,0,34,56.266V49.059A2.065,2.065,0,0,1,36.059,47Z" transform="translate(0.915 1.387)" fill="#cfa388"/>
      <path id="Trazado_1053079" data-name="Trazado 1053079" d="M48.3,59v4.118H38V59H48.3Z" transform="translate(1.033 1.741)" fill="#966857"/>
      <path id="Trazado_1053080" data-name="Trazado 1053080" d="M48.3,59v2.059H38V59H48.3Z" transform="translate(1.033 1.741)" fill="#8d5c4d"/>
      <path id="Trazado_1053081" data-name="Trazado 1053081" d="M48.3,47v6.177H38V47Z" transform="translate(1.033 1.387)" fill="#966857"/>
      <path id="Trazado_1053082" data-name="Trazado 1053082" d="M35.207,36.089l-3.089,3.089L28,35.059v-1.03L32.118,33Z" transform="translate(0.738 0.974)" fill="#bec3d2"/>
      <path id="Trazado_1053083" data-name="Trazado 1053083" d="M42.207,34.1v.957l-4.118,4.118L35,36.089,38.089,33Z" transform="translate(0.944 0.974)" fill="#bec3d2"/>
      <path id="Trazado_1053084" data-name="Trazado 1053084" d="M38.177,39.089l-2.059,2.059H34.059L32,39.089,35.089,36Z" transform="translate(0.856 1.062)" fill="#4ab8f7"/>
      <path id="Trazado_1053085" data-name="Trazado 1053085" d="M36.148,41l1.421,6.177H36.148a2.065,2.065,0,0,0-2.059,2.059v7.207L31,54.384,34.089,41Z" transform="translate(0.826 1.21)" fill="#19cffc"/>
      <path id="Trazado_1053086" data-name="Trazado 1053086" d="M12.236,51a38.568,38.568,0,0,1-1.03,8.236S4,59.236,4,51a4.118,4.118,0,1,0,8.236,0Z" transform="translate(0.03 1.505)" fill="#bec3d2"/>
      <path id="Trazado_1053087" data-name="Trazado 1053087" d="M53,51h6.6c.062.4.124.813.175,1.235a6.139,6.139,0,0,1-1.688,5.106C57.55,53.059,53,53.059,53,53.059Z" transform="translate(1.475 1.505)" fill="#bec3d2"/>
      <path id="Trazado_1053088" data-name="Trazado 1053088" d="M48,59h5.148v4.118H48Z" transform="translate(1.328 1.741)" fill="#f2f6fc"/>
      <path id="Trazado_1053089" data-name="Trazado 1053089" d="M36.738,63.856H20.266V48.413L11,59.738A38.568,38.568,0,0,0,12.03,51.5l2.059-12.354,2.059-2.059L28.5,34v1.029l4.118,4.118,2.059,2.059L31.59,54.59l3.088,2.059V61.8A2.065,2.065,0,0,0,36.738,63.856Z" transform="translate(0.236 1.003)" fill="#dce1eb"/>
      <path id="Trazado_1053090" data-name="Trazado 1053090" d="M53.5,51.5v2.059H48.354V47.381H37.421L36,41.2l2.059-2.059,4.118-4.118V34.07L53.5,37.086s4.87,3.48,6.6,14.413Z" transform="translate(0.974 1.005)" fill="#dce1eb"/>
      <path id="Trazado_1053091" data-name="Trazado 1053091" d="M15.089,26v7.207H12V26Z" transform="translate(0.266 0.767)" fill="#faa68e"/>
      <path id="Trazado_1053092" data-name="Trazado 1053092" d="M6,30h6.177v3.088H6Z" transform="translate(0.089 0.885)" fill="#ffcdbe"/>
      <path id="Trazado_1053093" data-name="Trazado 1053093" d="M14.236,36.089a3.025,3.025,0,0,0-3.089,3.089H8.059L6,37.118V33h5.148a3.025,3.025,0,0,0,3.089,3.089Z" transform="translate(0.089 0.974)" fill="#faa68e"/>
      <path id="Trazado_1053094" data-name="Trazado 1053094" d="M16.148,33v4.118l-2.059,2.059H11a3.025,3.025,0,0,1,3.089-3.089A3.025,3.025,0,0,1,11,33Z" transform="translate(0.236 0.974)" fill="#ffbeaa"/>
      <path id="Trazado_1053095" data-name="Trazado 1053095" d="M14.3,39,12.236,51.354a4.118,4.118,0,0,1-8.236,0L8.118,39Z" transform="translate(0.03 1.151)" fill="#ffcdbe"/>
      <path id="Trazado_1053096" data-name="Trazado 1053096" d="M10.177,54.443a4.118,4.118,0,0,1-4.118-4.118L9.834,39H8.118L4,51.354a4.106,4.106,0,0,0,6.906,3.015,4.155,4.155,0,0,1-.729.073Z" transform="translate(0.03 1.151)" fill="#ffbeaa"/>
      <path id="Trazado_1053097" data-name="Trazado 1053097" d="M53.561,53s4.55,0,5.086,4.283a6.1,6.1,0,0,1-4.437,1.894H37.089a3.089,3.089,0,0,1,0-6.177Z" transform="translate(0.915 1.564)" fill="#ffcdbe"/>
      <path id="Trazado_1053098" data-name="Trazado 1053098" d="M54.209,57.059H37.088A3.05,3.05,0,0,1,34.189,55a3.079,3.079,0,0,0,2.9,4.118H54.209a6.1,6.1,0,0,0,4.437-1.894,5.028,5.028,0,0,0-.476-1.614,6.1,6.1,0,0,1-3.962,1.45Z" transform="translate(0.915 1.623)" fill="#ffbeaa"/>
      <g id="Grupo_1208603" data-name="Grupo 1208603" transform="translate(23.59 16.472)">
        <path id="Trazado_1053099" data-name="Trazado 1053099" d="M38.177,30.48v2.594l-3.089,3.089L32,33.074V30.48a9.177,9.177,0,0,0,6.177,0Z" transform="translate(-22.734 -15.573)" fill="#faa68e"/>
        <path id="Trazado_1053100" data-name="Trazado 1053100" d="M24.03,16.793A3.052,3.052,0,0,1,26.089,16v6.177A3.089,3.089,0,0,1,23,19.089,3.027,3.027,0,0,1,24.03,16.793Z" transform="translate(-23 -16)" fill="#faa68e"/>
        <path id="Trazado_1053101" data-name="Trazado 1053101" d="M44,16a3.089,3.089,0,1,1,0,6.177Z" transform="translate(-22.38 -16)" fill="#faa68e"/>
      </g>
      <path id="Trazado_1053102" data-name="Trazado 1053102" d="M44.531,16.148v6.177a9.266,9.266,0,0,1-18.531,0V16.148s5.148,0,5.148-5.148C31.148,11,31.148,16.148,44.531,16.148Z" transform="translate(0.679 0.325)" fill="#ffcdbe"/>
      <path id="Trazado_1053103" data-name="Trazado 1053103" d="M31.148,11c0,5.148-5.148,5.148-5.148,5.148v2.059s5.148,0,5.148-5.148c0,0,0,5.148,13.384,5.148V16.148C31.148,16.148,31.148,11,31.148,11Z" transform="translate(0.679 0.325)" fill="#ffbeaa"/>
      <path id="Trazado_1053104" data-name="Trazado 1053104" d="M35.3,32.649A10.306,10.306,0,0,1,25,22.354V16.177a1.03,1.03,0,0,1,1.03-1.03,3.964,3.964,0,0,0,4.118-4.118,1.03,1.03,0,0,1,2.059,0c0,.008.423,4.118,12.354,4.118a1.03,1.03,0,0,1,1.03,1.03v6.177A10.306,10.306,0,0,1,35.3,32.649Zm-8.236-15.53v5.235a8.236,8.236,0,1,0,16.472,0V17.2c-6.984-.142-10.326-1.734-11.925-3.272A5.993,5.993,0,0,1,27.059,17.119Z" transform="translate(0.649 0.295)"/>
      <path id="Trazado_1053105" data-name="Trazado 1053105" d="M44,23.236V21.177a2.059,2.059,0,0,0,0-4.118V15a4.118,4.118,0,0,1,0,8.236Z" transform="translate(1.21 0.443)"/>
      <path id="Trazado_1053106" data-name="Trazado 1053106" d="M26.118,23.236a4.118,4.118,0,1,1,0-8.236v2.059a2.059,2.059,0,1,0,0,4.118Z" transform="translate(0.561 0.443)"/>
      <path id="Trazado_1053107" data-name="Trazado 1053107" d="M47.708,17.5H45.649V12.354a10.3,10.3,0,0,0-20.59,0V17.5H23V12.354a12.354,12.354,0,0,1,24.708,0Z" transform="translate(0.59)"/>
      <path id="Trazado_1053108" data-name="Trazado 1053108" d="M35.118,27.118A4.118,4.118,0,0,1,31,23h2.059a2.059,2.059,0,0,0,4.118,0h2.059A4.118,4.118,0,0,1,35.118,27.118Z" transform="translate(0.826 0.679)"/>
      <path id="Trazado_1053109" data-name="Trazado 1053109" d="M31,18h2.059v2.059H31Z" transform="translate(0.826 0.531)"/>
      <path id="Trazado_1053110" data-name="Trazado 1053110" d="M37,18h2.059v2.059H37Z" transform="translate(1.003 0.531)"/>
      <path id="Trazado_1053111" data-name="Trazado 1053111" d="M35.118,37.207a1.029,1.029,0,0,1-.728-.3L31.3,33.816a1.029,1.029,0,0,1-.3-.728V30h2.059v2.662l2.059,2.059,2.059-2.059V30h2.059v3.089a1.029,1.029,0,0,1-.3.728L35.846,36.9A1.029,1.029,0,0,1,35.118,37.207Z" transform="translate(0.826 0.885)"/>
      <path id="Trazado_1053112" data-name="Trazado 1053112" d="M54.242,60.825H37.118a4.118,4.118,0,1,1,0-8.236H52.561V46.412H54.62v7.207a1.03,1.03,0,0,1-1.03,1.03H37.118a2.059,2.059,0,1,0,0,4.118H54.242a5.134,5.134,0,0,0,3.86-1.75,5.187,5.187,0,0,0,1.245-4.092c-1.329-10.2-5.447-14.169-6.232-14.838L37.878,34.023l.531-1.989,15.443,4.118a1.03,1.03,0,0,1,.333.156c.229.164,5.608,4.133,7.2,16.35a7.221,7.221,0,0,1-7.142,8.167Z" transform="translate(0.885 0.945)"/>
      <path id="Trazado_1053113" data-name="Trazado 1053113" d="M48.443,64.531H36.089A3.089,3.089,0,0,1,33,61.443V49.089A3.089,3.089,0,0,1,36.089,46H48.443a1.029,1.029,0,0,1,1.03,1.029v6.177H47.413V48.059H36.089a1.03,1.03,0,0,0-1.029,1.029V61.443a1.03,1.03,0,0,0,1.029,1.03H47.413V59.384h2.059V63.5A1.029,1.029,0,0,1,48.443,64.531Z" transform="translate(0.885 1.357)"/>
      <path id="Trazado_1053114" data-name="Trazado 1053114" d="M37,47h2.059v6.177H37Z" transform="translate(1.003 1.387)"/>
      <path id="Trazado_1053115" data-name="Trazado 1053115" d="M37,59h2.059v4.118H37Z" transform="translate(1.003 1.741)"/>
      <path id="Trazado_1053116" data-name="Trazado 1053116" d="M53.148,64.148H48V62.089h4.118V59h2.059v4.118A1.029,1.029,0,0,1,53.148,64.148Z" transform="translate(1.328 1.741)"/>
      <path id="Trazado_1053117" data-name="Trazado 1053117" d="M8.148,56.531A5.154,5.154,0,0,1,3,51.384a1.03,1.03,0,0,1,.053-.325L7.171,38.7a1.03,1.03,0,0,1,.977-.7h6.177a1.03,1.03,0,0,1,1.015,1.2L13.3,51.473a5.153,5.153,0,0,1-5.148,5.058ZM5.059,51.539a3.089,3.089,0,1,0,6.177-.155.946.946,0,0,1,.014-.17l1.858-11.155H8.888Z" transform="translate(0 1.121)"/>
      <path id="Trazado_1053118" data-name="Trazado 1053118" d="M14.846,39.934,13.39,38.479l1.757-1.757v-.6a1.03,1.03,0,0,1-1.03,1.03,1.938,1.938,0,0,0-2.059,2.059H10a3.9,3.9,0,0,1,1.307-3.083A4.351,4.351,0,0,1,10,33.029,1.03,1.03,0,0,1,11.03,32h5.148a1.03,1.03,0,0,1,1.03,1.029v4.118a1.029,1.029,0,0,1-.3.728ZM12.29,34.059a1.84,1.84,0,0,0,1.828,1.03,1.03,1.03,0,0,1,1.03,1.029V34.059Z" transform="translate(0.206 0.944)"/>
      <path id="Trazado_1053119" data-name="Trazado 1053119" d="M16.148,33.236H14.089V27.059h-1.03v6.177H11V26.03A1.03,1.03,0,0,1,12.03,25h3.089a1.03,1.03,0,0,1,1.03,1.03Z" transform="translate(0.236 0.738)"/>
      <path id="Trazado_1053120" data-name="Trazado 1053120" d="M11.177,34.148H6.03A1.03,1.03,0,0,1,5,33.118V30.03A1.03,1.03,0,0,1,6.03,29h6.177v2.059H7.059v1.029h4.118Z" transform="translate(0.059 0.856)"/>
      <path id="Trazado_1053121" data-name="Trazado 1053121" d="M7.361,39.9,5.3,37.846a1.03,1.03,0,0,1-.3-.728V33H7.059v3.692l1.757,1.757Z" transform="translate(0.059 0.974)"/>
      <path id="Trazado_1053122" data-name="Trazado 1053122" d="M57.064,57.44c-.407-3.254-3.7-3.381-4.064-3.381V52a5.99,5.99,0,0,1,6.107,5.185Z" transform="translate(1.475 1.534)"/>
      <path id="Trazado_1053123" data-name="Trazado 1053123" d="M53,50h7.207v2.059H53Z" transform="translate(1.475 1.475)"/>
      <path id="Trazado_1053124" data-name="Trazado 1053124" d="M0,0H16.979V2.059H0Z" transform="translate(16.145 37.084) rotate(-14.064)"/>
      <path id="Trazado_1053125" data-name="Trazado 1053125" d="M36.974,64.5H20.5a1.03,1.03,0,0,1-1.03-1.029V50.912L12.033,60a1.029,1.029,0,0,1-.8.379c-.082,0-8.236-.1-8.236-9.266H5.059c0,6,4.269,7.006,5.717,7.174L19.7,47.379a1.029,1.029,0,0,1,1.826.651V62.442H36.974Z" transform="translate(0 1.387)"/>
      <path id="Trazado_1053126" data-name="Trazado 1053126" d="M12.027,59.486l-2-.5a37.871,37.871,0,0,0,1-7.986h2.059a39.282,39.282,0,0,1-1.06,8.486Z" transform="translate(0.207 1.505)"/>
      <path id="Trazado_1053127" data-name="Trazado 1053127" d="M38.325,40.177a1.029,1.029,0,0,1-.728-.3l-2.361-2.361-2.361,2.361a1.03,1.03,0,0,1-1.456,0L27.3,35.757a1.03,1.03,0,0,1-.3-.728V34h2.059v.6l3.089,3.089,2.361-2.361a1.03,1.03,0,0,1,1.456,0l2.361,2.361L41.413,34.6V34h2.059v1.029a1.029,1.029,0,0,1-.3.728l-4.118,4.118A1.029,1.029,0,0,1,38.325,40.177Z" transform="translate(0.708 1.003)"/>
      <path id="Trazado_1053128" data-name="Trazado 1053128" d="M36.139,42.109H34.08a1.029,1.029,0,0,1-.728-.3l-2.059-2.059,1.456-1.456,1.757,1.757h1.207l1.757-1.757,1.456,1.456-2.059,2.059A1.03,1.03,0,0,1,36.139,42.109Z" transform="translate(0.835 1.13)"/>
      <path id="Trazado_1053129" data-name="Trazado 1053129" d="M33.547,57.306l-3.089-2.059a1.03,1.03,0,0,1-.432-1.088l3.089-13.384,2.008.463-2.929,12.69,2.5,1.665Z" transform="translate(0.797 1.203)"/>
      <path id="Trazado_1053130" data-name="Trazado 1053130" d="M0,0H2.059V6.339H0Z" transform="translate(35.981 42.464) rotate(-12.939)"/>
      <path id="Trazado_1053131" data-name="Trazado 1053131" d="M13,17h2.059v6.177H13Z" transform="translate(0.295 0.502)"/>
      <path id="Trazado_1053132" data-name="Trazado 1053132" d="M0,0H5.824V2.059H0Z" transform="translate(15.652 22.95) rotate(-45)"/>
      <path id="Trazado_1053133" data-name="Trazado 1053133" d="M0,0H2.059V5.824H0Z" transform="translate(7.417 20.288) rotate(-45)"/>
    </g>
  </g>
</svg>
