<svg xmlns="http://www.w3.org/2000/svg" xmlns:xlink="http://www.w3.org/1999/xlink" width="108" height="108" viewBox="0 0 108 108">
  <defs>
    <filter id="Trazado_904820" x="0" y="0" width="108" height="108" filterUnits="userSpaceOnUse">
      <feOffset dy="3" input="SourceAlpha"/>
      <feGaussianBlur stdDeviation="3" result="blur"/>
      <feFlood flood-opacity="0.161"/>
      <feComposite operator="in" in2="blur"/>
      <feComposite in="SourceGraphic"/>
    </filter>
  </defs>
  <g id="Grupo_1208628" data-name="Grupo 1208628" transform="translate(-200.881 -7055.96)">
    <g id="Grupo_1208262" data-name="Grupo 1208262" transform="translate(209.881 7061.96)">
      <g id="Grupo_1173585" data-name="Grupo 1173585" transform="translate(0 0)">
        <g id="Grupo_1173428" data-name="Grupo 1173428">
          <g id="Grupo_1171958" data-name="Grupo 1171958">
            <g id="Grupo_1167341" data-name="Grupo 1167341">
              <g id="Grupo_1166792" data-name="Grupo 1166792">
                <g transform="matrix(1, 0, 0, 1, -9, -6)" filter="url(#Trazado_904820)">
                  <g id="Trazado_904820-2" data-name="Trazado 904820" transform="translate(9 6)" fill="#fdfbec">
                    <path d="M 44.99999618530273 88.49999237060547 C 39.12687301635742 88.49999237060547 33.43022155761719 87.35006713867188 28.06829643249512 85.08216857910156 C 22.88852119445801 82.89130401611328 18.23629570007324 79.75457763671875 14.24084663391113 75.75914001464844 C 10.24540901184082 71.76369476318359 7.108683586120605 67.11146545410156 4.917821407318115 61.93169403076172 C 2.649921178817749 56.56976699829102 1.499996185302734 50.87311553955078 1.499996185302734 44.99999237060547 C 1.499996185302734 39.12686920166016 2.649921178817749 33.43021774291992 4.917821407318115 28.06829261779785 C 7.108683586120605 22.88851737976074 10.24540901184082 18.23630523681641 14.24084663391113 14.24085521697998 C 18.23629570007324 10.24540519714355 22.88852119445801 7.108692169189453 28.06829643249512 4.917829990386963 C 33.43022155761719 2.649929761886597 39.12687301635742 1.500004887580872 44.99999618530273 1.500004887580872 C 50.87311935424805 1.500004887580872 56.56977081298828 2.649929761886597 61.93169784545898 4.917829990386963 C 67.11147308349609 7.108692169189453 71.76369476318359 10.24540519714355 75.75914764404297 14.24085521697998 C 79.75458526611328 18.23630523681641 82.89131164550781 22.88851737976074 85.08216857910156 28.06829261779785 C 87.35007476806641 33.43021774291992 88.5 39.12686920166016 88.5 44.99999237060547 C 88.5 50.87311553955078 87.35007476806641 56.56976699829102 85.08216857910156 61.93169403076172 C 82.89131164550781 67.11146545410156 79.75458526611328 71.76369476318359 75.75914764404297 75.75914001464844 C 71.76369476318359 79.75457763671875 67.11147308349609 82.89130401611328 61.93169784545898 85.08216857910156 C 56.56977081298828 87.35006713867188 50.87311935424805 88.49999237060547 44.99999618530273 88.49999237060547 Z" stroke="none"/>
                    <path d="M 44.99999618530273 2.999992370605469 C 39.32870864868164 2.999992370605469 33.82865142822266 4.11004638671875 28.65262603759766 6.299331665039062 C 23.65165710449219 8.414566040039062 19.15968322753906 11.44333648681641 15.301513671875 15.30150604248047 C 11.44333648681641 19.15967559814453 8.414566040039062 23.65164947509766 6.299339294433594 28.65262222290039 C 4.110054016113281 33.82864761352539 2.999992370605469 39.32870483398438 2.999992370605469 44.99999237060547 C 2.999992370605469 50.67127990722656 4.110054016113281 56.17132186889648 6.299339294433594 61.34736633300781 C 8.414566040039062 66.34833526611328 11.44333648681641 70.84029388427734 15.301513671875 74.69846343994141 C 19.15968322753906 78.55663299560547 23.65165710449219 81.58540344238281 28.65262603759766 83.70063781738281 C 33.82865142822266 85.88992309570312 39.32870864868164 86.99997711181641 44.99999618530273 86.99997711181641 C 50.67128372192383 86.99997711181641 56.17134094238281 85.88992309570312 61.34736633300781 83.70063781738281 C 66.34834289550781 81.58540344238281 70.84030914306641 78.55663299560547 74.69847869873047 74.69846343994141 C 78.55665588378906 70.84029388427734 81.58542633056641 66.34833526611328 83.70065307617188 61.34736633300781 C 85.88993835449219 56.17132186889648 87 50.67127990722656 87 44.99999237060547 C 87 39.32870483398438 85.88993835449219 33.82864761352539 83.70065307617188 28.65262222290039 C 81.58542633056641 23.65164947509766 78.55665588378906 19.15967559814453 74.69847869873047 15.30150604248047 C 70.84030914306641 11.44333648681641 66.34834289550781 8.414566040039062 61.34736633300781 6.299331665039062 C 56.17134094238281 4.11004638671875 50.67128372192383 2.999992370605469 44.99999618530273 2.999992370605469 M 44.99999618530273 -7.62939453125e-06 C 69.85281372070312 -7.62939453125e-06 90 20.14717864990234 90 44.99999237060547 C 90 69.85279083251953 69.85281372070312 89.99997711181641 44.99999618530273 89.99997711181641 C 20.14717864990234 89.99997711181641 -7.62939453125e-06 69.85279083251953 -7.62939453125e-06 44.99999237060547 C -7.62939453125e-06 20.14717864990234 20.14717864990234 -7.62939453125e-06 44.99999618530273 -7.62939453125e-06 Z" stroke="none" fill="#83793c"/>
                  </g>
                </g>
              </g>
            </g>
          </g>
        </g>
      </g>
    </g>
    <g id="artist_1983164" transform="translate(198.706 7050.02)">
      <path id="Trazado_1053153" data-name="Trazado 1053153" d="M39.788,38.051a3.277,3.277,0,1,1,3.277-3.277A3.281,3.281,0,0,1,39.788,38.051Zm0-4.681a1.4,1.4,0,1,0,1.4,1.4A1.406,1.406,0,0,0,39.788,33.369Z" transform="translate(-6.9 -2.293)"/>
      <path id="Trazado_1053154" data-name="Trazado 1053154" d="M235.788,106.051a3.277,3.277,0,1,1,3.277-3.277,3.281,3.281,0,0,1-3.277,3.277Zm0-4.681a1.4,1.4,0,1,0,1.4,1.4A1.406,1.406,0,0,0,235.788,101.369Z" transform="translate(-157.024 -54.377)"/>
      <path id="Trazado_1053184" data-name="Trazado 1053184" d="M1.06,0A1.06,1.06,0,1,1,0,1.06,1.06,1.06,0,0,1,1.06,0Z" transform="translate(81.448 36.102)"/>
      <circle id="Elipse_13502" data-name="Elipse 13502" cx="1.06" cy="1.06" r="1.06" transform="translate(36.509 39.847)"/>
      <path id="Trazado_1053155" data-name="Trazado 1053155" d="M106.7,43.511a13.553,13.553,0,0,0-11.376,5.282,13.029,13.029,0,0,0-2.261,4.887,16.827,16.827,0,0,0-.556,3.392V92.181h27.151V57.433A13.812,13.812,0,0,0,106.7,43.511Z" transform="translate(-49.792 -11.485)" fill="#ffce56"/>
      <path id="Trazado_1053156" data-name="Trazado 1053156" d="M116.6,90.059H89.447a.936.936,0,0,1-.936-.936V54.014a16.779,16.779,0,0,1,.583-3.615,13.891,13.891,0,0,1,2.428-5.236,14.515,14.515,0,0,1,26.012,9.212V89.123a.936.936,0,0,1-.936.936ZM90.383,88.186h25.278V54.374A12.8,12.8,0,0,0,103.6,41.387a12.661,12.661,0,0,0-10.594,4.918,12.047,12.047,0,0,0-2.092,4.538,15.606,15.606,0,0,0-.53,3.171V88.186Z" transform="translate(-46.729 -8.426)"/>
      <path id="Trazado_1053157" data-name="Trazado 1053157" d="M110.215,198.562h-33.7v-7.7a8.788,8.788,0,0,1,5.1-8.021L93.363,177.5l11.755,5.343a8.788,8.788,0,0,1,5.1,8.021Z" transform="translate(-37.537 -114.121)" fill="#fff"/>
      <path id="Trazado_1053158" data-name="Trazado 1053158" d="M107.152,196.436h-33.7a.936.936,0,0,1-.936-.936v-7.7a9.735,9.735,0,0,1,5.646-8.873l11.755-5.343a.939.939,0,0,1,.775,0l11.755,5.343a9.735,9.735,0,0,1,5.646,8.873v7.7A.936.936,0,0,1,107.152,196.436Zm-32.768-1.872h31.832V187.8a7.86,7.86,0,0,0-4.549-7.169L90.3,175.464,78.932,180.63a7.86,7.86,0,0,0-4.549,7.169Z" transform="translate(-34.474 -111.059)"/>
      <path id="Trazado_1053159" data-name="Trazado 1053159" d="M105.192,190.224l-4.681,2.128V208.31h22.47V192.352l-4.681-2.128v11.533H105.192Z" transform="translate(-55.92 -123.869)" fill="#9dc1e4"/>
      <path id="Trazado_1053160" data-name="Trazado 1053160" d="M119.917,206.181H97.447a.936.936,0,0,1-.936-.936V189.286a.936.936,0,0,1,.549-.852l4.681-2.128a.936.936,0,0,1,1.324.852v10.6H114.3v-10.6a.936.936,0,0,1,1.324-.852l4.681,2.128a.936.936,0,0,1,.549.852v15.959A.936.936,0,0,1,119.917,206.181Zm-21.533-1.872h20.6v-14.42l-2.809-1.276v10.079a.936.936,0,0,1-.936.936H102.128a.936.936,0,0,1-.936-.936V188.612l-2.809,1.276Z" transform="translate(-52.856 -120.803)"/>
      <path id="Trazado_1053161" data-name="Trazado 1053161" d="M136.256,174.987a3.745,3.745,0,0,1-3.745-3.745V167.5H140v3.745A3.745,3.745,0,0,1,136.256,174.987Z" transform="translate(-80.43 -106.461)" fill="#e7d1c4"/>
      <path id="Trazado_1053162" data-name="Trazado 1053162" d="M133.192,172.859a4.687,4.687,0,0,1-4.681-4.681v-3.745a.936.936,0,0,1,.936-.936h7.49a.936.936,0,0,1,.936.936v3.745A4.687,4.687,0,0,1,133.192,172.859Zm-2.809-7.49v2.809a2.809,2.809,0,1,0,5.617,0v-2.809Z" transform="translate(-77.366 -103.397)"/>
      <path id="Trazado_1053163" data-name="Trazado 1053163" d="M117.223,89.794c-5.646,3.068-19.638-2.853-20.151-7.516l-.09.008c.329,6.851-5.066,7.5-5.066,7.5a2.34,2.34,0,0,0-1.4,2.231,2.4,2.4,0,0,0,1.108,1.844,2.085,2.085,0,0,0,1.973.279,13.017,13.017,0,0,0,8.76,9.782,6.539,6.539,0,0,0,4.012-.043l.415-.135a13.018,13.018,0,0,0,8.7-9.615,2.137,2.137,0,0,0,1.959-.222,2.378,2.378,0,0,0,1.138-1.679A2.341,2.341,0,0,0,117.223,89.794Z" transform="translate(-48.261 -41.188)" fill="#e7d1c4"/>
      <g id="Grupo_1208627" data-name="Grupo 1208627" transform="translate(28.828 28.889)">
        <path id="Trazado_1053164" data-name="Trazado 1053164" d="M101.2,102.109a7.159,7.159,0,0,1-2.2-.342,13.977,13.977,0,0,1-9.18-9.6,3.106,3.106,0,0,1-1.79-.571A3.322,3.322,0,0,1,86.516,89a3.26,3.26,0,0,1,1.963-3.121.946.946,0,0,1,.264-.072c.179-.024,4.523-.665,4.241-6.521a.937.937,0,0,1,.859-.978,1.036,1.036,0,0,1,1.1.824c.151,1.376,2.1,3.2,5.082,4.759,4.308,2.251,10.567,3.732,13.691,2.036a.939.939,0,0,1,.834-.03,3.273,3.273,0,0,1,1.9,3.4,3.326,3.326,0,0,1-1.572,2.36,3.018,3.018,0,0,1-1.762.5,14,14,0,0,1-9.1,9.429l-.414.135A7.764,7.764,0,0,1,101.2,102.109ZM90.532,90.158a.934.934,0,0,1,.917.748,12.1,12.1,0,0,0,8.131,9.079,5.565,5.565,0,0,0,3.437-.041l.413-.135a12.118,12.118,0,0,0,8.075-8.923.939.939,0,0,1,.46-.619.927.927,0,0,1,.767-.064,1.207,1.207,0,0,0,1.153-.134,1.448,1.448,0,0,0,.7-1,1.411,1.411,0,0,0-.48-1.249c-3.966,1.735-10.443.093-14.955-2.266a16.583,16.583,0,0,1-4.549-3.3,7.013,7.013,0,0,1-5.464,5.383,1.4,1.4,0,0,0-.755,1.3,1.477,1.477,0,0,0,.7,1.1,1.146,1.146,0,0,0,1.151.167.957.957,0,0,1,.3-.048Z" transform="translate(-74.027 -67.036)"/>
        <circle id="Elipse_13503" data-name="Elipse 13503" cx="0.961" cy="0.961" r="0.961" transform="translate(30.749 22.823)"/>
        <circle id="Elipse_13504" data-name="Elipse 13504" cx="0.961" cy="0.961" r="0.961" transform="translate(21.137 22.823)"/>
        <path id="Trazado_1053165" data-name="Trazado 1053165" d="M141.4,147.352a2.8,2.8,0,0,1-1.855-.7.936.936,0,0,1,1.238-1.4.937.937,0,0,0,1.312-.076.936.936,0,0,1,1.388,1.256A2.814,2.814,0,0,1,141.4,147.352Z" transform="translate(-114.405 -118.014)"/>
        <path id="Trazado_1053166" data-name="Trazado 1053166" d="M218.1,35.462a.936.936,0,0,1-.662-1.6l3.439-3.439a.936.936,0,0,1,1.324,1.324l-3.439,3.439A.934.934,0,0,1,218.1,35.462Z" transform="translate(-174.098 -30.15)"/>
        <path id="Trazado_1053167" data-name="Trazado 1053167" d="M221.54,35.462a.934.934,0,0,1-.662-.274l-3.439-3.439a.936.936,0,0,1,1.324-1.324l3.439,3.439a.936.936,0,0,1-.662,1.6Z" transform="translate(-174.098 -30.15)"/>
        <path id="Trazado_1053168" data-name="Trazado 1053168" d="M34.1,119.462a.936.936,0,0,1-.662-1.6l3.439-3.439a.936.936,0,1,1,1.324,1.324l-3.439,3.439A.934.934,0,0,1,34.1,119.462Z" transform="translate(-33.165 -94.49)"/>
        <path id="Trazado_1053169" data-name="Trazado 1053169" d="M37.54,119.462a.933.933,0,0,1-.662-.274l-3.439-3.439a.936.936,0,1,1,1.324-1.324l3.439,3.439a.936.936,0,0,1-.662,1.6Z" transform="translate(-33.165 -94.49)"/>
      </g>
      <circle id="Elipse_13505" data-name="Elipse 13505" cx="2.341" cy="2.341" r="2.341" transform="translate(60.683 29.441)" fill="#f53e28"/>
      <path id="Trazado_1053170" data-name="Trazado 1053170" d="M168.529,35.06a3.283,3.283,0,1,1,1.091-.187A3.262,3.262,0,0,1,168.529,35.06Zm0-4.683a1.4,1.4,0,1,0,1.265,2.011h0a1.405,1.405,0,0,0-1.266-2.011Z" transform="translate(-105.508 0)"/>
      <path id="Trazado_1053171" data-name="Trazado 1053171" d="M146.212,47.3c-1.228,2.565-4.936.231-10.3-2.338s-10.35-4.4-9.121-6.964,6.572-2.562,11.935.007S147.44,44.735,146.212,47.3Z" transform="translate(-75.905 -5.8)" fill="#f53e28"/>
      <path id="Trazado_1053172" data-name="Trazado 1053172" d="M141.353,46.328c-1.711,0-3.931-1.1-6.805-2.515-.668-.329-1.368-.675-2.1-1.025s-1.431-.676-2.122-1c-3.831-1.781-6.857-3.188-7.565-5.159a2.62,2.62,0,0,1,.124-2.057c1.475-3.077,7.266-3.268,13.184-.434s9.4,7.467,7.927,10.545h0a2.726,2.726,0,0,1-1.591,1.477A3.187,3.187,0,0,1,141.353,46.328Zm-13.2-12.335c-1.845,0-3.161.511-3.582,1.39a.743.743,0,0,0-.05.616c.444,1.235,3.568,2.689,6.592,4.094.7.324,1.415.657,2.14,1s1.446.7,2.119,1.036c2.743,1.353,5.328,2.632,6.417,2.259a.874.874,0,0,0,.514-.517c.86-1.8-1.821-5.544-7.046-8.048a17.072,17.072,0,0,0-7.1-1.836Zm15,10.288h.009Z" transform="translate(-72.845 -2.782)"/>
      <path id="Trazado_1053173" data-name="Trazado 1053173" d="M41.789,215.413a2.253,2.253,0,0,1-2.051-2.5l.6-13.415h2.9l.6,13.415A2.253,2.253,0,0,1,41.789,215.413Z" transform="translate(-9.369 -130.971)" fill="#bf7e68"/>
      <path id="Trazado_1053174" data-name="Trazado 1053174" d="M38.724,213.285a2.827,2.827,0,0,1-2.053-.9,3.5,3.5,0,0,1-.933-2.577l.6-13.415a.936.936,0,0,1,.935-.894h2.895a.936.936,0,0,1,.935.894l.6,13.415a3.5,3.5,0,0,1-.933,2.577A2.827,2.827,0,0,1,38.724,213.285Zm-.552-15.916-.564,12.52a1.627,1.627,0,0,0,.416,1.2.919.919,0,0,0,1.4,0,1.626,1.626,0,0,0,.416-1.2l-.564-12.52Z" transform="translate(-6.304 -127.908)"/>
      <path id="Trazado_1053175" data-name="Trazado 1053175" d="M203.363,167.589c-3.745-2.809.936-9.362-6.554-10.3-5.644-.705-10.3,4.611-10.3,10.3a10.3,10.3,0,0,0,10.3,10.3C202.5,177.887,209.4,172.118,203.363,167.589Zm-2.809,5.579a1.834,1.834,0,1,1,1.834-1.834A1.834,1.834,0,0,1,200.554,173.167Z" transform="translate(-121.791 -98.595)" fill="#fff"/>
      <path id="Trazado_1053176" data-name="Trazado 1053176" d="M193.746,175.764a11.247,11.247,0,0,1-11.235-11.235,11.943,11.943,0,0,1,3.961-8.837,9.341,9.341,0,0,1,7.39-2.391c5.192.649,5.416,3.882,5.6,6.481.115,1.667.215,3.107,1.4,4,3.138,2.353,2.889,4.857,2.461,6.14-1.056,3.167-5.441,5.843-9.576,5.843Zm-1-20.659a7.6,7.6,0,0,0-5.039,1.992,10.039,10.039,0,0,0-3.328,7.432,9.373,9.373,0,0,0,9.362,9.362c3.286,0,7-2.175,7.8-4.563.476-1.43-.132-2.793-1.808-4.05-1.874-1.405-2.02-3.51-2.148-5.367-.173-2.492-.3-4.294-3.961-4.752a7.113,7.113,0,0,0-.879-.055Zm4.741,15.939a2.77,2.77,0,1,1,2.77-2.769A2.773,2.773,0,0,1,197.491,171.044Zm0-3.667a.9.9,0,1,0,.9.9A.9.9,0,0,0,197.491,167.376Z" transform="translate(-118.727 -95.536)"/>
      <circle id="Elipse_13506" data-name="Elipse 13506" cx="1.514" cy="1.514" r="1.514" transform="translate(71.632 61.862)" fill="#a9ba5a"/>
      <path id="Trazado_1053177" data-name="Trazado 1053177" d="M214.492,171.929a2.45,2.45,0,1,1,2.45-2.45A2.453,2.453,0,0,1,214.492,171.929Zm0-3.028a.578.578,0,1,0,.578.578A.579.579,0,0,0,214.492,168.9Z" transform="translate(-141.346 -106.102)"/>
      <circle id="Elipse_13507" data-name="Elipse 13507" cx="1.514" cy="1.514" r="1.514" transform="translate(67.419 67.012)" fill="#ffce56"/>
      <path id="Trazado_1053178" data-name="Trazado 1053178" d="M196.492,193.929a2.45,2.45,0,1,1,2.45-2.45A2.453,2.453,0,0,1,196.492,193.929Zm0-3.028a.578.578,0,1,0,.578.578A.579.579,0,0,0,196.492,190.9Z" transform="translate(-127.559 -122.953)"/>
      <circle id="Elipse_13508" data-name="Elipse 13508" cx="1.514" cy="1.514" r="1.514" transform="translate(70.696 73.097)" fill="#f53e28"/>
      <path id="Trazado_1053179" data-name="Trazado 1053179" d="M210.492,219.929a2.45,2.45,0,1,1,2.45-2.45A2.453,2.453,0,0,1,210.492,219.929Zm0-3.028a.578.578,0,1,0,.578.578A.579.579,0,0,0,210.492,216.9Z" transform="translate(-138.282 -142.867)"/>
      <path id="Trazado_1053180" data-name="Trazado 1053180" d="M40.8,161.521a4.274,4.274,0,0,1-1.456-2.977c0-1.96-1.989.545-3.275,3.05,1.218,1.191,2.935,1.974,4.73-.074Z" transform="translate(-6.56 -99.066)" fill="#f53e28"/>
      <path id="Trazado_1053181" data-name="Trazado 1053181" d="M35.4,160.663a4.415,4.415,0,0,1-3.057-1.459.936.936,0,0,1-.178-1.1c.889-1.732,2.6-4.6,4.059-4.229.368.089.986.415.986,1.6a3.367,3.367,0,0,0,1.2,2.33.936.936,0,0,1,.027,1.264,4.092,4.092,0,0,1-2.9,1.583l-.127,0Zm-1.221-2.349a2.311,2.311,0,0,0,1.276.475,1.767,1.767,0,0,0,.976-.389,4.957,4.957,0,0,1-1-2A15.253,15.253,0,0,0,34.183,158.315Z" transform="translate(-3.495 -96.006)"/>
      <path id="Trazado_1053182" data-name="Trazado 1053182" d="M37.3,173.562c-1.8,2.048-3.512,1.265-4.73.073a8.385,8.385,0,0,0-1.068,3.1,3.981,3.981,0,0,0,7.962,0C39.465,175.494,38.308,174.615,37.3,173.562Z" transform="translate(-3.065 -111.107)" fill="#edebdc"/>
      <path id="Trazado_1053183" data-name="Trazado 1053183" d="M32.42,178.587A4.923,4.923,0,0,1,27.5,173.67a9.241,9.241,0,0,1,1.171-3.529.936.936,0,0,1,1.488-.242,2.955,2.955,0,0,0,1.8.924,2.337,2.337,0,0,0,1.569-.946.935.935,0,0,1,.684-.319.885.885,0,0,1,.7.29c.172.18.348.355.522.527.891.881,1.9,1.882,1.9,3.3A4.923,4.923,0,0,1,32.42,178.587Zm-2.572-6.544a5.085,5.085,0,0,0-.473,1.627,3.045,3.045,0,1,0,6.089,0c0-.6-.564-1.19-1.24-1.861a3.514,3.514,0,0,1-4.377.234Z" transform="translate(0 -108.038)"/>
    </g>
  </g>
</svg>
