<svg xmlns="http://www.w3.org/2000/svg" xmlns:xlink="http://www.w3.org/1999/xlink" width="108" height="108" viewBox="0 0 108 108">
  <defs>
    <filter id="Trazado_904820" x="0" y="0" width="108" height="108" filterUnits="userSpaceOnUse">
      <feOffset dy="3" input="SourceAlpha"/>
      <feGaussianBlur stdDeviation="3" result="blur"/>
      <feFlood flood-opacity="0.161"/>
      <feComposite operator="in" in2="blur"/>
      <feComposite in="SourceGraphic"/>
    </filter>
  </defs>
  <g id="Grupo_1208643" data-name="Grupo 1208643" transform="translate(-619.477 -5836.996)">
    <g id="Grupo_1208383" data-name="Grupo 1208383" transform="translate(628.477 5842.996)">
      <g id="Grupo_1201662" data-name="Grupo 1201662" transform="translate(0 0)">
        <g id="Grupo_1173585" data-name="Grupo 1173585">
          <g id="Grupo_1173428" data-name="Grupo 1173428">
            <g id="Grupo_1171958" data-name="Grupo 1171958">
              <g id="Grupo_1167341" data-name="Grupo 1167341">
                <g id="Grupo_1166792" data-name="Grupo 1166792">
                  <g transform="matrix(1, 0, 0, 1, -9, -6)" filter="url(#Trazado_904820)">
                    <g id="Trazado_904820-2" data-name="Trazado 904820" transform="translate(9 6)" fill="#effbfe">
                      <path d="M 44.99999618530273 88.49999237060547 C 39.12687301635742 88.49999237060547 33.43022155761719 87.35006713867188 28.06829643249512 85.08216857910156 C 22.88852119445801 82.89130401611328 18.23629570007324 79.75457763671875 14.24084663391113 75.75914001464844 C 10.24540901184082 71.76369476318359 7.108683586120605 67.11146545410156 4.917821407318115 61.93169403076172 C 2.649921178817749 56.56976699829102 1.499996185302734 50.87311553955078 1.499996185302734 44.99999237060547 C 1.499996185302734 39.12686920166016 2.649921178817749 33.43021774291992 4.917821407318115 28.06829261779785 C 7.108683586120605 22.88851737976074 10.24540901184082 18.23630523681641 14.24084663391113 14.24085521697998 C 18.23629570007324 10.24540519714355 22.88852119445801 7.108692169189453 28.06829643249512 4.917829990386963 C 33.43022155761719 2.649929761886597 39.12687301635742 1.500004887580872 44.99999618530273 1.500004887580872 C 50.87311935424805 1.500004887580872 56.56977081298828 2.649929761886597 61.93169784545898 4.917829990386963 C 67.11147308349609 7.108692169189453 71.76369476318359 10.24540519714355 75.75914764404297 14.24085521697998 C 79.75458526611328 18.23630523681641 82.89131164550781 22.88851737976074 85.08216857910156 28.06829261779785 C 87.35007476806641 33.43021774291992 88.5 39.12686920166016 88.5 44.99999237060547 C 88.5 50.87311553955078 87.35007476806641 56.56976699829102 85.08216857910156 61.93169403076172 C 82.89131164550781 67.11146545410156 79.75458526611328 71.76369476318359 75.75914764404297 75.75914001464844 C 71.76369476318359 79.75457763671875 67.11147308349609 82.89130401611328 61.93169784545898 85.08216857910156 C 56.56977081298828 87.35006713867188 50.87311935424805 88.49999237060547 44.99999618530273 88.49999237060547 Z" stroke="none"/>
                      <path d="M 44.99999618530273 2.999992370605469 C 39.32870864868164 2.999992370605469 33.82865142822266 4.11004638671875 28.65262603759766 6.299331665039062 C 23.65165710449219 8.414566040039062 19.15968322753906 11.44333648681641 15.301513671875 15.30150604248047 C 11.44333648681641 19.15967559814453 8.414566040039062 23.65164947509766 6.299339294433594 28.65262222290039 C 4.110054016113281 33.82864761352539 2.999992370605469 39.32870483398438 2.999992370605469 44.99999237060547 C 2.999992370605469 50.67127990722656 4.110054016113281 56.17132186889648 6.299339294433594 61.34736633300781 C 8.414566040039062 66.34833526611328 11.44333648681641 70.84029388427734 15.301513671875 74.69846343994141 C 19.15968322753906 78.55663299560547 23.65165710449219 81.58540344238281 28.65262603759766 83.70063781738281 C 33.82865142822266 85.88992309570312 39.32870864868164 86.99997711181641 44.99999618530273 86.99997711181641 C 50.67128372192383 86.99997711181641 56.17134094238281 85.88992309570312 61.34736633300781 83.70063781738281 C 66.34834289550781 81.58540344238281 70.84030914306641 78.55663299560547 74.69847869873047 74.69846343994141 C 78.55665588378906 70.84029388427734 81.58542633056641 66.34833526611328 83.70065307617188 61.34736633300781 C 85.88993835449219 56.17132186889648 87 50.67127990722656 87 44.99999237060547 C 87 39.32870483398438 85.88993835449219 33.82864761352539 83.70065307617188 28.65262222290039 C 81.58542633056641 23.65164947509766 78.55665588378906 19.15967559814453 74.69847869873047 15.30150604248047 C 70.84030914306641 11.44333648681641 66.34834289550781 8.414566040039062 61.34736633300781 6.299331665039062 C 56.17134094238281 4.11004638671875 50.67128372192383 2.999992370605469 44.99999618530273 2.999992370605469 M 44.99999618530273 -7.62939453125e-06 C 69.85281372070312 -7.62939453125e-06 90 20.14717864990234 90 44.99999237060547 C 90 69.85279083251953 69.85281372070312 89.99997711181641 44.99999618530273 89.99997711181641 C 20.14717864990234 89.99997711181641 -7.62939453125e-06 69.85279083251953 -7.62939453125e-06 44.99999237060547 C -7.62939453125e-06 20.14717864990234 20.14717864990234 -7.62939453125e-06 44.99999618530273 -7.62939453125e-06 Z" stroke="none" fill="#497f88"/>
                    </g>
                  </g>
                </g>
              </g>
            </g>
          </g>
        </g>
      </g>
    </g>
    <g id="victim_9895754" transform="translate(631.324 5850.395)">
      <g id="Grupo_1208640" data-name="Grupo 1208640" transform="translate(7.499 7.469)">
        <g id="Grupo_1208639" data-name="Grupo 1208639" transform="translate(0)">
          <path id="Trazado_1053230" data-name="Trazado 1053230" d="M426.44,418.785a3.65,3.65,0,0,1-1.2,6.182.837.837,0,0,0-.511.511,3.651,3.651,0,0,1-6.524.743C414.078,421.651,422.312,414.214,426.44,418.785Z" transform="translate(-367.421 -367.659)" fill="#544575"/>
          <path id="Trazado_1053231" data-name="Trazado 1053231" d="M242.963,426.627l-.082.141a3.651,3.651,0,0,1-6.524-.743.838.838,0,0,0-.511-.511,3.65,3.65,0,0,1-1.2-6.182C238.134,415.358,246.435,420.823,242.963,426.627Z" transform="translate(-206.02 -368.205)" fill="#443866"/>
          <path id="Trazado_1053232" data-name="Trazado 1053232" d="M311.039,273.05a4.565,4.565,0,0,0-.87-5.862.835.835,0,0,1-.28-.709,4.568,4.568,0,0,0-4.065-4.957.849.849,0,0,1-.72-.571,4.571,4.571,0,0,0-5.422-2.974.851.851,0,0,1-.861-.3l-.029-.033c-7.56-4.6-26.46,19.676-.123,20.183C305.269,277.43,311.039,275.836,311.039,273.05Z" transform="translate(-251.477 -226.805)" fill="#544575"/>
          <path id="Trazado_1053233" data-name="Trazado 1053233" d="M241.4,265.535a4.611,4.611,0,0,1,.832-5.788.843.843,0,0,0,.267-.7,4.491,4.491,0,0,1,3.892-4.9.813.813,0,0,0,.689-.564,4.353,4.353,0,0,1,5.185-2.93.8.8,0,0,0,.823-.294c.08-.1.163-.194.249-.285a4.568,4.568,0,0,0-7.016.033.851.851,0,0,1-.861.3,4.572,4.572,0,0,0-5.419,2.967.844.844,0,0,1-.72.571,4.584,4.584,0,0,0-4.068,4.96.839.839,0,0,1-.279.713,4.565,4.565,0,0,0-.869,5.861c0,3.722,10.294,5.315,19.109,4.78C246.91,269.856,241.4,268.283,241.4,265.535Z" transform="translate(-206.021 -219.229)" fill="#443866"/>
          <path id="Trazado_1053234" data-name="Trazado 1053234" d="M458.326,380.095a3.652,3.652,0,0,1-4.035,3.63c-3.129-.01-3.106-7.274.023-7.264A3.653,3.653,0,0,1,458.326,380.095Z" transform="translate(-398.069 -331.707)" fill="#efb892"/>
          <path id="Trazado_1053235" data-name="Trazado 1053235" d="M237.736,376.5c3.3-.01,3.327,7.164.022,7.174a3.652,3.652,0,1,1-.022-7.174Z" transform="translate(-206.019 -331.704)" fill="#eaac81"/>
          <path id="Trazado_1053236" data-name="Trazado 1053236" d="M326.941,337.953a12.709,12.709,0,0,0-1.659-6.3,6.3,6.3,0,0,0-7.718-2.75,26.489,26.489,0,0,1-5.754,1.429c-8.823,1.411-6.592,19.266,4.952,19.265h0C322.582,348.569,326.941,344.109,326.941,337.953Z" transform="translate(-270.171 -289.565)" fill="#f4c9ab"/>
          <path id="Trazado_1053237" data-name="Trazado 1053237" d="M273.488,351.126a15.988,15.988,0,0,1,1.83-7.424,34.514,34.514,0,0,1-7.251.223,1.341,1.341,0,0,0-1.238.623,12.739,12.739,0,0,0-1.943,6.777c0,8.165,7.576,13.023,15.386,11.643h0A12.914,12.914,0,0,1,273.488,351.126Z" transform="translate(-233.68 -302.937)" fill="#efb892"/>
          <path id="Trazado_1053238" data-name="Trazado 1053238" d="M349.908,20.527a2.9,2.9,0,0,1-5.8,0,2.9,2.9,0,0,1-3.042,2.9,2.956,2.956,0,0,1-2.761-2.981v-4.27a8.706,8.706,0,1,1,17.411,0V30.487a2.9,2.9,0,0,1-3.042,2.9,2.956,2.956,0,0,1-2.762-2.98V20.527Z" transform="translate(-298.194 -7.469)" fill="#e0aea2"/>
          <path id="Trazado_1053239" data-name="Trazado 1053239" d="M86.891,35.576a2.9,2.9,0,0,1-4.1,4.1,2.9,2.9,0,0,1-.1,4.2,2.957,2.957,0,0,1-4.061-.155l-3.02-3.02A8.706,8.706,0,0,1,87.917,28.393L98.038,38.514a2.9,2.9,0,0,1-.1,4.2,2.955,2.955,0,0,1-4.06-.155Z" transform="translate(-65.107 -23.615)" fill="#e0aea2"/>
          <path id="Trazado_1053240" data-name="Trazado 1053240" d="M20.557,267.045a2.9,2.9,0,0,1,2.9,3.042,2.956,2.956,0,0,1-2.981,2.762h-4.27a8.706,8.706,0,1,1,0-17.411H30.517a2.9,2.9,0,0,1,2.9,3.042,2.955,2.955,0,0,1-2.98,2.761H20.557a2.9,2.9,0,0,1,0,5.8Z" transform="translate(-7.499 -225.374)" fill="#ffddcf"/>
        </g>
      </g>
      <g id="Grupo_1208642" data-name="Grupo 1208642" transform="translate(7.499 7.473)">
        <g id="Grupo_1208641" data-name="Grupo 1208641" transform="translate(0 0)">
          <path id="Trazado_1053241" data-name="Trazado 1053241" d="M355.712,28.8v1.715a2.9,2.9,0,0,1-3.042,2.9,2.956,2.956,0,0,1-2.762-2.98V20.558a2.9,2.9,0,1,1-5.8,0,2.9,2.9,0,0,1-3.042,2.9,2.956,2.956,0,0,1-2.761-2.981v-4.27a8.706,8.706,0,0,1,17.411-.011v8.347" transform="translate(-298.194 -7.5)" fill="none" stroke="#000" stroke-linecap="round" stroke-linejoin="round" stroke-miterlimit="10" stroke-width="1"/>
          <line id="XMLID_380_" y1="1.451" transform="translate(51.714 11.608)" fill="none" stroke="#000" stroke-linecap="round" stroke-linejoin="round" stroke-miterlimit="10" stroke-width="1"/>
          <line id="XMLID_379_" y1="1.451" transform="translate(45.91 11.608)" fill="none" stroke="#000" stroke-linecap="round" stroke-linejoin="round" stroke-miterlimit="10" stroke-width="1"/>
          <path id="XMLID_378_" d="M82.688,43.913a2.9,2.9,0,0,0,.1-4.2,2.9,2.9,0,0,0,4.1-4.1l6.984,6.984a2.956,2.956,0,0,0,4.06.155,2.9,2.9,0,0,0,.1-4.2l-10.12-10.12a8.706,8.706,0,0,0-12.312,0h0a8.706,8.706,0,0,0,0,12.312l3.02,3.02A2.956,2.956,0,0,0,82.688,43.913Z" transform="translate(-65.109 -23.649)" fill="none" stroke="#000" stroke-linecap="round" stroke-linejoin="round" stroke-miterlimit="10" stroke-width="1"/>
          <line id="XMLID_377_" x1="1.026" y1="1.026" transform="translate(20.758 10.934)" fill="none" stroke="#000" stroke-linecap="round" stroke-linejoin="round" stroke-miterlimit="10" stroke-width="1"/>
          <line id="XMLID_376_" x1="1.026" y1="1.026" transform="translate(16.654 15.038)" fill="none" stroke="#000" stroke-linecap="round" stroke-linejoin="round" stroke-miterlimit="10" stroke-width="1"/>
          <path id="Trazado_1053242" data-name="Trazado 1053242" d="M26.1,255.468h4.414a2.9,2.9,0,0,1,2.9,3.042,2.955,2.955,0,0,1-2.98,2.761H20.558a2.9,2.9,0,1,1,0,5.8,2.9,2.9,0,0,1,2.9,3.042,2.956,2.956,0,0,1-2.98,2.762H16.206a8.706,8.706,0,1,1,0-17.411h5.637" transform="translate(-7.5 -225.404)" fill="none" stroke="#000" stroke-linecap="round" stroke-linejoin="round" stroke-miterlimit="10" stroke-width="1"/>
          <line id="XMLID_375_" x1="1.451" transform="translate(11.608 35.867)" fill="none" stroke="#000" stroke-linecap="round" stroke-linejoin="round" stroke-miterlimit="10" stroke-width="1"/>
          <line id="XMLID_374_" x1="1.451" transform="translate(11.608 41.671)" fill="none" stroke="#000" stroke-linecap="round" stroke-linejoin="round" stroke-miterlimit="10" stroke-width="1"/>
          <path id="XMLID_372_" d="M350.165,423.388a3.746,3.746,0,0,0-6.45,0" transform="translate(-302.952 -371.348)" fill="none" stroke="#000" stroke-linecap="round" stroke-linejoin="round" stroke-miterlimit="10" stroke-width="1"/>
          <path id="XMLID_370_" d="M294.4,401.771a2.749,2.749,0,0,0,4.148,0" transform="translate(-259.619 -353.969)" fill="none" stroke="#000" stroke-linecap="round" stroke-linejoin="round" stroke-miterlimit="10" stroke-width="1"/>
          <path id="XMLID_368_" d="M414.943,401.771a2.749,2.749,0,0,1-4.148,0" transform="translate(-361.899 -353.969)" fill="none" stroke="#000" stroke-linecap="round" stroke-linejoin="round" stroke-miterlimit="10" stroke-width="1"/>
          <path id="XMLID_367_" d="M471.238,376.5a3.651,3.651,0,1,1-.023,7.264" transform="translate(-414.994 -331.743)" fill="none" stroke="#000" stroke-linecap="round" stroke-linejoin="round" stroke-miterlimit="10" stroke-width="1"/>
          <path id="XMLID_366_" d="M237.736,376.54a3.652,3.652,0,1,0,.022,7.174" transform="translate(-206.019 -331.74)" fill="none" stroke="#000" stroke-linecap="round" stroke-linejoin="round" stroke-miterlimit="10" stroke-width="1"/>
          <path id="XMLID_365_" d="M288.793,331.68a6.3,6.3,0,0,0-7.718-2.75,31.519,31.519,0,0,1-13.778,1.586,12.723,12.723,0,0,0-2.407,7.467c0,7.059,5.723,11.869,12.782,11.869s12.782-4.81,12.782-11.869A12.721,12.721,0,0,0,288.793,331.68Z" transform="translate(-233.683 -289.594)" fill="none" stroke="#000" stroke-linecap="round" stroke-linejoin="round" stroke-miterlimit="10" stroke-width="1"/>
          <path id="XMLID_363_" d="M234.1,265.5a4.564,4.564,0,0,1,1.212-6.133,4.566,4.566,0,0,1,4.483-5.419l.091,0a4.568,4.568,0,0,1,6.1-3.357,4.564,4.564,0,0,1,7.713,0,4.568,4.568,0,0,1,6.1,3.357l.091,0a4.565,4.565,0,0,1,4.483,5.419,4.564,4.564,0,0,1,1.212,6.133" transform="translate(-206.019 -219.255)" fill="none" stroke="#000" stroke-linecap="round" stroke-linejoin="round" stroke-miterlimit="10" stroke-width="1"/>
          <path id="XMLID_361_" d="M434.609,429.2a5.548,5.548,0,0,1-8.234,7.437" transform="translate(-375.59 -378.07)" fill="none" stroke="#000" stroke-linecap="round" stroke-linejoin="round" stroke-miterlimit="10" stroke-width="1"/>
          <path id="XMLID_359_" d="M242.881,436.634a3.651,3.651,0,0,1-6.639-1.139,3.65,3.65,0,0,1-1.595-6.3" transform="translate(-206.02 -378.07)" fill="none" stroke="#000" stroke-linecap="round" stroke-linejoin="round" stroke-miterlimit="10" stroke-width="1"/>
        </g>
      </g>
    </g>
  </g>
</svg>
