<svg xmlns="http://www.w3.org/2000/svg" xmlns:xlink="http://www.w3.org/1999/xlink" width="98" height="98" viewBox="0 0 98 98">
  <defs>
    <filter id="Trazado_982547" x="0" y="0" width="98" height="98" filterUnits="userSpaceOnUse">
      <feOffset dy="3" input="SourceAlpha"/>
      <feGaussianBlur stdDeviation="3" result="blur"/>
      <feFlood flood-opacity="0.161"/>
      <feComposite operator="in" in2="blur"/>
      <feComposite in="SourceGraphic"/>
    </filter>
    <clipPath id="clip-path">
      <path id="path8121" d="M0-682.665H48.414v48.414H0Z" transform="translate(0 682.665)"/>
    </clipPath>
  </defs>
  <g id="Grupo_1209847" data-name="Grupo 1209847" transform="translate(-191 -2467.014)">
    <g id="Grupo_1207718" data-name="Grupo 1207718" transform="translate(0 381.462)">
      <g id="Grupo_1207712" data-name="Grupo 1207712">
        <g id="Grupo_1207285" data-name="Grupo 1207285" transform="translate(0 344.552)">
          <g id="Grupo_1206883" data-name="Grupo 1206883" transform="translate(0 -209)">
            <g id="Grupo_1204569" data-name="Grupo 1204569" transform="translate(-81 -1890.336)">
              <g id="Grupo_1203962" data-name="Grupo 1203962" transform="translate(281 3846.336)">
                <g id="Grupo_1203498" data-name="Grupo 1203498" transform="translate(0)">
                  <g id="Grupo_1202589" data-name="Grupo 1202589">
                    <g id="Grupo_1172010" data-name="Grupo 1172010">
                      <g id="Grupo_1171046" data-name="Grupo 1171046">
                        <g id="Grupo_1148525" data-name="Grupo 1148525">
                          <g transform="matrix(1, 0, 0, 1, -9, -6)" filter="url(#Trazado_982547)">
                            <g id="Trazado_982547-2" data-name="Trazado 982547" transform="translate(9 6)" fill="#fdfbec">
                              <path d="M 39.99999237060547 78.49998474121094 C 34.8018684387207 78.49998474121094 29.76002502441406 77.48226165771484 25.0145263671875 75.47508239746094 C 20.43014717102051 73.53604888916016 16.31264877319336 70.75984954833984 12.77639198303223 67.22359466552734 C 9.240137100219727 63.68733596801758 6.463936805725098 59.5698356628418 4.524903297424316 54.98546981811523 C 2.517725706100464 50.23995971679688 1.500003457069397 45.19811630249023 1.500003457069397 39.99999237060547 C 1.500003457069397 34.8018684387207 2.517725706100464 29.76002502441406 4.524903297424316 25.0145263671875 C 6.463936805725098 20.43014717102051 9.240137100219727 16.31264877319336 12.77639198303223 12.77639198303223 C 16.31264877319336 9.240137100219727 20.43014717102051 6.463936805725098 25.0145263671875 4.524903297424316 C 29.76002502441406 2.517725706100464 34.8018684387207 1.500003457069397 39.99999237060547 1.500003457069397 C 45.19811630249023 1.500003457069397 50.23995971679688 2.517725706100464 54.98546981811523 4.524903297424316 C 59.5698356628418 6.463936805725098 63.68733596801758 9.240137100219727 67.22359466552734 12.77639198303223 C 70.75984954833984 16.31264877319336 73.53604888916016 20.43014717102051 75.47508239746094 25.0145263671875 C 77.48226165771484 29.76002502441406 78.49998474121094 34.8018684387207 78.49998474121094 39.99999237060547 C 78.49998474121094 45.19812393188477 77.48226165771484 50.23995971679688 75.47508239746094 54.98546981811523 C 73.53604888916016 59.5698356628418 70.75984954833984 63.68733596801758 67.22359466552734 67.22359466552734 C 63.68733596801758 70.75984954833984 59.5698356628418 73.53604888916016 54.98546981811523 75.47508239746094 C 50.23995971679688 77.48226165771484 45.19812393188477 78.49998474121094 39.99999237060547 78.49998474121094 Z" stroke="none"/>
                              <path d="M 39.99999237060547 2.999992370605469 C 35.00370025634766 2.999992370605469 30.1584587097168 3.97784423828125 25.59884643554688 5.906402587890625 C 21.19327163696289 7.769805908203125 17.23603057861328 10.43805694580078 13.83704376220703 13.83704376220703 C 10.43805694580078 17.23603057861328 7.769805908203125 21.19327163696289 5.906402587890625 25.59884643554688 C 3.97784423828125 30.1584587097168 2.999992370605469 35.00370025634766 2.999992370605469 39.99999237060547 C 2.999992370605469 44.99628448486328 3.97784423828125 49.84152603149414 5.906402587890625 54.40113830566406 C 7.769805908203125 58.80671310424805 10.43805694580078 62.76395416259766 13.83704376220703 66.16294097900391 C 17.23603057861328 69.56191253662109 21.19327163696289 72.23016357421875 25.59884643554688 74.09356689453125 C 30.1584587097168 76.02212524414062 35.00370025634766 76.99997711181641 39.99999237060547 76.99997711181641 C 44.99628448486328 76.99997711181641 49.84152603149414 76.02212524414062 54.40113830566406 74.09356689453125 C 58.80671310424805 72.23016357421875 62.76395416259766 69.56191253662109 66.16294097900391 66.16294097900391 C 69.56191253662109 62.76395416259766 72.23016357421875 58.80671310424805 74.09356689453125 54.40113830566406 C 76.02212524414062 49.84152603149414 76.99997711181641 44.99628448486328 76.99997711181641 39.99999237060547 C 76.99997711181641 35.00370025634766 76.02212524414062 30.1584587097168 74.09356689453125 25.59884643554688 C 72.23016357421875 21.19327163696289 69.56191253662109 17.23603057861328 66.16294097900391 13.83704376220703 C 62.76395416259766 10.43805694580078 58.80671310424805 7.769805908203125 54.40113830566406 5.906402587890625 C 49.84152603149414 3.97784423828125 44.99628448486328 2.999992370605469 39.99999237060547 2.999992370605469 M 39.99999237060547 -7.62939453125e-06 C 62.09137725830078 -7.62939453125e-06 79.99997711181641 17.90860748291016 79.99997711181641 39.99999237060547 C 79.99997711181641 62.09137725830078 62.09137725830078 79.99997711181641 39.99999237060547 79.99997711181641 C 17.90860748291016 79.99997711181641 -7.62939453125e-06 62.09137725830078 -7.62939453125e-06 39.99999237060547 C -7.62939453125e-06 17.90860748291016 17.90860748291016 -7.62939453125e-06 39.99999237060547 -7.62939453125e-06 Z" stroke="none" fill="#83793c"/>
                            </g>
                          </g>
                        </g>
                      </g>
                    </g>
                  </g>
                </g>
              </g>
            </g>
          </g>
        </g>
        <g id="g8115" transform="translate(215.793 2790.01)">
          <g id="g8117" transform="translate(0 -682.665)">
            <g id="g8119" clip-path="url(#clip-path)">
              <g id="g8125" transform="translate(-33.259 0.709)">
                <path id="path8127" d="M-338.457-377.826h-25.835v-25.108c5.31-7.679,37.755-5.416,25.835,25.108" transform="translate(364.292 406.667)" fill="#fbdf63"/>
              </g>
              <g id="g8129" transform="translate(-33.259 0.709)">
                <path id="path8131" d="M-338.457-377.826h-.619c6.164-24.728-15.887-30.6-25.216-24.374v-.734c5.31-7.679,37.755-5.416,25.835,25.108" transform="translate(364.292 406.667)" fill="#f9d11f"/>
              </g>
            </g>
          </g>
          <g id="g8265" transform="translate(0 -682.665)">
            <g id="g8267" clip-path="url(#clip-path)">
              <g id="g8273" transform="translate(-33.259 51.036)">
                <path id="path8275" d="M-338.457-377.654h-25.835v-25.1c5.31-7.676,37.755-5.413,25.835,25.1" transform="translate(364.292 406.481)" fill="#003343"/>
              </g>
              <g id="g8277" transform="translate(-33.259 51.036)">
                <path id="path8279" d="M-338.457-377.654h-.619c6.164-24.717-15.887-30.585-25.216-24.362v-.734c5.31-7.676,37.755-5.413,25.835,25.1" transform="translate(364.292 406.481)" fill="#002439"/>
              </g>
            </g>
          </g>
          <g id="g8281" transform="translate(0 -682.665)">
            <g id="g8283" clip-path="url(#clip-path)">
              <g id="g8289" transform="translate(17.066 51.014)">
                <path id="path8291" d="M-338.457-377.826h-25.835v-25.108c5.31-7.679,37.755-5.416,25.835,25.108" transform="translate(364.292 406.667)" fill="#ff7e50"/>
              </g>
              <g id="g8293" transform="translate(17.066 51.014)">
                <path id="path8295" d="M-338.457-377.826h-.619c6.164-24.728-15.887-30.6-25.216-24.374v-.734c5.31-7.679,37.755-5.416,25.835,25.108" transform="translate(364.292 406.667)" fill="#ff6247"/>
              </g>
              <g id="g8297" transform="translate(2.941 54.225)">
                <path id="path8299" d="M-233.028-131.751v15.573h-14.6c-12.2-25.649,14.6-34.273,14.6-15.573" transform="translate(250.816 141.808)" fill="#ffa68a"/>
              </g>
              <g id="g8301" transform="translate(2.941 54.225)">
                <path id="path8303" d="M-233.028-131.751c-.9-16.1-20.23-9.82-14.176,15.573h-.427c-12.2-25.649,14.6-34.273,14.6-15.573" transform="translate(250.816 141.808)" fill="#ff7e50"/>
              </g>
            </g>
          </g>
        </g>
      </g>
    </g>
    <g id="think-question_14781835" transform="translate(218.489 2487.807)">
      <g id="Grupo_1208631" data-name="Grupo 1208631" transform="translate(0.005 0)">
        <path id="Trazado_1053185" data-name="Trazado 1053185" d="M35.347,356.206l-1.361-.572c-1.054-.511-2.535-1.428-2.535-1.428a7.006,7.006,0,0,1,.233-4.64,15.877,15.877,0,0,1,5.115-1.775c.7-.181,3.413-.963,3.931-1.068l1.93-.769a2.434,2.434,0,0,0,.268-1.342V340.2l7.957,3.149v1.263a2.052,2.052,0,0,0,.389,1.2l6.225,1.007a47.27,47.27,0,0,1,6.761,1.612l3.156,1-4.208,5.132-7.871,1.637Z" transform="translate(-28.473 -307.792)" fill="#7964e2"/>
        <path id="Trazado_1053186" data-name="Trazado 1053186" d="M387.057,442.175a7.737,7.737,0,0,0-3.1-6.26c-.037-.026-.074-.053-.112-.077a36.46,36.46,0,0,0-2.541,3.011S387.057,442.779,387.057,442.175Z" transform="translate(-344.899 -394.114)" fill="#7964e2"/>
        <path id="Trazado_1053187" data-name="Trazado 1053187" d="M14.422,442.724v.267H7.842a.293.293,0,0,1-.293-.3,7.969,7.969,0,0,1,3.1-6.26c.037-.026.074-.053.112-.077C12.384,438.168,14.285,440.161,14.422,442.724Z" transform="translate(-7.549 -394.576)" fill="#7964e2"/>
        <path id="Trazado_1053188" data-name="Trazado 1053188" d="M24.229,215.014c0,3.642-3.614,7.045-7.271,7.045-1.4,0-3.424,0-5.388-3.2a6.62,6.62,0,0,1,10.175-7.109C21.889,212.286,24.229,214.429,24.229,215.014Z" transform="translate(-10.98 -190.789)" fill="#707070"/>
        <path id="Trazado_1053189" data-name="Trazado 1053189" d="M26.63,228.068a6.624,6.624,0,0,1-13.02,1.691,6.609,6.609,0,0,0,10.175-7.109A6.58,6.58,0,0,1,26.63,228.068Z" transform="translate(-13.02 -201.692)" fill="#575656"/>
        <path id="Trazado_1053190" data-name="Trazado 1053190" d="M258.482,215.868c0,3.642-1.141,6.258-7.118,6.529-1.55.07-3.955-2.054-4.783-3.541a6.621,6.621,0,0,1,10.175-7.109A8.345,8.345,0,0,1,258.482,215.868Z" transform="translate(-223.097 -190.789)" fill="#707070"/>
        <path id="Trazado_1053191" data-name="Trazado 1053191" d="M261.641,228.068a6.624,6.624,0,0,1-13.021,1.691A6.609,6.609,0,0,0,258.8,222.65,6.579,6.579,0,0,1,261.641,228.068Z" transform="translate(-225.137 -201.692)" fill="#575656"/>
        <path id="Trazado_1053192" data-name="Trazado 1053192" d="M83.5,16.7c0,5.564-.912,12.561-8.281,10.83L61.5,27.2V21.216A13.148,13.148,0,0,1,73.946,8.11l.564.416.9-.416a13.02,13.02,0,0,1,5.933,1.8C84.511,13.71,83.5,15.394,83.5,16.7Z" transform="translate(-56.245 -8.051)" fill="#707070"/>
        <path id="Trazado_1053193" data-name="Trazado 1053193" d="M214.993,38.048v6.49l-12.633-.3a17.93,17.93,0,0,0,6.119-17.615A13.286,13.286,0,0,1,214.993,38.048Z" transform="translate(-183.383 -24.758)"/>
        <path id="Trazado_1053194" data-name="Trazado 1053194" d="M69.083,192.414a5.388,5.388,0,0,0,4.118-5.228h0a2.145,2.145,0,0,0-2.149-2.141H45.485a2.145,2.145,0,0,0-2.149,2.141h0a5.387,5.387,0,0,0,4.117,5.228Z" transform="translate(-39.85 -167.75)" fill="#f9cab1"/>
        <path id="Trazado_1053195" data-name="Trazado 1053195" d="M101.185,102.634l3.925-3.676a7.607,7.607,0,0,0,2.151-5.3V87.3a1.388,1.388,0,0,1-1.318-.946l-.823-2.457a7.278,7.278,0,0,0-3.17-3.938L96.58,76.79a.292.292,0,0,0-.3,0l-5.327,3.14a7.285,7.285,0,0,0-3.213,3.965l-.823,2.457A1.388,1.388,0,0,1,85.6,87.3V93.66a7.616,7.616,0,0,0,2.424,5.568l3.651,3.407a6.953,6.953,0,0,0,4.754,1.871c.345,0,2.752.207,3.095.156Z" transform="translate(-77.999 -70.004)" fill="#ffd9c4"/>
        <g id="Grupo_1208629" data-name="Grupo 1208629" transform="translate(9.356 28.515)">
          <path id="Trazado_1053196" data-name="Trazado 1053196" d="M121.4,312.084l-.36.444-3.922,4.839-1.4-.888a6.571,6.571,0,0,0-3.27-1.026,5.4,5.4,0,0,1-2.676-.836l-3.471-2.2a1.227,1.227,0,0,1-.571-1.037c0-.014,0-.027,0-.04s.175-.355.263-.521a4.659,4.659,0,0,1,.617-.371c.174.094.643-.345,1.02-.105l-.789-.5a1.225,1.225,0,0,1-.571-1.037.22.22,0,0,1,0-.039c.038-.2.523-.27.611-.437.017-.033-.027-.044.145-.128,0,0,.765-.672,1.142-.432l-.5-.32a1.227,1.227,0,0,1-.572-1.039c0-.014,0-.027,0-.041.006-.177.271-.285.357-.451a1.551,1.551,0,0,1,.413-.365s.75-.42,1.128-.18l-4.824-3.064a1.226,1.226,0,0,1-.434-1.6c.485-.436.8-.546,1-.416l7.766,5.137c2.325,1.245,3.306.309,3.307.3.017-.08.277-.518.295-.594a1.466,1.466,0,0,0,.158-.412.153.153,0,0,0,0-.022c.046-.219.094-.421.144-.609a6.166,6.166,0,0,1,1.063-2.188,2.711,2.711,0,0,1,.483-.534,1.841,1.841,0,0,1,.507-.28,3.679,3.679,0,0,1,1.126.077c.058.037-.73,2.843-.687,3.312,0,0,.133,3.726.157,4a2.845,2.845,0,0,0,1.564,2.462Z" transform="translate(-103.6 -300.234)" fill="#ffd9c4"/>
        </g>
        <path id="Trazado_1053197" data-name="Trazado 1053197" d="M253.459,417.961H242.37l-4.42-2.765,3.906-6.575,7.073,4.569,6.554,4.234C255.729,417.579,253.748,417.957,253.459,417.961Z" transform="translate(-215.507 -369.546)" fill="#7964e2"/>
        <path id="Trazado_1053198" data-name="Trazado 1053198" d="M289.183,414.008H285.97a.292.292,0,0,0,.154-.539L273.97,405.7l.927-1.463,14.443,9.23A.292.292,0,0,1,289.183,414.008Z" transform="translate(-248.018 -365.593)" fill="#4b34bd"/>
        <path id="Trazado_1053199" data-name="Trazado 1053199" d="M225.958,399.416l-4.2,5.627a.859.859,0,0,1-1.194.175l-1.455-1.078a.851.851,0,0,1-.176-1.19l4.165-5.585c.543-.442,1.164-1.165,1.442-.96l1.562,1.157C226.363,397.755,226.46,398.589,225.958,399.416Z" transform="translate(-198.193 -358.49)" fill="#eaf6ff"/>
        <path id="Trazado_1053200" data-name="Trazado 1053200" d="M266.909,394.05l-.8,1.074a.933.933,0,0,0-.384-.772l-1.562-1.157a.93.93,0,0,0-.911-.121l.833-1.116a.857.857,0,0,1,1.193-.175l1.456,1.077A.852.852,0,0,1,266.909,394.05Z" transform="translate(-238.342 -354.198)" fill="#d8ecfe"/>
        <g id="Grupo_1208630" data-name="Grupo 1208630" transform="translate(26.185)">
          <path id="Trazado_1053201" data-name="Trazado 1053201" d="M426.431,270.467c0,1.085-1.3,1.564-2.39,1.564-.514,0-.916-.514-1.275-1.035a2.037,2.037,0,0,1-.047-.438,2.107,2.107,0,0,1,3.182-1.8A2.669,2.669,0,0,1,426.431,270.467Z" transform="translate(-408.463 -243.04)" fill="#eaf6ff"/>
          <path id="Trazado_1053202" data-name="Trazado 1053202" d="M427.365,273.292a2.107,2.107,0,0,1-4.165.438,1.973,1.973,0,0,0,3.3-1.447,1.945,1.945,0,0,0-.169-.794A2.092,2.092,0,0,1,427.365,273.292Z" transform="translate(-408.896 -245.775)" fill="#d8ecfe"/>
          <path id="Trazado_1053203" data-name="Trazado 1053203" d="M294.161,9.761c-.088-.009-.177-.016-.267-.019a.3.3,0,0,1-.234-.127c-.087-.123-.18-.241-.278-.355a5.04,5.04,0,0,0-5.9-1.315.3.3,0,0,1-.266-.01,3.678,3.678,0,0,0-5.235,2.11.289.289,0,0,1-.274.2,4.493,4.493,0,0,0-4.006,6.55.3.3,0,0,1-.09.38,2.868,2.868,0,0,0-.294,4.512.293.293,0,0,1,.089.273,4.148,4.148,0,0,0,.082,1.839c1.945,2.523,5.854,3.175,8.068,3.175,6.333,0,10.333-3.272,10.333-9.6C295.892,15.853,295.892,11.765,294.161,9.761Z" transform="translate(-276.36 -7.5)" fill="#eaf6ff"/>
          <path id="Trazado_1053204" data-name="Trazado 1053204" d="M400.811,333.342a1.4,1.4,0,0,1-1.5,1.248c-.4,0-.715-.2-1.131-.882a1.531,1.531,0,0,1,2.188-1.574A1.693,1.693,0,0,1,400.811,333.342Z" transform="translate(-386.304 -300.372)" fill="#eaf6ff"/>
          <path id="Trazado_1053205" data-name="Trazado 1053205" d="M401.357,334.932a1.531,1.531,0,0,1-3.047.2,1.359,1.359,0,0,0,2.36-.914,1.34,1.34,0,0,0-.172-.66A1.524,1.524,0,0,1,401.357,334.932Z" transform="translate(-386.431 -301.798)" fill="#d8ecfe"/>
          <path id="Trazado_1053206" data-name="Trazado 1053206" d="M308.545,40.178a.286.286,0,0,0-.016.3,4.485,4.485,0,0,1-1.814,6.089c-.038.021-.1.053-.166.084a.288.288,0,0,0-.162.231,3.95,3.95,0,0,1-.14.749,0,0,0,0,0,0,0,3.937,3.937,0,0,1-5.518,2.417.288.288,0,0,0-.328.052,4.751,4.751,0,0,1-7.849-2.057.289.289,0,0,0-.293-.207,4.216,4.216,0,0,1-4.277-3.086,11.469,11.469,0,0,0,16.669-14.04A4.044,4.044,0,0,1,308.075,36a.288.288,0,0,0,.075.3,3.024,3.024,0,0,1,.395,3.881Z" transform="translate(-286.849 -28.45)" fill="#d8ecfe"/>
          <path id="Trazado_1053207" data-name="Trazado 1053207" d="M337.159,59.612c-1.011,8.076-5.244,7.965-8.943,7.965a6.834,6.834,0,1,1,8.943-7.965Z" transform="translate(-319.016 -49.741)" fill="#fed059"/>
          <path id="Trazado_1053208" data-name="Trazado 1053208" d="M379.913,110.347A6.861,6.861,0,0,1,370.8,116.8a11.478,11.478,0,0,0,8.943-7.965A6.832,6.832,0,0,1,379.913,110.347Z" transform="translate(-361.601 -98.959)" fill="#f8b135"/>
        </g>
      </g>
      <g id="Grupo_1208637" data-name="Grupo 1208637" transform="translate(0)">
        <g id="Grupo_1208632" data-name="Grupo 1208632" transform="translate(0 39.131)">
          <path id="Trazado_1053209" data-name="Trazado 1053209" d="M7.5,418.258a7.586,7.586,0,0,1,3.1-6.323c1.521-1.086,3.448-1.39,5.227-1.851.536-.139,2.15-.586,3.189-.869" transform="translate(-7.5 -409.216)" fill="none" stroke="#000" stroke-linecap="round" stroke-linejoin="round" stroke-miterlimit="10" stroke-width="1"/>
        </g>
        <g id="Grupo_1208634" data-name="Grupo 1208634" transform="translate(28.855 39.023)">
          <g id="Grupo_1208633" data-name="Grupo 1208633" transform="translate(0)">
            <path id="Trazado_1053210" data-name="Trazado 1053210" d="M316.905,417.257a7.586,7.586,0,0,0-3.1-6.323c-1.521-1.086-3.448-1.39-5.227-1.851-.536-.139-3.813-.694-4.852-.977" transform="translate(-303.724 -408.106)" fill="none" stroke="#000" stroke-linecap="round" stroke-linejoin="round" stroke-miterlimit="10" stroke-width="1"/>
          </g>
          <path id="Trazado_1053211" data-name="Trazado 1053211" d="M384.037,436.341a26.844,26.844,0,0,0-2.376,2.886" transform="translate(-374.069 -433.591)" fill="none" stroke="#000" stroke-linecap="round" stroke-linejoin="round" stroke-miterlimit="10" stroke-width="1"/>
        </g>
        <path id="Trazado_1053212" data-name="Trazado 1053212" d="M40.487,436.341c1.626,1.818,3.528,3.811,3.665,6.375" transform="translate(-37.274 -394.568)" fill="none" stroke="#000" stroke-linecap="round" stroke-linejoin="round" stroke-miterlimit="10" stroke-width="1"/>
        <g id="Grupo_1208635" data-name="Grupo 1208635" transform="translate(0.375 20.716)">
          <path id="Trazado_1053213" data-name="Trazado 1053213" d="M22.14,230.948a6.6,6.6,0,1,1-7.575-10.778" transform="translate(-11.346 -220.17)" fill="none" stroke="#000" stroke-linecap="round" stroke-linejoin="round" stroke-miterlimit="10" stroke-width="1"/>
          <path id="Trazado_1053214" data-name="Trazado 1053214" d="M275.252,329.106a6.648,6.648,0,0,1-7.152-1.21" transform="translate(-243.09 -317.402)" fill="none" stroke="#000" stroke-linecap="round" stroke-linejoin="round" stroke-miterlimit="10" stroke-width="1"/>
          <path id="Trazado_1053215" data-name="Trazado 1053215" d="M369.351,243.429A6.577,6.577,0,0,1,369,250.74" transform="translate(-334.16 -241.163)" fill="none" stroke="#000" stroke-linecap="round" stroke-linejoin="round" stroke-miterlimit="10" stroke-width="1"/>
        </g>
        <path id="Trazado_1053216" data-name="Trazado 1053216" d="M64.888,12.244a13.157,13.157,0,0,1,19.4-.148M61.5,25.155V21.03a13.029,13.029,0,0,1,1.445-5.982" transform="translate(-56.241 -7.865)" fill="none" stroke="#000" stroke-linecap="round" stroke-linejoin="round" stroke-miterlimit="10" stroke-width="1"/>
        <line id="Línea_863" data-name="Línea 863" y1="6.245" transform="translate(18.437 0.298)" fill="none" stroke="#000" stroke-linecap="round" stroke-linejoin="round" stroke-miterlimit="10" stroke-width="1"/>
        <path id="Trazado_1053217" data-name="Trazado 1053217" d="M47.453,192.414a5.387,5.387,0,0,1-4.117-5.228h0a2.145,2.145,0,0,1,2.149-2.141h1.968" transform="translate(-39.845 -167.75)" fill="none" stroke="#000" stroke-linecap="round" stroke-linejoin="round" stroke-miterlimit="10" stroke-width="1"/>
        <path id="Trazado_1053218" data-name="Trazado 1053218" d="M311.325,228.916a5.408,5.408,0,0,1-3.677,3.1" transform="translate(-278.411 -207.348)" fill="none" stroke="#000" stroke-linecap="round" stroke-linejoin="round" stroke-miterlimit="10" stroke-width="1"/>
        <path id="Trazado_1053219" data-name="Trazado 1053219" d="M104.128,81.521a7.282,7.282,0,0,0-2.178-2l-5.519-3.254-5.476,3.227a7.285,7.285,0,0,0-3.213,3.965l-.823,2.457a1.388,1.388,0,0,1-1.318.946v6.362A7.614,7.614,0,0,0,87.544,98.3" transform="translate(-77.994 -69.568)" fill="none" stroke="#000" stroke-linecap="round" stroke-linejoin="round" stroke-miterlimit="10" stroke-width="1"/>
        <path id="Trazado_1053220" data-name="Trazado 1053220" d="M273.731,212.845l1.182-1.107a7.607,7.607,0,0,0,2.15-5.3V201.7" transform="translate(-247.797 -182.783)" fill="none" stroke="#000" stroke-linecap="round" stroke-linejoin="round" stroke-miterlimit="10" stroke-width="1"/>
        <path id="Trazado_1053221" data-name="Trazado 1053221" d="M188.213,254.916a2.3,2.3,0,0,1-2.082,0" transform="translate(-168.731 -230.815)" fill="none" stroke="#000" stroke-linecap="round" stroke-linejoin="round" stroke-miterlimit="10" stroke-width="1"/>
        <path id="Trazado_1053222" data-name="Trazado 1053222" d="M136.242,159.246a3.969,3.969,0,0,0-3.807,0" transform="translate(-120.265 -144.025)" fill="none" stroke="#000" stroke-linecap="round" stroke-linejoin="round" stroke-miterlimit="10" stroke-width="1"/>
        <path id="Trazado_1053223" data-name="Trazado 1053223" d="M222.112,172.785a3.968,3.968,0,0,1,3.807,0" transform="translate(-201.207 -156.246)" fill="none" stroke="#000" stroke-linecap="round" stroke-linejoin="round" stroke-miterlimit="10" stroke-width="1"/>
        <line id="Línea_865" data-name="Línea 865" y1="1.682" transform="translate(22.809 19.148)" fill="none" stroke="#000" stroke-linecap="round" stroke-linejoin="round" stroke-miterlimit="10" stroke-width="1"/>
        <line id="Línea_866" data-name="Línea 866" y1="1.682" transform="translate(14.074 19.148)" fill="none" stroke="#000" stroke-linecap="round" stroke-linejoin="round" stroke-miterlimit="10" stroke-width="1"/>
        <path id="Trazado_1053224" data-name="Trazado 1053224" d="M119.767,307.764a3.907,3.907,0,0,1-.32-2.126,7.427,7.427,0,0,0-.007-1.746l-.145-1.607a2.422,2.422,0,0,1,.273-1.355l.481-.906A.487.487,0,0,0,120,299.5a.571.571,0,0,0-.151-.13,1.638,1.638,0,0,0-1.9.137,2.721,2.721,0,0,0-.483.534,6.423,6.423,0,0,0-1.206,2.8l0,.023a1.481,1.481,0,0,1-2.242.919l-8.521-5.411a1.238,1.238,0,0,0-1.705.377h0a1.228,1.228,0,0,0,.377,1.7l6.891,4.375L109,303.506a1.238,1.238,0,0,0-1.705.377h0a1.228,1.228,0,0,0,.377,1.7l.5.32,1.562.992-1.562-.992a1.238,1.238,0,0,0-1.705.377h0a1.228,1.228,0,0,0,.377,1.7l.789.5,1.058.672-1.058-.672a1.238,1.238,0,0,0-1.706.377h0a1.228,1.228,0,0,0,.377,1.7l3.471,2.2a5.4,5.4,0,0,0,2.676.836h0a6.568,6.568,0,0,1,2.51.609" transform="translate(-94.239 -269.86)" fill="none" stroke="#000" stroke-linecap="round" stroke-linejoin="round" stroke-miterlimit="10" stroke-width="1"/>
        <line id="Línea_867" data-name="Línea 867" x2="6.894" y2="4.335" transform="translate(35.143 43.839)" fill="none" stroke="#000" stroke-linecap="round" stroke-linejoin="round" stroke-miterlimit="10" stroke-width="1"/>
        <line id="Línea_868" data-name="Línea 868" x2="3.516" y2="2.211" transform="translate(28.739 39.812)" fill="none" stroke="#000" stroke-linecap="round" stroke-linejoin="round" stroke-miterlimit="10" stroke-width="1"/>
        <line id="Línea_869" data-name="Línea 869" x1="3.058" y1="1.922" transform="translate(23.787 46.49)" fill="none" stroke="#000" stroke-linecap="round" stroke-linejoin="round" stroke-miterlimit="10" stroke-width="1"/>
        <path id="Trazado_1053225" data-name="Trazado 1053225" d="M226.761,394.051l-5,6.7a.858.858,0,0,1-1.194.175l-1.456-1.078a.851.851,0,0,1-.176-1.19l5-6.7a.858.858,0,0,1,1.194-.175l1.456,1.078A.851.851,0,0,1,226.761,394.051Z" transform="translate(-198.19 -354.199)" fill="none" stroke="#000" stroke-linecap="round" stroke-linejoin="round" stroke-miterlimit="10" stroke-width="1"/>
        <ellipse id="Elipse_13509" data-name="Elipse 13509" cx="2.106" cy="2.098" rx="2.106" ry="2.098" transform="translate(40.446 25.42)" fill="none" stroke="#000" stroke-linecap="round" stroke-linejoin="round" stroke-miterlimit="10" stroke-width="1"/>
        <ellipse id="Elipse_13510" data-name="Elipse 13510" cx="1.53" cy="1.525" rx="1.53" ry="1.525" transform="translate(38.056 31.608)" fill="none" stroke="#000" stroke-linecap="round" stroke-linejoin="round" stroke-miterlimit="10" stroke-width="1"/>
        <path id="Trazado_1053226" data-name="Trazado 1053226" d="M297.951,19.371a3.023,3.023,0,0,0-.427-4.149,4.049,4.049,0,0,0-3.779-5.484,4.744,4.744,0,0,0-.363-.479,5.04,5.04,0,0,0-6.032-1.251h0a3.678,3.678,0,0,0-5.425,2.243,4.492,4.492,0,0,0-4.086,6.786,2.869,2.869,0,0,0-.4,4.755A4.2,4.2,0,0,0,282,26.868,4.75,4.75,0,0,0,290.057,29a3.938,3.938,0,0,0,5.7-2.321,0,0,0,0,1,0,0,3.93,3.93,0,0,0,.151-.908l.066-.03a4.485,4.485,0,0,0,1.976-6.371Z" transform="translate(-250.17 -7.5)" fill="none" stroke="#000" stroke-linecap="round" stroke-linejoin="round" stroke-miterlimit="10" stroke-width="1"/>
        <path id="Trazado_1053227" data-name="Trazado 1053227" d="M332.219,56.41a6.855,6.855,0,1,1-3.409-.018" transform="translate(-292.83 -51.629)" fill="none" stroke="#000" stroke-linecap="round" stroke-linejoin="round" stroke-miterlimit="10" stroke-width="1"/>
        <g id="Grupo_1208636" data-name="Grupo 1208636" transform="translate(35.829 7.848)">
          <path id="Trazado_1053228" data-name="Trazado 1053228" d="M375.312,89.877a1.819,1.819,0,1,1,1.819,1.813V93.2" transform="translate(-375.312 -88.064)" fill="none" stroke="#000" stroke-linecap="round" stroke-linejoin="round" stroke-miterlimit="10" stroke-width="1"/>
          <line id="Línea_870" data-name="Línea 870" transform="translate(1.819 7.276)" fill="none" stroke="#000" stroke-linecap="round" stroke-linejoin="round" stroke-miterlimit="10" stroke-width="1"/>
        </g>
        <path id="Trazado_1053229" data-name="Trazado 1053229" d="M222.112,172.3a3.968,3.968,0,0,0,3.807,0" transform="translate(-205.578 -144.499)" fill="none" stroke="#000" stroke-linecap="round" stroke-linejoin="round" stroke-miterlimit="10" stroke-width="1"/>
      </g>
    </g>
  </g>
</svg>
