<svg xmlns="http://www.w3.org/2000/svg" xmlns:xlink="http://www.w3.org/1999/xlink" width="108" height="108" viewBox="0 0 108 108">
  <defs>
    <filter id="Trazado_904820" x="0" y="0" width="108" height="108" filterUnits="userSpaceOnUse">
      <feOffset dy="3" input="SourceAlpha"/>
      <feGaussianBlur stdDeviation="3" result="blur"/>
      <feFlood flood-opacity="0.161"/>
      <feComposite operator="in" in2="blur"/>
      <feComposite in="SourceGraphic"/>
    </filter>
    <clipPath id="clip-path">
      <path id="path2007" d="M0-682.665H68v68H0Z" transform="translate(0 682.665)"/>
    </clipPath>
  </defs>
  <g id="Grupo_1208605" data-name="Grupo 1208605" transform="translate(-619.477 -4037.535)">
    <g id="Grupo_1208258" data-name="Grupo 1208258" transform="translate(628.477 4043.535)">
      <g id="Grupo_1201662" data-name="Grupo 1201662" transform="translate(0 0)">
        <g id="Grupo_1173585" data-name="Grupo 1173585">
          <g id="Grupo_1173428" data-name="Grupo 1173428">
            <g id="Grupo_1171958" data-name="Grupo 1171958">
              <g id="Grupo_1167341" data-name="Grupo 1167341">
                <g id="Grupo_1166792" data-name="Grupo 1166792">
                  <g transform="matrix(1, 0, 0, 1, -9, -6)" filter="url(#Trazado_904820)">
                    <g id="Trazado_904820-2" data-name="Trazado 904820" transform="translate(9 6)" fill="#fdfbec">
                      <path d="M 44.99999618530273 88.49999237060547 C 39.12687301635742 88.49999237060547 33.43022155761719 87.35006713867188 28.06829643249512 85.08216857910156 C 22.88852119445801 82.89130401611328 18.23629570007324 79.75457763671875 14.24084663391113 75.75914001464844 C 10.24540901184082 71.76369476318359 7.108683586120605 67.11146545410156 4.917821407318115 61.93169403076172 C 2.649921178817749 56.56976699829102 1.499996185302734 50.87311553955078 1.499996185302734 44.99999237060547 C 1.499996185302734 39.12686920166016 2.649921178817749 33.43021774291992 4.917821407318115 28.06829261779785 C 7.108683586120605 22.88851737976074 10.24540901184082 18.23630523681641 14.24084663391113 14.24085521697998 C 18.23629570007324 10.24540519714355 22.88852119445801 7.108692169189453 28.06829643249512 4.917829990386963 C 33.43022155761719 2.649929761886597 39.12687301635742 1.500004887580872 44.99999618530273 1.500004887580872 C 50.87311935424805 1.500004887580872 56.56977081298828 2.649929761886597 61.93169784545898 4.917829990386963 C 67.11147308349609 7.108692169189453 71.76369476318359 10.24540519714355 75.75914764404297 14.24085521697998 C 79.75458526611328 18.23630523681641 82.89131164550781 22.88851737976074 85.08216857910156 28.06829261779785 C 87.35007476806641 33.43021774291992 88.5 39.12686920166016 88.5 44.99999237060547 C 88.5 50.87311553955078 87.35007476806641 56.56976699829102 85.08216857910156 61.93169403076172 C 82.89131164550781 67.11146545410156 79.75458526611328 71.76369476318359 75.75914764404297 75.75914001464844 C 71.76369476318359 79.75457763671875 67.11147308349609 82.89130401611328 61.93169784545898 85.08216857910156 C 56.56977081298828 87.35006713867188 50.87311935424805 88.49999237060547 44.99999618530273 88.49999237060547 Z" stroke="none"/>
                      <path d="M 44.99999618530273 2.999992370605469 C 39.32870864868164 2.999992370605469 33.82865142822266 4.11004638671875 28.65262603759766 6.299331665039062 C 23.65165710449219 8.414566040039062 19.15968322753906 11.44333648681641 15.301513671875 15.30150604248047 C 11.44333648681641 19.15967559814453 8.414566040039062 23.65164947509766 6.299339294433594 28.65262222290039 C 4.110054016113281 33.82864761352539 2.999992370605469 39.32870483398438 2.999992370605469 44.99999237060547 C 2.999992370605469 50.67127990722656 4.110054016113281 56.17132186889648 6.299339294433594 61.34736633300781 C 8.414566040039062 66.34833526611328 11.44333648681641 70.84029388427734 15.301513671875 74.69846343994141 C 19.15968322753906 78.55663299560547 23.65165710449219 81.58540344238281 28.65262603759766 83.70063781738281 C 33.82865142822266 85.88992309570312 39.32870864868164 86.99997711181641 44.99999618530273 86.99997711181641 C 50.67128372192383 86.99997711181641 56.17134094238281 85.88992309570312 61.34736633300781 83.70063781738281 C 66.34834289550781 81.58540344238281 70.84030914306641 78.55663299560547 74.69847869873047 74.69846343994141 C 78.55665588378906 70.84029388427734 81.58542633056641 66.34833526611328 83.70065307617188 61.34736633300781 C 85.88993835449219 56.17132186889648 87 50.67127990722656 87 44.99999237060547 C 87 39.32870483398438 85.88993835449219 33.82864761352539 83.70065307617188 28.65262222290039 C 81.58542633056641 23.65164947509766 78.55665588378906 19.15967559814453 74.69847869873047 15.30150604248047 C 70.84030914306641 11.44333648681641 66.34834289550781 8.414566040039062 61.34736633300781 6.299331665039062 C 56.17134094238281 4.11004638671875 50.67128372192383 2.999992370605469 44.99999618530273 2.999992370605469 M 44.99999618530273 -7.62939453125e-06 C 69.85281372070312 -7.62939453125e-06 90 20.14717864990234 90 44.99999237060547 C 90 69.85279083251953 69.85281372070312 89.99997711181641 44.99999618530273 89.99997711181641 C 20.14717864990234 89.99997711181641 -7.62939453125e-06 69.85279083251953 -7.62939453125e-06 44.99999237060547 C -7.62939453125e-06 20.14717864990234 20.14717864990234 -7.62939453125e-06 44.99999618530273 -7.62939453125e-06 Z" stroke="none" fill="#83793c"/>
                    </g>
                  </g>
                </g>
              </g>
            </g>
          </g>
        </g>
      </g>
    </g>
    <g id="g2001" transform="translate(639.477 4737.2)">
      <g id="g2003" transform="translate(0 -682.665)">
        <g id="g2005" clip-path="url(#clip-path)">
          <g id="g2011" transform="translate(9.443 9.579)">
            <path id="path2013" d="M-221.979,0a24.585,24.585,0,0,0-24.557,24.557,24.585,24.585,0,0,0,24.557,24.557,24.585,24.585,0,0,0,24.557-24.557A24.585,24.585,0,0,0-221.979,0" transform="translate(246.537)" fill="#c8a9f1"/>
          </g>
          <g id="g2015" transform="translate(9.443 9.892)">
            <path id="path2017" d="M-87-209.4a31.485,31.485,0,0,1,11.019-23.165,24.6,24.6,0,0,0-20.644,24.244,24.585,24.585,0,0,0,24.557,24.557,24.454,24.454,0,0,0,7.907-1.306A24.38,24.38,0,0,1-87-209.4" transform="translate(96.625 232.561)" fill="#b18ae3"/>
          </g>
          <g id="g2019" transform="translate(12.103 44.27)">
            <path id="path2021" d="M-197.927-77.97v8.517a27.233,27.233,0,0,1-21.9-11.033l6.111-6.109Z" transform="translate(219.823 86.596)" fill="#30cc9b"/>
          </g>
          <g id="g2023" transform="translate(34 44.27)">
            <path id="path2025" d="M0-77.97v8.517A27.234,27.234,0,0,0,21.9-80.486L15.786-86.6Z" transform="translate(0 86.596)" fill="#30cc9b"/>
          </g>
          <g id="g2027" transform="translate(17.962 49.94)">
            <path id="path2029" d="M-289.932-154.241c0-11.924-5.925-17.064-5.925-17.064h-20.225s-5.925,5.139-5.925,17.064Z" transform="translate(322.007 171.305)" fill="#71dbba"/>
          </g>
          <g id="g2031" transform="translate(6.772 31.376)">
            <path id="path2033" d="M-103.432-116.55l-6.111,6.109a27.12,27.12,0,0,1-5.324-14.445,4.265,4.265,0,0,1,4.249-4.558,4.257,4.257,0,0,1,4.247,3.986Z" transform="translate(114.874 129.444)" fill="#ffd3bc"/>
          </g>
          <g id="g2035" transform="translate(49.786 31.376)">
            <path id="path2037" d="M0-116.55l6.111,6.109a27.122,27.122,0,0,0,5.324-14.445,4.265,4.265,0,0,0-4.249-4.558,4.257,4.257,0,0,0-4.247,3.986Z" transform="translate(0 129.444)" fill="#ffbe9c"/>
          </g>
          <g id="g2039" transform="translate(17.962 49.94)">
            <path id="path2041" d="M-67.949-92.987a15.907,15.907,0,0,1,3.755-10.287h-5.347s-5.925,5.14-5.925,17.064h9.023a15.909,15.909,0,0,1-1.506-6.777" transform="translate(75.466 103.274)" fill="#30cc9b"/>
          </g>
          <g id="g2043" transform="translate(15.24 21.632)">
            <path id="path2045" d="M-252.124-25.333a17.866,17.866,0,0,1-5.776-.953,1.135,1.135,0,0,0-1.37,1.6,16.465,16.465,0,0,0,1.28,2.046,1.118,1.118,0,0,1-.907,1.773h-.023a16.432,16.432,0,0,1-12.9-6.233,2.73,2.73,0,0,0-4.3.018,18.68,18.68,0,0,0-3.9,11.658A18.812,18.812,0,0,0-261.392,3.128,18.76,18.76,0,0,0-242.5-15.632a18.67,18.67,0,0,0-2.919-10.054,1.136,1.136,0,0,0-1.3-.48,17.889,17.889,0,0,1-5.409.832" transform="translate(280.016 28.136)" fill="#ffd3bc"/>
          </g>
          <g id="g2047" transform="translate(15.24 21.633)">
            <path id="path2049" d="M-34.6-103.27a29.472,29.472,0,0,1,2.438-11.416,2.7,2.7,0,0,0-2.369,1.048,18.681,18.681,0,0,0-3.9,11.658A18.83,18.83,0,0,0-25.69-84.43,24.33,24.33,0,0,1-34.6-103.27" transform="translate(38.424 114.695)" fill="#ffbe9c"/>
          </g>
          <g id="g2051" transform="translate(18.156 36.126)">
            <path id="path2053" d="M-77.2-30.74c0,1.878-1.912,3.4-4.271,3.4s-4.27-1.523-4.27-3.4,1.912-3.4,4.27-3.4,4.271,1.523,4.271,3.4" transform="translate(85.745 34.141)" fill="#ff8d9d"/>
          </g>
          <g id="g2055" transform="translate(41.303 36.126)">
            <path id="path2057" d="M0-30.74c0,1.878,1.912,3.4,4.27,3.4s4.271-1.523,4.271-3.4-1.912-3.4-4.271-3.4S0-32.619,0-30.74" transform="translate(0 34.141)" fill="#ff8d9d"/>
          </g>
          <g id="g2059" transform="translate(31.733 34.377)">
            <path id="path2061" d="M-40.982-22.93a2.413,2.413,0,0,0-2.267-2.537,2.413,2.413,0,0,0-2.267,2.537,2.413,2.413,0,0,0,2.267,2.537,2.413,2.413,0,0,0,2.267-2.537" transform="translate(45.516 25.467)" fill="#423e4f"/>
          </g>
          <g id="g2063" transform="translate(31.733 34.377)">
            <path id="path2065" d="M-40.982-22.93a2.413,2.413,0,0,0-2.267-2.537,2.413,2.413,0,0,0-2.267,2.537,2.413,2.413,0,0,0,2.267,2.537A2.413,2.413,0,0,0-40.982-22.93Z" transform="translate(45.516 25.467)" fill="none" stroke="#000" stroke-linecap="round" stroke-linejoin="round" stroke-miterlimit="10" stroke-width="1"/>
          </g>
          <g id="g2067" transform="translate(23.526 33.496)">
            <path id="path2069" d="M-34.35-17.176a1.9,1.9,0,0,0-1.9-1.9,1.9,1.9,0,0,0-1.9,1.9" transform="translate(38.151 19.076)" fill="none" stroke="#000" stroke-linecap="round" stroke-linejoin="round" stroke-miterlimit="10" stroke-width="1"/>
          </g>
          <g id="g2071" transform="translate(40.51 33.496)">
            <path id="path2073" d="M0-17.176a1.9,1.9,0,0,1,1.9-1.9,1.9,1.9,0,0,1,1.9,1.9" transform="translate(0 19.076)" fill="none" stroke="#000" stroke-linecap="round" stroke-linejoin="round" stroke-miterlimit="10" stroke-width="1"/>
          </g>
          <g id="g2075" transform="translate(7.294 11.918)">
            <path id="path2077" d="M-35.14-25.1l-3.888-2.777" transform="translate(39.028 27.877)" fill="none" stroke="#000" stroke-linecap="round" stroke-linejoin="round" stroke-miterlimit="10" stroke-width="1"/>
          </g>
          <g id="g2079" transform="translate(23.835 0.996)">
            <path id="path2081" d="M-15.8-40.191l-1.748-4.446" transform="translate(17.548 44.637)" fill="none" stroke="#000" stroke-linecap="round" stroke-linejoin="round" stroke-miterlimit="10" stroke-width="1"/>
          </g>
          <g id="g2083" transform="translate(56.819 11.918)">
            <path id="path2085" d="M0-25.1l3.888-2.777" transform="translate(0 27.877)" fill="none" stroke="#000" stroke-linecap="round" stroke-linejoin="round" stroke-miterlimit="10" stroke-width="1"/>
          </g>
          <g id="g2087" transform="translate(42.417 0.996)">
            <path id="path2089" d="M0-40.191l1.748-4.446" transform="translate(0 44.637)" fill="none" stroke="#000" stroke-linecap="round" stroke-linejoin="round" stroke-miterlimit="10" stroke-width="1"/>
          </g>
          <g id="g2091" transform="translate(9.569 9.579)">
            <path id="path2093" d="M-77.911-52.277A24.536,24.536,0,0,0-86.53-36a4.245,4.245,0,0,1,1.459-.258,4.257,4.257,0,0,1,4.247,3.986l.007.02c-.023-.343-.037-.687-.041-1.035a18.68,18.68,0,0,1,3.9-11.658,2.73,2.73,0,0,1,4.3-.018,16.432,16.432,0,0,0,12.9,6.233h.023a1.118,1.118,0,0,0,.908-1.773,16.467,16.467,0,0,1-1.28-2.046,1.135,1.135,0,0,1,1.37-1.6,17.864,17.864,0,0,0,5.776.953,17.888,17.888,0,0,0,5.409-.832,1.136,1.136,0,0,1,1.3.48A18.67,18.67,0,0,1-43.34-33.5c0,.419-.015.835-.042,1.247l.007-.021a4.257,4.257,0,0,1,4.247-3.986A4.245,4.245,0,0,1-37.669-36,24.592,24.592,0,0,0-62.1-58.06a24.407,24.407,0,0,0-12.522,3.439" transform="translate(86.53 58.06)" fill="none" stroke="#000" stroke-linecap="round" stroke-linejoin="round" stroke-miterlimit="10" stroke-width="1"/>
          </g>
          <g id="g2095" transform="translate(6.772 31.376)">
            <path id="path2097" d="M-76.926-36.211l-.006-.02a4.257,4.257,0,0,0-4.247-3.986,4.265,4.265,0,0,0-4.249,4.558A27.121,27.121,0,0,0-80.1-21.214l6.111-6.109-.018-.055A18.609,18.609,0,0,1-76.926-36.211Z" transform="translate(85.436 40.217)" fill="none" stroke="#000" stroke-linecap="round" stroke-linejoin="round" stroke-miterlimit="10" stroke-width="1"/>
          </g>
          <g id="g2099" transform="translate(49.788 31.376)">
            <path id="path2101" d="M-90.335-105.485A27.008,27.008,0,0,0-88.9-112.6a4.265,4.265,0,0,0-4.249-4.558,4.257,4.257,0,0,0-4.247,3.986l-.007.021a18.653,18.653,0,0,1-2.929,8.889l6.108,6.107a27.4,27.4,0,0,0,2.168-3.416" transform="translate(100.329 117.154)" fill="none" stroke="#000" stroke-linecap="round" stroke-linejoin="round" stroke-miterlimit="10" stroke-width="1"/>
          </g>
          <g id="g2103" transform="translate(12.103 44.27)">
            <path id="path2105" d="M-106.521-51.255h.035a18.984,18.984,0,0,1-5.683-5.656l-.025-.014-6.111,6.109a27.516,27.516,0,0,0,7.41,6.86A17.974,17.974,0,0,1-106.521-51.255Z" transform="translate(118.305 56.925)" fill="none" stroke="#000" stroke-linecap="round" stroke-linejoin="round" stroke-miterlimit="10" stroke-width="1"/>
          </g>
          <g id="g2107" transform="translate(44.111 44.272)">
            <path id="path2109" d="M-51.321,0A18.854,18.854,0,0,1-57,5.668h0a17.971,17.971,0,0,1,4.374,7.3,27.514,27.514,0,0,0,7.41-6.86Z" transform="translate(56.999)" fill="none" stroke="#000" stroke-linecap="round" stroke-linejoin="round" stroke-miterlimit="10" stroke-width="1"/>
          </g>
          <g id="g2111" transform="translate(17.962 49.94)">
            <path id="path2113" d="M-236.374,0h0a18.673,18.673,0,0,1-10.245,2.955A18.614,18.614,0,0,1-256.565,0h-.033s-5.925,5.14-5.925,17.064h32.075C-230.449,5.14-236.374,0-236.374,0Z" transform="translate(262.523)" fill="none" stroke="#000" stroke-linecap="round" stroke-linejoin="round" stroke-miterlimit="10" stroke-width="1"/>
          </g>
          <g id="g2115" transform="translate(15.24 21.632)">
            <path id="path2117" d="M-252.124-25.333a17.866,17.866,0,0,1-5.776-.953,1.135,1.135,0,0,0-1.37,1.6,16.481,16.481,0,0,0,1.28,2.046,1.118,1.118,0,0,1-.907,1.773h-.023a16.432,16.432,0,0,1-12.9-6.233,2.73,2.73,0,0,0-4.3.018,18.679,18.679,0,0,0-3.9,11.658A18.812,18.812,0,0,0-261.391,3.128,18.76,18.76,0,0,0-242.5-15.631a18.67,18.67,0,0,0-2.92-10.054,1.136,1.136,0,0,0-1.3-.48A17.885,17.885,0,0,1-252.124-25.333Z" transform="translate(280.016 28.136)" fill="none" stroke="#000" stroke-linecap="round" stroke-linejoin="round" stroke-miterlimit="10" stroke-width="1"/>
          </g>
        </g>
      </g>
    </g>
  </g>
</svg>
