<svg xmlns="http://www.w3.org/2000/svg" xmlns:xlink="http://www.w3.org/1999/xlink" width="113" height="113" viewBox="0 0 113 113">
  <defs>
    <filter id="Trazado_982547" x="0" y="0" width="113" height="113" filterUnits="userSpaceOnUse">
      <feOffset dy="3" input="SourceAlpha"/>
      <feGaussianBlur stdDeviation="3" result="blur"/>
      <feFlood flood-opacity="0.161"/>
      <feComposite operator="in" in2="blur"/>
      <feComposite in="SourceGraphic"/>
    </filter>
  </defs>
  <g id="Grupo_1208645" data-name="Grupo 1208645" transform="translate(-323.696 -4930)">
    <g id="Grupo_1208598" data-name="Grupo 1208598" transform="translate(332.696 4936)">
      <g id="Grupo_1208311" data-name="Grupo 1208311" transform="translate(0 0)">
        <g id="Grupo_1207519" data-name="Grupo 1207519">
          <g id="Grupo_1202423" data-name="Grupo 1202423">
            <g id="Grupo_1202352" data-name="Grupo 1202352">
              <g id="Grupo_1174813" data-name="Grupo 1174813">
                <g id="Grupo_1201680" data-name="Grupo 1201680">
                  <g id="Grupo_1201330" data-name="Grupo 1201330">
                    <g id="Grupo_1172010" data-name="Grupo 1172010">
                      <g id="Grupo_1171046" data-name="Grupo 1171046">
                        <g id="Grupo_1148525" data-name="Grupo 1148525">
                          <g transform="matrix(1, 0, 0, 1, -9, -6)" filter="url(#Trazado_982547)">
                            <g id="Trazado_982547-2" data-name="Trazado 982547" transform="translate(9 6)" fill="#edf3fc">
                              <path d="M 47.5 93.5 C 41.28937149047852 93.5 35.26533508300781 92.28397369384766 29.59518623352051 89.88570404052734 C 24.11771965026855 87.56893157958984 19.19813346862793 84.25196075439453 14.97309303283691 80.02691650390625 C 10.74804019927979 75.80186462402344 7.431066513061523 70.88229370117188 5.114293098449707 65.40481567382812 C 2.716026782989502 59.73468017578125 1.5 53.71062850952148 1.5 47.5 C 1.5 41.28937149047852 2.716026782989502 35.26533508300781 5.114293098449707 29.59518623352051 C 7.431066513061523 24.11771965026855 10.74804019927979 19.19813346862793 14.97309303283691 14.97309303283691 C 19.19813346862793 10.74804019927979 24.11771965026855 7.431066513061523 29.59518623352051 5.114293098449707 C 35.26533508300781 2.716026782989502 41.28937149047852 1.5 47.5 1.5 C 53.71062850952148 1.5 59.73468017578125 2.716026782989502 65.40481567382812 5.114293098449707 C 70.88229370117188 7.431066513061523 75.80186462402344 10.74804019927979 80.02691650390625 14.97309303283691 C 84.25196075439453 19.19813346862793 87.56893157958984 24.11771965026855 89.88570404052734 29.59518623352051 C 92.28397369384766 35.26533508300781 93.5 41.28937149047852 93.5 47.5 C 93.5 53.71062850952148 92.28397369384766 59.73468017578125 89.88570404052734 65.40481567382812 C 87.56893157958984 70.88229370117188 84.25196075439453 75.80186462402344 80.02691650390625 80.02691650390625 C 75.80186462402344 84.25196075439453 70.88229370117188 87.56893157958984 65.40481567382812 89.88570404052734 C 59.73468017578125 92.28397369384766 53.71062850952148 93.5 47.5 93.5 Z" stroke="none"/>
                              <path d="M 47.5 3 C 41.49121475219727 3 35.66376876831055 4.176155090332031 30.17950439453125 6.495796203613281 C 24.88084411621094 8.736953735351562 20.12152099609375 11.94598388671875 16.03375244140625 16.03375244140625 C 11.94598388671875 20.12152099609375 8.736953735351562 24.88084411621094 6.495796203613281 30.17950439453125 C 4.176155090332031 35.66376876831055 3 41.49121475219727 3 47.5 C 3 53.50878524780273 4.176155090332031 59.33623123168945 6.495796203613281 64.82049560546875 C 8.736953735351562 70.11915588378906 11.94598388671875 74.87847900390625 16.03375244140625 78.96624755859375 C 20.12152099609375 83.05401611328125 24.88084411621094 86.26304626464844 30.17950439453125 88.50419616699219 C 35.66376876831055 90.82384490966797 41.49121475219727 92 47.5 92 C 53.50878524780273 92 59.33623123168945 90.82384490966797 64.82049560546875 88.50419616699219 C 70.11915588378906 86.26304626464844 74.87847900390625 83.05401611328125 78.96624755859375 78.96624755859375 C 83.05401611328125 74.87847900390625 86.26304626464844 70.11915588378906 88.50419616699219 64.82049560546875 C 90.82384490966797 59.33623123168945 92 53.50878524780273 92 47.5 C 92 41.49121475219727 90.82384490966797 35.66376876831055 88.50419616699219 30.17950439453125 C 86.26304626464844 24.88084411621094 83.05401611328125 20.12152099609375 78.96624755859375 16.03375244140625 C 74.87847900390625 11.94598388671875 70.11915588378906 8.736953735351562 64.82049560546875 6.495796203613281 C 59.33623123168945 4.176155090332031 53.50878524780273 3 47.5 3 M 47.5 0 C 73.7335205078125 0 95 21.2664794921875 95 47.5 C 95 73.7335205078125 73.7335205078125 95 47.5 95 C 21.2664794921875 95 0 73.7335205078125 0 47.5 C 0 21.2664794921875 21.2664794921875 0 47.5 0 Z" stroke="none" fill="#5692e8"/>
                            </g>
                          </g>
                        </g>
                      </g>
                    </g>
                  </g>
                </g>
              </g>
            </g>
          </g>
        </g>
      </g>
    </g>
    <g id="Layer_x0020_1" transform="translate(326.761 4952.224)">
      <g id="Grupo_1208644" data-name="Grupo 1208644" transform="translate(22)">
        <path id="Trazado_1053243" data-name="Trazado 1053243" d="M23.777,8.773c-.832,0-1.777.189-1.777-.643,0-.794.945-.605,1.777-.605A.625.625,0,1,1,23.777,8.773Zm22.8,55.779a.683.683,0,0,1-.643-.529l-1.248-9.87a30.141,30.141,0,0,1-10.248,1.891,6.253,6.253,0,0,1-4.084-1.361,6.048,6.048,0,0,1-1.74-4.387c-.151-1.134-.3-2.231-.416-3.4l-.529-4.311c-.3-2.458-3.479-3.328-3.668-3.441A2.45,2.45,0,0,1,22.567,37.7a4.06,4.06,0,0,1,.454-3.025l3.025-6.845a8.866,8.866,0,0,0,1.1-3.63l-.076-2.156C27.067,9.908,37.959,0,51.421,0,68.4,0,79.935,15.391,74.414,29.459a.827.827,0,0,1-.113.189L69.8,41.636a12.457,12.457,0,0,0-.643,6.5L71.2,62.7a.767.767,0,0,1-.681.832L46.581,64.553h0ZM47.11,63.3l22.766-.945L67.909,48.405a13.437,13.437,0,0,1,.719-7.223L73.355,28.7a18.723,18.723,0,0,0,1.172-6.58c0-11.5-10.362-20.913-23.106-20.913-13.652,0-24.392,10.7-22.992,22.879a9.369,9.369,0,0,1-1.286,4.425l-3.025,6.656c-.378.756-.908,2.269.34,2.836.492.189,4.046,1.324,4.5,4.462l.643,5.257c4.689.454,4.5-1.853,5.483-.87,1.021,1.021-2.269,2.382-5.37,2.156l.189,1.361a4.692,4.692,0,0,0,1.286,3.4c1.021.945,2.572,1.248,4.614.945.151,0,10.173-.378,14.6-5.937a.648.648,0,0,1,1.021.794A14.858,14.858,0,0,1,45.862,53.7Zm6.315-26.32a15.833,15.833,0,0,1-15.77-15.77c0-8.773,8.622-15.807,15.77-15.807,7.11,0,15.807,7.034,15.807,15.807A15.792,15.792,0,0,1,53.426,36.985Zm0-30.253c-6.542,0-14.522,6.694-14.522,14.522a14.522,14.522,0,1,0,29.043,0C67.947,13.425,59.968,6.731,53.426,6.731Zm5.408,27.152a.631.631,0,0,1-.265-1.21c5.635-2.685,5.067-5.937,6.5-5.219a.655.655,0,0,1,.189.908A13.858,13.858,0,0,1,59.1,33.808.408.408,0,0,1,58.833,33.884ZM56.678,18.757c-2.345,0-4.425-2.307-3.366-2.912,1.021-.567.908,1.626,3.29,1.626,2.534,0,2.345-2.269,3.366-1.626C61.1,16.564,58.909,18.757,56.678,18.757Zm-11.08,0c-2.345,0-4.425-2.307-3.366-2.912,1.021-.567.908,1.626,3.29,1.626,2.534,0,2.345-2.269,3.366-1.626C50.022,16.564,47.829,18.757,45.6,18.757ZM51.157,29.5a8.463,8.463,0,0,1-8.244-6.429.647.647,0,1,1,1.248-.34,7.217,7.217,0,0,0,14.03,0,.647.647,0,0,1,1.248.34A8.539,8.539,0,0,1,51.157,29.5ZM59.7,14.711a.611.611,0,0,1-.529-.34,2.861,2.861,0,0,0-2.5-1.437.643.643,0,0,1,0-1.286c2.534,0,4.425,2.5,3.4,2.95A2.038,2.038,0,0,1,59.7,14.711Zm-17.169,0c-.3,0-.87-.454-.529-.945A4.134,4.134,0,0,1,45.6,11.648a.643.643,0,0,1,0,1.286,2.955,2.955,0,0,0-2.5,1.437A.553.553,0,0,1,42.534,14.711ZM81.259,45.531c-.832,0-1.815.189-1.815-.643,0-.794.983-.605,1.815-.605A.624.624,0,0,1,81.259,45.531Zm-4.273,0c-.832,0-1.777.189-1.777-.643,0-.794.945-.605,1.777-.605A.624.624,0,1,1,76.985,45.531Zm-4.2,0c-.832,0-1.777.189-1.777-.643,0-.794.945-.605,1.777-.605A.624.624,0,0,1,72.788,45.531ZM40.644,60.922c-.832,0-1.777.189-1.777-.643,0-.794.945-.605,1.777-.605A.624.624,0,0,1,40.644,60.922Zm-4.235,0c-.832,0-1.815.189-1.815-.643,0-.794.983-.605,1.815-.605A.624.624,0,1,1,36.408,60.922Zm-4.273,0c-.832,0-1.777.189-1.777-.643,0-.794.945-.605,1.777-.605A.624.624,0,0,1,32.135,60.922ZM84.246,23.068c-.87,0-1.853.189-1.853-.643s.983-.643,1.853-.643A.643.643,0,0,1,84.246,23.068Zm-4.462,0c-.832,0-1.777.151-1.777-.643,0-.832.945-.643,1.777-.643A.643.643,0,0,1,79.784,23.068ZM28.24,8.773c-.832,0-1.815.189-1.815-.643,0-.794.983-.605,1.815-.605A.625.625,0,1,1,28.24,8.773Z" transform="translate(-22)" fill-rule="evenodd"/>
      </g>
      <path id="Trazado_1053244" data-name="Trazado 1053244" d="M469,192.522a14.522,14.522,0,1,0,29.043,0c0-7.828-7.979-14.522-14.522-14.522S469,184.694,469,192.522Zm19.929,12.631a.631.631,0,0,1-.265-1.21c5.635-2.685,5.067-5.937,6.5-5.219a.655.655,0,0,1,.189.908,13.858,13.858,0,0,1-6.164,5.446A.408.408,0,0,1,488.929,205.152Zm-7.677-4.387a8.463,8.463,0,0,1-8.244-6.429.647.647,0,1,1,1.248-.34,7.217,7.217,0,0,0,14.03,0,.647.647,0,0,1,1.248.34A8.539,8.539,0,0,1,481.253,200.766Zm5.521-10.74c-2.345,0-4.424-2.307-3.366-2.912,1.021-.567.908,1.626,3.29,1.626,2.534,0,2.345-2.269,3.366-1.626C491.2,187.832,489,190.026,486.774,190.026Zm-11.08,0c-2.345,0-4.425-2.307-3.366-2.912,1.021-.567.908,1.626,3.29,1.626,2.534,0,2.345-2.269,3.366-1.626C480.118,187.832,477.925,190.026,475.694,190.026Zm14.106-4.046a.611.611,0,0,1-.529-.34,2.861,2.861,0,0,0-2.5-1.437.643.643,0,0,1,0-1.286c2.534,0,4.425,2.5,3.4,2.95A2.037,2.037,0,0,1,489.8,185.979Zm-17.169,0c-.3,0-.87-.454-.529-.945a4.134,4.134,0,0,1,3.593-2.118.643.643,0,0,1,0,1.286,2.955,2.955,0,0,0-2.5,1.437A.553.553,0,0,1,472.63,185.979Z" transform="translate(-430.096 -171.269)" fill="#ffd764" fill-rule="evenodd"/>
      <path id="Trazado_1053245" data-name="Trazado 1053245" d="M96.071,67.774A15.833,15.833,0,0,1,80.3,52c0-8.773,8.622-15.807,15.77-15.807,7.11,0,15.807,7.034,15.807,15.807A15.792,15.792,0,0,1,96.071,67.774ZM94.067,32C80.415,32,69.675,42.7,71.074,54.879A9.369,9.369,0,0,1,69.789,59.3l-3.025,6.656c-.378.756-.908,2.269.34,2.836.492.189,4.046,1.324,4.5,4.462l.643,5.257c4.689.454,4.5-1.853,5.483-.87,1.021,1.021-2.269,2.382-5.37,2.156l.189,1.361a4.692,4.692,0,0,0,1.286,3.4c1.021.945,2.572,1.248,4.614.945.151,0,10.173-.378,14.6-5.937a.648.648,0,0,1,1.021.794,14.858,14.858,0,0,1-5.559,4.122l1.248,9.605,22.766-.945L110.555,79.2a13.437,13.437,0,0,1,.719-7.223L116,59.493a18.723,18.723,0,0,0,1.172-6.58C117.173,41.416,106.811,32,94.067,32Z" transform="translate(-42.646 -30.79)" fill="#fdd5c8" fill-rule="evenodd"/>
    </g>
  </g>
</svg>
