<svg xmlns="http://www.w3.org/2000/svg" xmlns:xlink="http://www.w3.org/1999/xlink" width="113" height="113" viewBox="0 0 113 113">
  <defs>
    <filter id="Trazado_982547" x="0" y="0" width="113" height="113" filterUnits="userSpaceOnUse">
      <feOffset dy="3" input="SourceAlpha"/>
      <feGaussianBlur stdDeviation="3" result="blur"/>
      <feFlood flood-opacity="0.161"/>
      <feComposite operator="in" in2="blur"/>
      <feComposite in="SourceGraphic"/>
    </filter>
  </defs>
  <g id="Grupo_1208655" data-name="Grupo 1208655" transform="translate(-1163.696 -4930)">
    <g id="Grupo_1208600" data-name="Grupo 1208600" transform="translate(1172.696 4936)">
      <g id="Grupo_1208311" data-name="Grupo 1208311" transform="translate(0 0)">
        <g id="Grupo_1207519" data-name="Grupo 1207519">
          <g id="Grupo_1202423" data-name="Grupo 1202423">
            <g id="Grupo_1202352" data-name="Grupo 1202352">
              <g id="Grupo_1174813" data-name="Grupo 1174813">
                <g id="Grupo_1201680" data-name="Grupo 1201680">
                  <g id="Grupo_1201330" data-name="Grupo 1201330">
                    <g id="Grupo_1172010" data-name="Grupo 1172010">
                      <g id="Grupo_1171046" data-name="Grupo 1171046">
                        <g id="Grupo_1148525" data-name="Grupo 1148525">
                          <g transform="matrix(1, 0, 0, 1, -9, -6)" filter="url(#Trazado_982547)">
                            <g id="Trazado_982547-2" data-name="Trazado 982547" transform="translate(9 6)" fill="#edf3fc">
                              <path d="M 47.5 93.5 C 41.28937149047852 93.5 35.26533508300781 92.28397369384766 29.59518623352051 89.88570404052734 C 24.11771965026855 87.56893157958984 19.19813346862793 84.25196075439453 14.97309303283691 80.02691650390625 C 10.74804019927979 75.80186462402344 7.431066513061523 70.88229370117188 5.114293098449707 65.40481567382812 C 2.716026782989502 59.73468017578125 1.5 53.71062850952148 1.5 47.5 C 1.5 41.28937149047852 2.716026782989502 35.26533508300781 5.114293098449707 29.59518623352051 C 7.431066513061523 24.11771965026855 10.74804019927979 19.19813346862793 14.97309303283691 14.97309303283691 C 19.19813346862793 10.74804019927979 24.11771965026855 7.431066513061523 29.59518623352051 5.114293098449707 C 35.26533508300781 2.716026782989502 41.28937149047852 1.5 47.5 1.5 C 53.71062850952148 1.5 59.73468017578125 2.716026782989502 65.40481567382812 5.114293098449707 C 70.88229370117188 7.431066513061523 75.80186462402344 10.74804019927979 80.02691650390625 14.97309303283691 C 84.25196075439453 19.19813346862793 87.56893157958984 24.11771965026855 89.88570404052734 29.59518623352051 C 92.28397369384766 35.26533508300781 93.5 41.28937149047852 93.5 47.5 C 93.5 53.71062850952148 92.28397369384766 59.73468017578125 89.88570404052734 65.40481567382812 C 87.56893157958984 70.88229370117188 84.25196075439453 75.80186462402344 80.02691650390625 80.02691650390625 C 75.80186462402344 84.25196075439453 70.88229370117188 87.56893157958984 65.40481567382812 89.88570404052734 C 59.73468017578125 92.28397369384766 53.71062850952148 93.5 47.5 93.5 Z" stroke="none"/>
                              <path d="M 47.5 3 C 41.49121475219727 3 35.66376876831055 4.176155090332031 30.17950439453125 6.495796203613281 C 24.88084411621094 8.736953735351562 20.12152099609375 11.94598388671875 16.03375244140625 16.03375244140625 C 11.94598388671875 20.12152099609375 8.736953735351562 24.88084411621094 6.495796203613281 30.17950439453125 C 4.176155090332031 35.66376876831055 3 41.49121475219727 3 47.5 C 3 53.50878524780273 4.176155090332031 59.33623123168945 6.495796203613281 64.82049560546875 C 8.736953735351562 70.11915588378906 11.94598388671875 74.87847900390625 16.03375244140625 78.96624755859375 C 20.12152099609375 83.05401611328125 24.88084411621094 86.26304626464844 30.17950439453125 88.50419616699219 C 35.66376876831055 90.82384490966797 41.49121475219727 92 47.5 92 C 53.50878524780273 92 59.33623123168945 90.82384490966797 64.82049560546875 88.50419616699219 C 70.11915588378906 86.26304626464844 74.87847900390625 83.05401611328125 78.96624755859375 78.96624755859375 C 83.05401611328125 74.87847900390625 86.26304626464844 70.11915588378906 88.50419616699219 64.82049560546875 C 90.82384490966797 59.33623123168945 92 53.50878524780273 92 47.5 C 92 41.49121475219727 90.82384490966797 35.66376876831055 88.50419616699219 30.17950439453125 C 86.26304626464844 24.88084411621094 83.05401611328125 20.12152099609375 78.96624755859375 16.03375244140625 C 74.87847900390625 11.94598388671875 70.11915588378906 8.736953735351562 64.82049560546875 6.495796203613281 C 59.33623123168945 4.176155090332031 53.50878524780273 3 47.5 3 M 47.5 0 C 73.7335205078125 0 95 21.2664794921875 95 47.5 C 95 73.7335205078125 73.7335205078125 95 47.5 95 C 21.2664794921875 95 0 73.7335205078125 0 47.5 C 0 21.2664794921875 21.2664794921875 0 47.5 0 Z" stroke="none" fill="#5692e8"/>
                            </g>
                          </g>
                        </g>
                      </g>
                    </g>
                  </g>
                </g>
              </g>
            </g>
          </g>
        </g>
      </g>
    </g>
    <g id="anxiety_9589931" transform="translate(1181.678 4945.629)">
      <path id="Trazado_1053265" data-name="Trazado 1053265" d="M102.486,16.929a2.518,2.518,0,0,1-.745-1.821V15.1c0-4.2-7.255-7.6-16.2-7.6s-16.2,3.4-16.2,7.6v.01a2.518,2.518,0,0,1-.745,1.821,22.165,22.165,0,0,0-6.8,15.917,21.816,21.816,0,0,0,1.482,7.918H107.8a21.817,21.817,0,0,0,1.482-7.918A22.165,22.165,0,0,0,102.486,16.929Z" transform="translate(-46.704)" fill="#b76c4e"/>
      <path id="Trazado_1053266" data-name="Trazado 1053266" d="M86.65,31.546A12.835,12.835,0,0,1,85.995,7.5q-.229,0-.459,0c-8.95,0-16.2,3.4-16.2,7.6v.01a2.518,2.518,0,0,1-.745,1.821,22.165,22.165,0,0,0-6.8,15.917,21.817,21.817,0,0,0,1.482,7.918H86.65Z" transform="translate(-46.704)" fill="#a05838"/>
      <path id="Trazado_1053267" data-name="Trazado 1053267" d="M105.119,231H59.652c-.514,2.446-1.048,4.542-1.341,7.075-.567,4.9,1.076,9.5,4.29,11.67a1.268,1.268,0,0,0,1.968-1.184l-.3-2.947s1.335,9.215,18.119,9.215,18.119-9.215,18.119-9.215l-.3,2.947a1.268,1.268,0,0,0,1.968,1.184c3.214-2.169,4.857-6.768,4.29-11.67C106.167,235.542,105.633,233.446,105.119,231Z" transform="translate(-43.553 -196.184)" fill="#a05838"/>
      <path id="Trazado_1053268" data-name="Trazado 1053268" d="M130.007,407.06H96.41a20.515,20.515,0,0,0-2.887,5.854,4.7,4.7,0,0,0,4.5,6.055h.4l14.781-4.5,14.781,4.5h.4a4.7,4.7,0,0,0,4.5-6.055A20.515,20.515,0,0,0,130.007,407.06Z" transform="translate(-74.377 -350.727)" fill="#fff2de"/>
      <path id="Trazado_1053269" data-name="Trazado 1053269" d="M102.445,412.914a20.5,20.5,0,0,1,2.89-5.854H96.41a20.515,20.515,0,0,0-2.887,5.854,4.7,4.7,0,0,0,4.5,6.055h.4l5.043-1.535A4.646,4.646,0,0,1,102.445,412.914Z" transform="translate(-74.377 -350.727)" fill="#ffe4c2"/>
      <path id="Trazado_1053270" data-name="Trazado 1053270" d="M120.894,353.544a19.9,19.9,0,0,1-.237,3.077h29.561a19.9,19.9,0,0,1-.237-3.077,17.146,17.146,0,0,1,2.254-8.832,20.593,20.593,0,0,0-33.6,0A17.148,17.148,0,0,1,120.894,353.544Z" transform="translate(-96.606 -288.379)" fill="#827cd2"/>
      <circle id="Elipse_13511" data-name="Elipse 13511" cx="5.047" cy="5.047" r="5.047" transform="translate(14.068 31.898)" fill="#f9d6af"/>
      <path id="Trazado_1053271" data-name="Trazado 1053271" d="M124.674,350.566A20.625,20.625,0,0,1,139.9,336.516a20.62,20.62,0,0,0-21.26,8.2,17.148,17.148,0,0,1,2.254,8.832,19.9,19.9,0,0,1-.237,3.077h8.522A4.7,4.7,0,0,1,124.674,350.566Z" transform="translate(-96.605 -288.379)" fill="#625ac5"/>
      <circle id="Elipse_13512" data-name="Elipse 13512" cx="5.047" cy="5.047" r="5.047" transform="translate(53.503 31.898)" fill="#ffe4c2"/>
      <path id="Trazado_1053272" data-name="Trazado 1053272" d="M171.169,314.283a13.046,13.046,0,0,1-7.855-2.53,9.283,9.283,0,0,1,0-15.222,13.458,13.458,0,0,1,15.71,0,9.283,9.283,0,0,1,0,15.222A13.046,13.046,0,0,1,171.169,314.283Z" transform="translate(-132.337 -251.486)" fill="#5c45bf"/>
      <path id="Trazado_1053273" data-name="Trazado 1053273" d="M168.419,296.242a12.56,12.56,0,0,0-5.105,2.256,9.283,9.283,0,0,0,0,15.222,12.054,12.054,0,0,0,2.8,1.572,3.1,3.1,0,0,1,2.24-5.242l.061,0v-13.81Z" transform="translate(-132.337 -253.453)" fill="#3f36ab"/>
      <ellipse id="Elipse_13513" data-name="Elipse 13513" cx="6.934" cy="5.252" rx="6.934" ry="5.252" transform="translate(31.897 47.404)" fill="#f9d6af"/>
      <g id="Grupo_1208649" data-name="Grupo 1208649" transform="translate(19.667 23.719)">
        <path id="Trazado_1053274" data-name="Trazado 1053274" d="M137.24,147.353a7.928,7.928,0,0,0-2.182-4.06l-2.7-2.7a1.323,1.323,0,0,0-2.254.818h0a3.54,3.54,0,0,1-3.526,3.225H110.3a3.54,3.54,0,0,1-3.526-3.225h0a1.323,1.323,0,0,0-2.254-.818l-2.7,2.7a7.938,7.938,0,0,0-2.185,4.071,19.165,19.165,0,1,0,37.6-.011Z" transform="translate(-99.275 -140.205)" fill="#fff2de"/>
        <g id="Grupo_1208648" data-name="Grupo 1208648" transform="translate(0 0)">
          <g id="Grupo_1208647" data-name="Grupo 1208647">
            <path id="Trazado_1053275" data-name="Trazado 1053275" d="M108.122,151.58a19.26,19.26,0,0,1,.356-4.215,7.866,7.866,0,0,1,1.145-2.792,3.54,3.54,0,0,1-2.848-3.16h0a1.323,1.323,0,0,0-2.253-.818l-2.7,2.7a7.938,7.938,0,0,0-2.185,4.071,19.176,19.176,0,0,0,23.233,22.371A19.233,19.233,0,0,1,108.122,151.58Z" transform="translate(-99.276 -140.205)" fill="#ffe4c2"/>
          </g>
        </g>
      </g>
      <g id="Grupo_1208650" data-name="Grupo 1208650" transform="translate(8.583 7.5)">
        <path id="Trazado_1053276" data-name="Trazado 1053276" d="M380.208,288.077a8.887,8.887,0,0,0,2.948-4.777l-.3,2.947a1.268,1.268,0,0,0,1.968,1.184c3.214-2.169,4.857-6.768,4.29-11.67-.073-.632-.161-1.238-.26-1.828" transform="translate(-334.789 -241.369)" fill="none" stroke="#000" stroke-linecap="round" stroke-linejoin="round" stroke-miterlimit="10" stroke-width="1.5"/>
        <path id="Trazado_1053277" data-name="Trazado 1053277" d="M58.572,273.913c-.1.591-.188,1.2-.261,1.83-.567,4.9,1.076,9.5,4.29,11.67a1.268,1.268,0,0,0,1.968-1.184l-.3-2.947a8.888,8.888,0,0,0,2.95,4.779" transform="translate(-52.136 -241.353)" fill="none" stroke="#000" stroke-linecap="round" stroke-linejoin="round" stroke-miterlimit="10" stroke-width="1.5"/>
        <path id="Trazado_1053278" data-name="Trazado 1053278" d="M123.875,14.516c.634-3.924,7.626-7.016,16.158-7.016,8.95,0,16.2,3.4,16.2,7.6v.01a2.518,2.518,0,0,0,.745,1.821,22.165,22.165,0,0,1,6.8,15.917q0,.414-.015.824" transform="translate(-109.784 -7.5)" fill="none" stroke="#000" stroke-linecap="round" stroke-linejoin="round" stroke-miterlimit="10" stroke-width="1.5"/>
        <path id="Trazado_1053279" data-name="Trazado 1053279" d="M34.111,38.063a27.788,27.788,0,0,1,3.975-6.67,12.4,12.4,0,0,0,1.992-3.608A10.131,10.131,0,0,1,41.247,25.5" transform="translate(-30.991 -23.299)" fill="none" stroke="#000" stroke-linecap="round" stroke-linejoin="round" stroke-miterlimit="10" stroke-width="1.5"/>
        <path id="Trazado_1053280" data-name="Trazado 1053280" d="M8.583,18.5a27.788,27.788,0,0,1,3.975-6.67A12.4,12.4,0,0,0,14.55,8.217q.129-.362.289-.717" transform="translate(-8.583 -7.5)" fill="none" stroke="#000" stroke-linecap="round" stroke-linejoin="round" stroke-miterlimit="10" stroke-width="1.5"/>
        <path id="Trazado_1053281" data-name="Trazado 1053281" d="M426.64,38.063a27.786,27.786,0,0,0-3.975-6.67,12.4,12.4,0,0,1-1.992-3.608A10.131,10.131,0,0,0,419.5,25.5" transform="translate(-369.282 -23.299)" fill="none" stroke="#000" stroke-linecap="round" stroke-linejoin="round" stroke-miterlimit="10" stroke-width="1.5"/>
        <path id="Trazado_1053282" data-name="Trazado 1053282" d="M458.486,18.5a27.787,27.787,0,0,0-3.975-6.67,12.405,12.405,0,0,1-1.992-3.608q-.129-.362-.289-.717" transform="translate(-398.009 -7.5)" fill="none" stroke="#000" stroke-linecap="round" stroke-linejoin="round" stroke-miterlimit="10" stroke-width="1.5"/>
        <path id="Trazado_1053283" data-name="Trazado 1053283" d="M441.42,403.894a25.793,25.793,0,0,1,1.935,4.626,10.053,10.053,0,0,1-.352,6.945" transform="translate(-388.52 -355.448)" fill="none" stroke="#000" stroke-linecap="round" stroke-linejoin="round" stroke-miterlimit="10" stroke-width="1.5"/>
        <path id="Trazado_1053284" data-name="Trazado 1053284" d="M479.382,403.894a25.807,25.807,0,0,1,1.935,4.626,10.054,10.054,0,0,1-.352,6.945" transform="translate(-421.842 -355.448)" fill="none" stroke="#000" stroke-linecap="round" stroke-linejoin="round" stroke-miterlimit="10" stroke-width="1.5"/>
        <path id="Trazado_1053285" data-name="Trazado 1053285" d="M53.576,403.894a25.8,25.8,0,0,0-1.935,4.626,10.053,10.053,0,0,0,.352,6.945" transform="translate(-45.979 -355.448)" fill="none" stroke="#000" stroke-linecap="round" stroke-linejoin="round" stroke-miterlimit="10" stroke-width="1.5"/>
        <path id="Trazado_1053286" data-name="Trazado 1053286" d="M15.613,403.894a25.8,25.8,0,0,0-1.935,4.626,10.053,10.053,0,0,0,.352,6.945" transform="translate(-12.656 -355.448)" fill="none" stroke="#000" stroke-linecap="round" stroke-linejoin="round" stroke-miterlimit="10" stroke-width="1.5"/>
        <path id="Trazado_1053287" data-name="Trazado 1053287" d="M61.807,107.982q-.017-.437-.017-.878A22.091,22.091,0,0,1,67.7,92.1" transform="translate(-55.287 -81.759)" fill="none" stroke="#000" stroke-linecap="round" stroke-linejoin="round" stroke-miterlimit="10" stroke-width="1.5"/>
        <path id="Trazado_1053288" data-name="Trazado 1053288" d="M101.385,366.557a20.632,20.632,0,0,0-7.862,10.8,4.7,4.7,0,0,0,4.5,6.055h30.361a4.7,4.7,0,0,0,4.5-6.055,20.631,20.631,0,0,0-7.862-10.8" transform="translate(-82.96 -322.674)" fill="none" stroke="#000" stroke-linecap="round" stroke-linejoin="round" stroke-miterlimit="10" stroke-width="1.5"/>
        <path id="Trazado_1053289" data-name="Trazado 1053289" d="M375.3,419.71a19.94,19.94,0,0,1-.22-2.968,17.235,17.235,0,0,1,2.183-8.713" transform="translate(-330.29 -359.076)" fill="none" stroke="#000" stroke-linecap="round" stroke-linejoin="round" stroke-miterlimit="10" stroke-width="1.5"/>
        <path id="Trazado_1053290" data-name="Trazado 1053290" d="M119.2,407.991a17.232,17.232,0,0,1,2.185,8.718,19.942,19.942,0,0,1-.22,2.967" transform="translate(-105.683 -359.044)" fill="none" stroke="#000" stroke-linecap="round" stroke-linejoin="round" stroke-miterlimit="10" stroke-width="1.5"/>
        <path id="Trazado_1053291" data-name="Trazado 1053291" d="M60.3,216.892a5.047,5.047,0,1,1-1.794-9.765,5.1,5.1,0,0,1,.63.039" transform="translate(-47.976 -182.729)" fill="none" stroke="#000" stroke-linecap="round" stroke-linejoin="round" stroke-miterlimit="10" stroke-width="1.5"/>
        <path id="Trazado_1053292" data-name="Trazado 1053292" d="M403.727,207.169a5.047,5.047,0,1,1,.649,10.052,5.032,5.032,0,0,1-1.815-.336" transform="translate(-354.41 -182.73)" fill="none" stroke="#000" stroke-linecap="round" stroke-linejoin="round" stroke-miterlimit="10" stroke-width="1.5"/>
        <path id="Trazado_1053293" data-name="Trazado 1053293" d="M175.846,367.876a13.689,13.689,0,0,1-4.676.813,13.046,13.046,0,0,1-7.855-2.53,9.578,9.578,0,0,1-3.968-7.611,8.915,8.915,0,0,1,.378-2.566" transform="translate(-140.921 -313.39)" fill="none" stroke="#000" stroke-linecap="round" stroke-linejoin="round" stroke-miterlimit="10" stroke-width="1.5"/>
        <path id="Trazado_1053294" data-name="Trazado 1053294" d="M323.952,356.169a8.913,8.913,0,0,1,.371,2.543,9.577,9.577,0,0,1-3.968,7.611" transform="translate(-282.251 -313.556)" fill="none" stroke="#000" stroke-linecap="round" stroke-linejoin="round" stroke-miterlimit="10" stroke-width="1.5"/>
        <path id="Trazado_1053295" data-name="Trazado 1053295" d="M213.214,376.978c0,2.9-3.1,5.252-6.934,5.252s-6.934-2.352-6.934-5.252" transform="translate(-176.031 -331.821)" fill="none" stroke="#000" stroke-linecap="round" stroke-linejoin="round" stroke-miterlimit="10" stroke-width="1.5"/>
        <path id="Trazado_1053296" data-name="Trazado 1053296" d="M137.24,147.353a7.928,7.928,0,0,0-2.182-4.06l-2.7-2.7a1.323,1.323,0,0,0-2.254.818h0a3.54,3.54,0,0,1-3.526,3.225H110.3a3.54,3.54,0,0,1-3.526-3.225h0a1.323,1.323,0,0,0-2.254-.818l-2.7,2.7a7.938,7.938,0,0,0-2.185,4.071,19.165,19.165,0,1,0,37.6-.011Z" transform="translate(-88.191 -123.986)" fill="none" stroke="#000" stroke-linecap="round" stroke-linejoin="round" stroke-miterlimit="10" stroke-width="1.5"/>
      </g>
      <g id="Grupo_1208654" data-name="Grupo 1208654" transform="translate(25.521 35.673)">
        <g id="Grupo_1208651" data-name="Grupo 1208651" transform="translate(0 0.626)">
          <ellipse id="Elipse_13514" data-name="Elipse 13514" cx="3.588" cy="2.857" rx="3.588" ry="2.857" fill="#ffa1ac"/>
          <ellipse id="Elipse_13515" data-name="Elipse 13515" cx="3.588" cy="2.857" rx="3.588" ry="2.857" transform="translate(19.446)" fill="#ffa1ac"/>
        </g>
        <path id="Trazado_1053297" data-name="Trazado 1053297" d="M174.417,238.015a2.76,2.76,0,0,0,4.165,0" transform="translate(-171.087 -238.015)" fill="none" stroke="#000" stroke-linecap="round" stroke-linejoin="round" stroke-miterlimit="10" stroke-width="1.5"/>
        <path id="Trazado_1053298" data-name="Trazado 1053298" d="M307.837,238.015a2.76,2.76,0,0,1-4.165,0" transform="translate(-284.545 -238.015)" fill="none" stroke="#000" stroke-linecap="round" stroke-linejoin="round" stroke-miterlimit="10" stroke-width="1.5"/>
        <g id="Grupo_1208653" data-name="Grupo 1208653" transform="translate(10.209 3.9)">
          <g id="Grupo_1208652" data-name="Grupo 1208652">
            <path id="Trazado_1053299" data-name="Trazado 1053299" d="M237.572,270.841l-.859-.635a1.444,1.444,0,0,0-1.717,0h0a1.444,1.444,0,0,1-1.717,0h0a1.444,1.444,0,0,0-1.717,0l-.859.635" transform="translate(-230.703 -269.923)" fill="none" stroke="#000" stroke-linecap="round" stroke-linejoin="round" stroke-miterlimit="10" stroke-width="1.5"/>
          </g>
        </g>
      </g>
    </g>
  </g>
</svg>
