<svg xmlns="http://www.w3.org/2000/svg" xmlns:xlink="http://www.w3.org/1999/xlink" width="1017.361" height="482.506" viewBox="0 0 1017.361 482.506">
  <defs>
    <clipPath id="clip-path">
      <rect id="Rectángulo_420109" data-name="Rectángulo 420109" width="316.868" height="48.316" transform="translate(0 0)" fill="#642253"/>
    </clipPath>
    <clipPath id="clip-path-2">
      <rect id="Rectángulo_420108" data-name="Rectángulo 420108" width="463.718" height="458.347" fill="none"/>
    </clipPath>
    <clipPath id="clip-path-4">
      <rect id="Rectángulo_420103" data-name="Rectángulo 420103" width="97.541" height="48.825" transform="translate(210.252 338.343)" fill="none"/>
    </clipPath>
    <clipPath id="clip-path-5">
      <rect id="Rectángulo_420104" data-name="Rectángulo 420104" width="38.955" height="41.616" transform="translate(273.753 275.222)" fill="none"/>
    </clipPath>
    <clipPath id="clip-path-6">
      <rect id="Rectángulo_420105" data-name="Rectángulo 420105" width="74.507" height="35.809" transform="translate(198.737 167.18)" fill="none"/>
    </clipPath>
    <clipPath id="clip-path-7">
      <rect id="Rectángulo_420106" data-name="Rectángulo 420106" width="15.223" height="22.569" transform="translate(276.489 203.284)" fill="none"/>
    </clipPath>
  </defs>
  <g id="Grupo_1210425" data-name="Grupo 1210425" transform="translate(-291 -5309.476)">
    <g id="Grupo_1210419" data-name="Grupo 1210419" transform="translate(660.088 5743.666)">
      <g id="Grupo_1210418" data-name="Grupo 1210418" clip-path="url(#clip-path)">
        <path id="Trazado_1054747" data-name="Trazado 1054747" d="M194.249,0c-29.58,0-56.713,1.865-77.894,4.97-5.434-.2-11.015-.308-16.71-.308C44.613,4.662,0,14.435,0,26.489S44.613,48.316,99.645,48.316c24.88,0,47.629-2,65.09-5.3,9.455.416,19.338.638,29.514.638,67.721,0,122.619-9.772,122.619-21.827S261.97,0,194.249,0" fill="#642253"/>
      </g>
    </g>
    <g id="Grupo_1210414" data-name="Grupo 1210414" transform="translate(36 -2.928)">
      <g id="Grupo_1210403" data-name="Grupo 1210403" transform="translate(567.816 5312.404)">
        <g id="Grupo_1210402" data-name="Grupo 1210402" clip-path="url(#clip-path-2)">
          <g id="Grupo_1210401" data-name="Grupo 1210401">
            <g id="Grupo_1210400" data-name="Grupo 1210400" clip-path="url(#clip-path-2)">
              <path id="Trazado_1054616" data-name="Trazado 1054616" d="M300.311,89.963c-.021-.1-.3-.2-.808-.089a3.611,3.611,0,0,0-1.891,1.242A6.483,6.483,0,0,0,296.2,94.39a20.531,20.531,0,0,0,.057,4.4,10.176,10.176,0,0,1-.48,4.459,9.156,9.156,0,0,1-2.818,4.035,16.685,16.685,0,0,1-5.213,2.542c-2.051.68-4.322,1.215-6.7,2.217a11.828,11.828,0,0,0-6.071,5.043,10.125,10.125,0,0,0-1.2,3.686,15.533,15.533,0,0,0-.07,3.491c.172,2.2.587,4.111.851,5.878a22.3,22.3,0,0,1,.326,4.713,2.332,2.332,0,0,1-.481,1.375,2.6,2.6,0,0,1-1.176.744,4.945,4.945,0,0,1-2.664.006c-1.584-.409-2.546-.785-2.66-.546-.091.188.547.927,2.2,1.812a6.79,6.79,0,0,0,1.512.549,5.32,5.32,0,0,0,2.043.069,4.246,4.246,0,0,0,3.652-3.63,21.364,21.364,0,0,0,.106-5.433c-.154-1.865-.454-3.805-.516-5.717a9.6,9.6,0,0,1,1.039-5.328,8.706,8.706,0,0,1,4.472-3.523c2-.853,4.247-1.424,6.431-2.191a18.72,18.72,0,0,0,6.195-3.327,11.721,11.721,0,0,0,3.492-5.61,12.127,12.127,0,0,0,.168-5.607,25.094,25.094,0,0,1-.558-3.955,5.894,5.894,0,0,1,.6-2.663c.682-1.369,1.661-1.655,1.589-1.918" fill="#fff"/>
              <path id="Trazado_1054617" data-name="Trazado 1054617" d="M346.039,131.437c-.005-.237-.88-.463-2.484-.628a25.134,25.134,0,0,0-6.935.245,16.544,16.544,0,0,0-4.736,1.633,12.526,12.526,0,0,0-4.506,3.94,23.355,23.355,0,0,0-2.505,5.76,12.73,12.73,0,0,1-2.7,4.854,11.691,11.691,0,0,1-4.508,3.043,14.325,14.325,0,0,1-5.192.773c-1.8,0-3.618-.109-5.394,0a14.475,14.475,0,0,0-4.953,1.074,7.923,7.923,0,0,0-3.415,2.693,6.427,6.427,0,0,0-1.2,3.03,3.892,3.892,0,0,0,.261,2.019c.192.425.387.6.492.56.269-.078.057-.971.564-2.287A6.286,6.286,0,0,1,303,154.42a13.359,13.359,0,0,1,4.152-.49c1.562.017,3.3.228,5.253.319a16.632,16.632,0,0,0,6.408-.77,14.5,14.5,0,0,0,5.912-3.894,14.1,14.1,0,0,0,2.1-2.972,19.409,19.409,0,0,0,1.27-3.144,23.091,23.091,0,0,1,1.96-5.094,10.145,10.145,0,0,1,3.27-3.2,15.857,15.857,0,0,1,3.878-1.741,47.491,47.491,0,0,1,6.4-1.277c1.568-.249,2.448-.479,2.444-.721" fill="#efb75e"/>
              <path id="Trazado_1054618" data-name="Trazado 1054618" d="M367.17,225.663c-.074-.473-3.352-.394-8.592.115-2.6.239-5.767.652-9.134,1.034a30.383,30.383,0,0,1-5.138.163A23.526,23.526,0,0,1,339,225.908c-3.625-1.156-7.044-2.853-10.388-4.088a27.3,27.3,0,0,0-9.442-1.954,13.6,13.6,0,0,0-6.432,1.421c-1.376.765-1.922,1.461-1.806,1.637.14.224.92-.064,2.284-.376a17.171,17.171,0,0,1,5.809-.236,30.569,30.569,0,0,1,8.4,2.47,113.887,113.887,0,0,0,10.539,4.431,24.478,24.478,0,0,0,6.155,1.151,29.284,29.284,0,0,0,5.734-.385c3.514-.58,6.519-1.227,9.11-1.781,5.142-1.128,8.285-2.062,8.21-2.535" fill="#fff"/>
              <path id="Trazado_1054619" data-name="Trazado 1054619" d="M169.143,163.208c.287-.438-1.9-2.054-4.333-5.383a33.807,33.807,0,0,1-1.829-2.869,14.683,14.683,0,0,0-2.725-3.545,13.423,13.423,0,0,0-4.369-2.579,26.724,26.724,0,0,0-4.97-1.251c-1.68-.283-3.277-.473-4.769-.71a5.78,5.78,0,0,1-3.213-1.1,4.27,4.27,0,0,1-1.043-2.721,27.74,27.74,0,0,1-.026-3.376,12.981,12.981,0,0,0-.3-3.155,6.177,6.177,0,0,0-1.034-2.286c-.906-1.134-1.767-1.221-1.853-1.039-.144.219.354.7.677,1.7a10.005,10.005,0,0,1,.072,4.585,22.094,22.094,0,0,0-.4,3.7,8.952,8.952,0,0,0,.283,2.325,5.862,5.862,0,0,0,1.312,2.464,6.144,6.144,0,0,0,2.455,1.612,14.427,14.427,0,0,0,2.5.637c1.581.3,3.19.514,4.771.782,3.17.509,5.953,1.3,7.828,2.828a13.536,13.536,0,0,1,2.422,2.724,25.339,25.339,0,0,0,2.348,2.856,17.162,17.162,0,0,0,4.251,3.269c1.124.586,1.832.729,1.954.533" fill="#fff"/>
              <path id="Trazado_1054620" data-name="Trazado 1054620" d="M163.787,199.387c-.495-.3-2.437,1.026-6,.7a16.7,16.7,0,0,1-2.787-.47,30.635,30.635,0,0,1-3.125-1.061,34.023,34.023,0,0,0-8.46-2.553,25.523,25.523,0,0,0-9.8.8,34.154,34.154,0,0,0-7,2.781c-3.633,1.958-5.369,3.58-5.037,3.937.364.4,2.752-.529,6.477-1.818a53.371,53.371,0,0,1,6.528-1.838,23.937,23.937,0,0,1,7.728-.42,44.219,44.219,0,0,1,7.569,2.058,26.806,26.806,0,0,0,3.906.92,17.613,17.613,0,0,0,3.8.129,10.342,10.342,0,0,0,5.257-1.692c1-.76,1.164-1.35.946-1.479" fill="#efb75e"/>
              <path id="Trazado_1054621" data-name="Trazado 1054621" d="M179.275,238.134c-.461-.215-1.343.892-3.225,1.787a17.95,17.95,0,0,1-3.51,1.234c-1.38.35-3.037.619-4.845,1.061a15.87,15.87,0,0,0-5.132,2.11,8.993,8.993,0,0,0-3.122,3.609,5.3,5.3,0,0,0-.475,3.211c.171.762.5,1.1.716,1.06.5-.086.567-1.515,1.862-3.014a9.065,9.065,0,0,1,2.694-2.148,19.455,19.455,0,0,1,4.291-1.464A44.949,44.949,0,0,0,173.5,244.2a12.662,12.662,0,0,0,3.942-2.263,6.444,6.444,0,0,0,1.847-2.538c.25-.714.185-1.165-.017-1.264" fill="#fff"/>
              <path id="Trazado_1054622" data-name="Trazado 1054622" d="M230.5,122.683c.226.045.57-.545.91-1.709a19.968,19.968,0,0,0,.541-5.023c.008-2.119-.223-4.6-.411-7.258a26.272,26.272,0,0,1,.425-8.211,6.593,6.593,0,0,1,.3-.99c.119-.32.2-.649.346-.958.265-.625.585-1.258.92-1.9a23.277,23.277,0,0,0,1.842-4.175,9.074,9.074,0,0,0,.168-4.556,10.693,10.693,0,0,0-1.519-3.478,16.175,16.175,0,0,0-3.469-3.761c-.935-.73-1.544-1.025-1.716-.863s.107.781.711,1.762a36.985,36.985,0,0,1,2.333,4.053,9.531,9.531,0,0,1,.833,2.8,6.6,6.6,0,0,1-.382,3.072,25.216,25.216,0,0,1-1.792,3.541c-.366.657-.747,1.361-1.091,2.139-.184.384-.306.8-.457,1.208a8.667,8.667,0,0,0-.379,1.248,24.772,24.772,0,0,0-.247,9.392c.376,2.757.848,5.132,1.145,7.122s.455,3.586.559,4.717c.082,1.123.19,1.788.433,1.834" fill="#efb75e"/>
              <path id="Trazado_1054623" data-name="Trazado 1054623" d="M119.127,381.086,108.12,390.63a4.717,4.717,0,0,1-5.294.627c-5.049-2.687-16-6.972-22.8,1.73,0,0,14.815,25.571,48.437,41.691l25.442-33.507Z" fill="#212330"/>
              <path id="Trazado_1054624" data-name="Trazado 1054624" d="M131.979,430.053c-7.874-3.467-15.087-8.663-21.753-14.192-9.468-7.853-18.339-16.687-25-26.976a13.169,13.169,0,0,0-5.2,4.1s14.815,25.571,48.438,41.691Z" fill="#d89f4c"/>
              <path id="Trazado_1054625" data-name="Trazado 1054625" d="M136.21,412.231c-3.855,3.778-3.794,9.827-2.639,14.722a1.014,1.014,0,0,0,1.828.239l10.72-14.119,1.548-2.039c.514-.677-.212-1.428-.863-1.5-3.747-.442-7.72.052-10.594,2.7-.948.874.469,2.286,1.414,1.414,2.476-2.281,5.994-2.491,9.18-2.115l-.864-1.505-10.72,14.118-1.548,2.039,1.827.239c-.986-4.182-1.194-9.523,2.125-12.776.921-.9-.494-2.316-1.414-1.414" fill="#241d35"/>
              <path id="Trazado_1054626" data-name="Trazado 1054626" d="M105.183,390.82a13.523,13.523,0,0,1,6.569,8.36c.333,1.237,2.3.879,1.966-.367a15.509,15.509,0,0,0-7.4-9.643c-1.116-.629-2.256,1.016-1.131,1.65" fill="#efb75e"/>
              <path id="Trazado_1054627" data-name="Trazado 1054627" d="M110.191,387.282c3.819.618,6.064,4.009,7.993,7.03.684,1.073,2.492.211,1.8-.876-2.359-3.7-5-7.4-9.622-8.147-1.277-.207-1.432,1.789-.169,1.993" fill="#efb75e"/>
              <path id="Trazado_1054628" data-name="Trazado 1054628" d="M192.182,386.609s16.263,33.377,40.189,38.808,39.231-6.283,39.231-6.283l-37.3-45.249-28.219-6.764Z" fill="#d35393"/>
              <path id="Trazado_1054629" data-name="Trazado 1054629" d="M194.779,288l-20.96,26.112,24.128,23.492,34.424-34.763Z" fill="#b56f61"/>
              <path id="Trazado_1054630" data-name="Trazado 1054630" d="M211.978,273.666a29.5,29.5,0,0,1,13.017-23.8c4.792-3.09,10.4-4.64,15.991-5.782,20.92-4.279,43.385-3.24,62.666,5.934,6.244,2.972,12.734,6.871,16.615,12.655a110.51,110.51,0,0,1,11,21.281c9.361,23.882,12.436,50.871,10.321,76.357a31.186,31.186,0,0,1-1.718,8.962,23.366,23.366,0,0,1-5.442,7.812c-5.527,5.483-16.552,12.085-24.762,10.316-8.112-1.748-16.117-8.992-19.748-16.207-7.432-14.769-2.165-34.164-11.629-47.719-4.8-6.873-12.622-10.961-20.422-14.028s-15.987-5.426-23.018-9.989c-3.462-2.248-6.673-5.111-8.444-8.839s-1.864-8.439.55-11.787" fill="#6d2c4a"/>
              <path id="Trazado_1054631" data-name="Trazado 1054631" d="M235.473,248.814l1.068,8a2.578,2.578,0,0,1-3.035,2.881c-6.209-1.188-19.205-1.947-27.61,9.685-11.373,15.739-14.347,19-14.347,19l20.126,14.462a51,51,0,0,0-14,24c-3.548,14.75,91.161,58.068,91.161,58.068l19.7-15.251s-2.216-48.075-11.185-70.571-7.06-31.863-7.06-31.863-6.514-13.4-27.1-10.31a2.591,2.591,0,0,1-2.893-1.865l-2.716-9.9Z" fill="#c96c4f"/>
              <path id="Trazado_1054632" data-name="Trazado 1054632" d="M223.4,332.577s-37.6-40.81-65.182-18.436-45.72,70.022-45.72,70.022,21.008,22.034,36.74,23.693S223.4,332.577,223.4,332.577" fill="#d35393"/>
              <path id="Trazado_1054633" data-name="Trazado 1054633" d="M289.607,214.367a67.265,67.265,0,0,1,1.166-11.076c1.682-11.524,1.583-23.809-3.636-34.184a26.108,26.108,0,0,0-9.77-11.031c-3.444-2.008-10.733-4.221-14.167-1.027-1-2.835-4.111-4.445-7.1-4.714s-5.965.506-8.928,1a47.848,47.848,0,0,1-17.921-.426c-9.688-2.091-18.864-3.047-28.087,1.793-6.064,3.182-8.744,7.806-11.89,13.479-3.041,5.486-3.642,12.625-.284,17.922a19.993,19.993,0,0,0,.821,34.247,17.833,17.833,0,0,0,24.781,16.735" fill="#2b2c3e"/>
              <path id="Trazado_1054634" data-name="Trazado 1054634" d="M156.325,403.366c-1.129-.554-2.433-1.143-3.831-1.885-1.41-.716-2.953-1.5-4.574-2.414-1.643-.869-3.345-1.892-5.15-2.944-3.574-2.165-7.426-4.67-11.327-7.5-3.884-2.856-7.441-5.765-10.589-8.511-1.55-1.4-3.042-2.712-4.369-4.013-.149-.139-.279-.27-.424-.408q-.211.474-.411.926c.058.057.108.111.167.168,1.307,1.34,2.786,2.688,4.328,4.121,3.133,2.811,6.7,5.77,10.617,8.65,3.933,2.857,7.836,5.356,11.466,7.487,1.834,1.034,3.567,2.033,5.241,2.872,1.652.881,3.226,1.63,4.668,2.3,1.429.7,2.764,1.24,3.924,1.74.57.25,1.106.471,1.6.668.181-.119.359-.233.542-.357-.572-.265-1.2-.56-1.881-.9" fill="#c1467e"/>
              <path id="Trazado_1054635" data-name="Trazado 1054635" d="M205.432,215.918q-7.4.61-14.82.971c-.064.507-.134,1.014-.232,1.513q7.534-.366,15.052-.984c.957-.079.965-1.58,0-1.5" fill="#efb75e"/>
              <path id="Trazado_1054636" data-name="Trazado 1054636" d="M292.365,205.664c-2.981-5.611-7.621-8.755-13.623-7.323q-.534-4.385-1.439-8.727c-1.221-5.825-2.939-11.765-7.424-15.947-11.446-10.671-31.839-12.9-46.264-8.633-8.741,2.584-16.516,8.007-20.919,16.119-4.273,7.875-5.513,17.13-4.849,26.064.832,11.2,3.166,23,9,32.75,6.763,11.3,16.319,14.464,28.9,14.636a65.7,65.7,0,0,0,20.325-3.282,37.2,37.2,0,0,0,7.65-3.179c6.45-3.749,10.509-10.377,12.831-17.451a13.741,13.741,0,0,0,8.418-1.765c7.345-4.314,11.471-15.583,7.392-23.262" fill="#c96c4f"/>
              <path id="Trazado_1054637" data-name="Trazado 1054637" d="M280.628,226.627c.027.067.535-.029,1.394-.41a7.193,7.193,0,0,0,1.48-.89,5,5,0,0,0,1.486-1.836,4.128,4.128,0,0,0,.2-2.932,3.12,3.12,0,0,0-.973-1.447,3.6,3.6,0,0,0-1.668-.746,5.3,5.3,0,0,0-1.842.012c-.624.1-1.212.346-1.7.452a1.4,1.4,0,0,1-1.237-.209,2.476,2.476,0,0,1-.77-1.251,5.05,5.05,0,0,1-.22-1.653,13.934,13.934,0,0,1,.114-1.709,13.745,13.745,0,0,1,.86-3.134,14.427,14.427,0,0,1,3.038-4.613,14.094,14.094,0,0,1,2.973-2.33c.771-.466,1.231-.69,1.2-.778-.021-.061-.536.02-1.4.377a11.432,11.432,0,0,0-3.334,2.14,14.049,14.049,0,0,0-4.454,8.172,14.551,14.551,0,0,0-.143,1.873,6.109,6.109,0,0,0,.266,2,3.565,3.565,0,0,0,1.18,1.823,2.537,2.537,0,0,0,2.179.4c.663-.164,1.146-.388,1.646-.471a4.34,4.34,0,0,1,1.467-.048,2.281,2.281,0,0,1,1.914,1.459,3.351,3.351,0,0,1-.054,2.3,5.935,5.935,0,0,1-2.427,2.645c-.758.484-1.212.724-1.178.8" fill="#82453b"/>
              <path id="Trazado_1054638" data-name="Trazado 1054638" d="M232,227.756c0-.093-.507-.118-1.325-.424a5.212,5.212,0,0,1-2.7-2.275,4.826,4.826,0,0,1,.186-4.915,22.786,22.786,0,0,1,2.207-2.422,5.592,5.592,0,0,0,1.582-3.58,8.676,8.676,0,0,0-.766-3.755,20.984,20.984,0,0,0-1.624-3.04,39.6,39.6,0,0,0-3.375-4.662c-2.124-2.5-3.719-3.763-3.815-3.661-.127.126,1.254,1.587,3.174,4.168a51.617,51.617,0,0,1,3.1,4.7,21.953,21.953,0,0,1,1.488,2.919,7.823,7.823,0,0,1,.661,3.267,4.507,4.507,0,0,1-1.274,2.888,20.782,20.782,0,0,0-2.257,2.6,5.605,5.605,0,0,0,.01,5.913,5.284,5.284,0,0,0,3.27,2.285c.935.192,1.457.056,1.452-.008" fill="#82453b"/>
              <path id="Trazado_1054639" data-name="Trazado 1054639" d="M236.374,224.565c-.247-.2-.828.1-1.3.674s-.65,1.2-.4,1.4.827-.1,1.3-.674.651-1.2.4-1.4" fill="#82453b"/>
              <path id="Trazado_1054640" data-name="Trazado 1054640" d="M239.82,234.868c.093-.119-.231-.589-.966-1.134a6.093,6.093,0,0,0-3.4-1.192,4.591,4.591,0,0,0-3.416,1.359c-.662.724-.728,1.357-.6,1.406.154.078.473-.358,1.13-.789a5.077,5.077,0,0,1,2.855-.822,8.458,8.458,0,0,1,3.026.747c.771.324,1.269.557,1.371.425" fill="#82453b"/>
              <path id="Trazado_1054641" data-name="Trazado 1054641" d="M224.3,220.489c-.26-.075-.649,1.146-1.951,2.515a7.933,7.933,0,0,1-2.642,1.823,7.288,7.288,0,0,1-7.3-1.1,7.914,7.914,0,0,1-1.988-2.521c-.841-1.692-.853-2.972-1.124-2.977-.2-.04-.67,1.314-.012,3.436a7.846,7.846,0,0,0,2.063,3.256,8.145,8.145,0,0,0,9.024,1.359,7.853,7.853,0,0,0,2.931-2.5c1.254-1.835,1.2-3.269,1-3.288" fill="#82453b"/>
              <path id="Trazado_1054642" data-name="Trazado 1054642" d="M259.484,213.106c-.274-.025-.446,1.26-1.428,2.941a8.887,8.887,0,0,1-12.772,3.23c-1.663-1.011-2.425-2.06-2.654-1.908-.179.083.232,1.457,1.938,2.9a9.5,9.5,0,0,0,8.243,1.9,9.5,9.5,0,0,0,6.348-5.593c.813-2.082.522-3.487.325-3.475" fill="#82453b"/>
              <path id="Trazado_1054643" data-name="Trazado 1054643" d="M216.308,199.137c-.31-.551-1.257-.693-2.541-.375a11.735,11.735,0,0,0-4.38,2.341c-3.029,2.479-4.277,5.573-3.309,6.38.985.834,3.583-.644,6.237-2.806,2.635-2.183,4.6-4.4,3.993-5.54" fill="#82453b"/>
              <path id="Trazado_1054644" data-name="Trazado 1054644" d="M258.415,198.125c.263-.573-.291-1.478-1.5-2.392a15.436,15.436,0,0,0-11.056-2.526c-1.489.3-2.381.872-2.393,1.505.008,1.293,3.261,2.308,7.133,3.21,3.88.867,7.251,1.366,7.82.2" fill="#82453b"/>
              <path id="Trazado_1054645" data-name="Trazado 1054645" d="M257.1,223.259a14.608,14.608,0,0,0-2.674,6.477,2.675,2.675,0,1,0,5.348,0c0-1.49-1.5-5.4-2.674-6.477" fill="#434877"/>
              <path id="Trazado_1054646" data-name="Trazado 1054646" d="M252.538,236.26a10.321,10.321,0,0,0-1.89,4.577,1.89,1.89,0,1,0,3.78,0,9.438,9.438,0,0,0-1.89-4.577" fill="#434877"/>
              <path id="Trazado_1054647" data-name="Trazado 1054647" d="M263.534,235.4a12.593,12.593,0,0,0-2.307,5.586,2.307,2.307,0,1,0,4.614,0,11.523,11.523,0,0,0-2.307-5.586" fill="#434877"/>
              <path id="Trazado_1054648" data-name="Trazado 1054648" d="M143.466,398.835l-15.729,18.624a4.715,4.715,0,0,1-5.16,1.338c-5.366-1.979-16.793-4.743-22.352,4.8,0,0,18.139,23.33,53.634,34.75L174.531,421.7Z" fill="#2b2c3e"/>
              <path id="Trazado_1054649" data-name="Trazado 1054649" d="M156.713,453.29c-8.271-2.37-16.121-6.542-23.474-11.117-10.444-6.5-20.429-14.051-28.418-23.344a13.168,13.168,0,0,0-4.6,4.768s18.139,23.33,53.634,34.75Z" fill="#efb75e"/>
              <path id="Trazado_1054650" data-name="Trazado 1054650" d="M159.288,435.663c-2.159,2.7-2.348,6.5-1.685,9.894a23.419,23.419,0,0,0,1.186,4.051l9.969-17.67c-3.61.046-7.268.973-9.47,3.725" fill="#efb75e"/>
              <path id="Trazado_1054651" data-name="Trazado 1054651" d="M125.036,418.115a13.322,13.322,0,0,1,7.443,7.274c.487,1.173,2.423.659,1.928-.532a15.547,15.547,0,0,0-8.839-8.671c-1.2-.47-1.719,1.465-.532,1.929" fill="#efb75e"/>
              <path id="Trazado_1054652" data-name="Trazado 1054652" d="M129.284,413.863c3.985.114,6.654,3.216,9.046,6.034.836.984,2.244-.438,1.415-1.415-2.782-3.275-5.89-6.488-10.461-6.619a1,1,0,0,0,0,2" fill="#efb75e"/>
              <path id="Trazado_1054653" data-name="Trazado 1054653" d="M308.535,369.664s-2.216-48.075-11.185-70.571-7.06-31.863-7.06-31.863-6.513-13.4-27.1-10.31a2.647,2.647,0,0,1-.554.019,24.141,24.141,0,0,1-30.964,2.452c-6.678-.922-18.127-.6-25.776,9.987-11.373,15.738-14.347,19-14.347,19l20.126,14.463a51,51,0,0,0-14,24c-3.548,14.75,91.161,58.068,91.161,58.068Z" fill="#efb75e"/>
              <path id="Trazado_1054654" data-name="Trazado 1054654" d="M211.386,303.1c.511-.035.266-7.092,1.221-15.692.907-8.605,2.655-15.446,2.164-15.589-.42-.148-2.956,6.608-3.887,15.4-.972,8.791.06,15.933.5,15.878" fill="#ba8538"/>
              <path id="Trazado_1054655" data-name="Trazado 1054655" d="M212.359,283.865c.258-.217-1.156-2.188-2.221-4.917-1.1-2.716-1.419-5.119-1.755-5.1-.3-.011-.493,2.6.681,5.528,1.155,2.938,3.083,4.7,3.295,4.49" fill="#ba8538"/>
              <path id="Trazado_1054656" data-name="Trazado 1054656" d="M210.746,293.449c-1.9-1.4-3.9-2.934-5.928-4.6-2.449-2.027-4.686-4.066-6.643-6-.431-.437-.844-.865-1.248-1.289-.217.288-.425.561-.627.826.363.4.729.8,1.115,1.209a84.239,84.239,0,0,0,6.668,6.144c2.219,1.821,4.408,3.456,6.477,4.917a7.118,7.118,0,0,1,.186-1.2" fill="#ba8538"/>
              <path id="Trazado_1054657" data-name="Trazado 1054657" d="M273.174,255.841c-.159-.141-2.108,2.3-5.989,5.4a40.109,40.109,0,0,1-7.316,4.654,33.627,33.627,0,0,1-10.06,3.146,29.185,29.185,0,0,1-10.486-.515,27.224,27.224,0,0,1-7.968-3.243c-4.224-2.594-6.009-5.246-6.189-5.076a6.624,6.624,0,0,0,1.249,1.8,21.349,21.349,0,0,0,4.5,3.961,26.256,26.256,0,0,0,8.153,3.587,28.931,28.931,0,0,0,10.9.626,32.952,32.952,0,0,0,10.38-3.339,37.08,37.08,0,0,0,7.358-4.975,35.928,35.928,0,0,0,4.2-4.245,7.23,7.23,0,0,0,1.269-1.786" fill="#ba8538"/>
              <path id="Trazado_1054658" data-name="Trazado 1054658" d="M303.444,345.6a7.877,7.877,0,0,1,.252-1.814c-9.122-2.976-16.515-10.662-21.716-18.959A73.92,73.92,0,0,1,271.9,299.013c-1.631-8.888-3.522-16.76-1.224-25.877a32.064,32.064,0,0,1,3.573-9.329c1.287-1.994,3.259-3.22,3.723-5.712a25.131,25.131,0,0,0-10.88-2.927c-12.229-.178-17.481,17.193-18.627,26.9-3.212,27.21,6.849,56.387,28.3,73.434a53.25,53.25,0,0,0,10.855,6.819,42.609,42.609,0,0,0,17.364,3.837,98.563,98.563,0,0,1-1.542-20.561" fill="#2b2c3e"/>
              <path id="Trazado_1054659" data-name="Trazado 1054659" d="M305.2,351.469l-55.228,7.939s-40.941-57.248-64.8-33.237c-16.318,16.417-38.208,50.662-48.923,69.317,5.42,8.5,12.837,15.914,20.523,22.037a82.273,82.273,0,0,0,20.68,12.291L205.9,386.587s24.761,43.743,60.415,41.668,39.023-22.447,41.573-32.792-2.689-43.994-2.689-43.994" fill="#f2619c"/>
              <path id="Trazado_1054660" data-name="Trazado 1054660" d="M309.948,262.068c1.983-1.506,3.856-3.045,5.663-4.589q-.652-.568-1.336-1.108c-1.722,1.446-3.5,2.891-5.37,4.313a150.248,150.248,0,0,1-14.159,9.346c-2.284,1.262-4.434,2.5-6.527,3.511-1.04.515-2.028,1.051-3.006,1.5l-2.82,1.292c-7.216,3.235-11.9,4.751-11.806,5.038a13.314,13.314,0,0,0,3.38-.78l1.782-.518c.647-.206,1.338-.46,2.087-.72,1.49-.537,3.209-1.1,5.039-1.894l2.894-1.2c1-.425,2.017-.935,3.083-1.428,2.144-.964,4.345-2.171,6.679-3.411a132.6,132.6,0,0,0,14.417-9.352" fill="#a53d71"/>
              <path id="Trazado_1054661" data-name="Trazado 1054661" d="M338.723,309.507c-.261.212-.5.419-.776.632-1.35,1.129-2.873,2.231-4.452,3.418a110.84,110.84,0,0,1-22.34,12.608c-1.833.737-3.564,1.472-5.227,2.045-1.645.627-3.2,1.131-4.63,1.59-5.709,1.815-9.355,2.607-9.3,2.886a7.822,7.822,0,0,0,2.632-.211c.84-.115,1.862-.287,3.034-.555s2.523-.522,3.979-.944c1.465-.389,3.067-.831,4.755-1.408,1.708-.522,3.484-1.216,5.362-1.925a95.506,95.506,0,0,0,22.688-12.8c1.578-1.241,3.09-2.4,4.419-3.6.061-.05.118-.1.178-.153-.1-.529-.214-1.054-.321-1.583" fill="#a53d71"/>
              <path id="Trazado_1054662" data-name="Trazado 1054662" d="M219.35,363.207c-.149-.074-1.292,1.958-3.127,5.24s-4.384,7.8-7.334,12.719-5.747,9.287-7.784,12.447-3.294,5.125-3.159,5.222,1.617-1.707,3.833-4.761,5.132-7.378,8.1-12.313,5.414-9.544,7.068-12.935,2.54-5.552,2.4-5.619" fill="#c1467e"/>
              <path id="Trazado_1054663" data-name="Trazado 1054663" d="M181.3,423.954a75.835,75.835,0,0,1-8.833-4.779,90.636,90.636,0,0,1-13.645-10.654A134.493,134.493,0,0,1,147.011,395.8c-2.323-2.837-4.421-5.528-6.229-8.028l-.513.856c1.72,2.463,3.711,5.089,5.917,7.843a125.1,125.1,0,0,0,11.847,12.893,86.954,86.954,0,0,0,13.873,10.715,72.136,72.136,0,0,0,8.887,4.647Z" fill="#c1467e"/>
              <g id="Grupo_1210390" data-name="Grupo 1210390" opacity="0.13" style="mix-blend-mode: multiply;isolation: isolate">
                <g id="Grupo_1210389" data-name="Grupo 1210389">
                  <g id="Grupo_1210388" data-name="Grupo 1210388" clip-path="url(#clip-path-4)">
                    <path id="Trazado_1054664" data-name="Trazado 1054664" d="M235.488,347.64a29.9,29.9,0,0,0-14.163-.093,17.464,17.464,0,0,0-11.073,8.392,20.817,20.817,0,0,1,6.528-.534c4.708.614,7.36,5.566,9.787,9.137,4.626,6.808,12.6,12.153,20.72,10.8,1.96-.326,3.9-1.03,5.877-.833,2.873.288,5.176,2.383,7.482,4.121,12.811,9.662,37.909,14.118,46.753-3.091a2.454,2.454,0,0,0,.376-1.47,2.575,2.575,0,0,0-.745-1.238c-4.935-5.458-11.417-9.278-16.291-14.639-2.809-3.09-4.858-6.8-7.605-9.947a29.711,29.711,0,0,0-28.734-9.134" fill="#c1467e"/>
                  </g>
                </g>
              </g>
              <path id="Trazado_1054665" data-name="Trazado 1054665" d="M236.726,341.45a54.443,54.443,0,0,0,70.859,36.241,3.232,3.232,0,0,0,1.568-.953,3.332,3.332,0,0,0,.418-2.124c-.264-9.278-1.04-18.476-1.831-27.732a44.136,44.136,0,0,1-14.428-2.571" fill="#efb75e"/>
              <path id="Trazado_1054666" data-name="Trazado 1054666" d="M309.532,373.657c-.009-.282-.025-.564-.035-.846a89.387,89.387,0,0,1-26.576-.347,64.643,64.643,0,0,1-25.3-10.155c-5.8-4.011-8.642-7.428-8.812-7.255a13.3,13.3,0,0,0,1.979,2.376,46.689,46.689,0,0,0,6.36,5.545,56.627,56.627,0,0,0,10.88,6.212,65.9,65.9,0,0,0,14.694,4.415,83.115,83.115,0,0,0,26.811.055" fill="#ba8538"/>
              <path id="Trazado_1054667" data-name="Trazado 1054667" d="M268.93,339.627c.277-.155-2.313-4.449-5.276-11.915a107.949,107.949,0,0,1-7.314-30.317,105.569,105.569,0,0,1-.115-17.191,49.752,49.752,0,0,1,2.865-13.629,28.88,28.88,0,0,1,4.621-8.132c.727-.842,1.3-1.5,1.721-1.91.406-.432.6-.684.565-.73s-.308.114-.8.467a16.276,16.276,0,0,0-1.992,1.722,26,26,0,0,0-5.256,8.124,47.529,47.529,0,0,0-3.318,13.943,97.555,97.555,0,0,0-.022,17.49,99.877,99.877,0,0,0,3.115,17.2,93.918,93.918,0,0,0,4.8,13.436c.8,1.869,1.659,3.493,2.369,4.938.773,1.415,1.443,2.63,2.021,3.6a13.767,13.767,0,0,0,2.014,2.9" fill="#424563"/>
              <path id="Trazado_1054668" data-name="Trazado 1054668" d="M321.673,339.279a129.262,129.262,0,0,0-20.827-54.532c-21.215-30.9-27.092,23.265-27.092,23.265l4.745,15.376-47.321,9.137a141.417,141.417,0,0,0,6.115,30.187c18.542,1.811,54.586,4.282,79.326-12.37a11.6,11.6,0,0,0,5.054-11.063" fill="#c96c4f"/>
              <g id="Grupo_1210393" data-name="Grupo 1210393" opacity="0.14" style="mix-blend-mode: multiply;isolation: isolate">
                <g id="Grupo_1210392" data-name="Grupo 1210392">
                  <g id="Grupo_1210391" data-name="Grupo 1210391" clip-path="url(#clip-path-5)">
                    <path id="Trazado_1054669" data-name="Trazado 1054669" d="M280.938,316.509a103.592,103.592,0,0,0,14.975-3.206,79.468,79.468,0,0,0,16.8-6.649,121.861,121.861,0,0,0-11.863-21.906c-21.214-30.9-27.092,23.265-27.092,23.265l2.724,8.825a43.231,43.231,0,0,0,4.46-.329" fill="#b56f61"/>
                  </g>
                </g>
              </g>
              <path id="Trazado_1054670" data-name="Trazado 1054670" d="M292.1,306.441c6.718-2.482,14.186-5.3,20.613-9.356-3.136-6.437-11-20.269-11.9-21.71-5.106-8.142-14.407-17.864-24.613-18.563-8.023-.549-13.294,6.249-14.714,13.328a19.72,19.72,0,0,0-.348,2.621c-.935,14.5,4.6,27.306,10.7,39.923a205.124,205.124,0,0,0,20.259-6.243" fill="#efb75e"/>
              <path id="Trazado_1054671" data-name="Trazado 1054671" d="M268.438,305.4c.131.294.265.587.4.88a176.547,176.547,0,0,0,21.659-5.885,112.865,112.865,0,0,0,19.391-8.787q-.227-.425-.458-.856a124.084,124.084,0,0,1-19.313,8.553,209.268,209.268,0,0,1-21.676,6.1" fill="#ba8538"/>
              <g id="Grupo_1210396" data-name="Grupo 1210396" opacity="0.14" style="mix-blend-mode: multiply;isolation: isolate">
                <g id="Grupo_1210395" data-name="Grupo 1210395">
                  <g id="Grupo_1210394" data-name="Grupo 1210394" clip-path="url(#clip-path-6)">
                    <path id="Trazado_1054672" data-name="Trazado 1054672" d="M198.737,193.4c7.932-2.465,16.458-.609,24.7.426s17.458.939,23.757-4.476a24.046,24.046,0,0,0,17.483,13.422,8.648,8.648,0,0,0,5.165-.371c2.827-1.345,3.882-5.027,3.206-8.084s-2.665-5.633-4.6-8.095l-6.685-8.511c-3.351-4.266-7.085-8.791-12.343-10.125-5.4-1.37-10.963.978-16.034,3.274" fill="#b56f61"/>
                  </g>
                </g>
              </g>
              <path id="Trazado_1054673" data-name="Trazado 1054673" d="M194.119,197.247c2.767-5.543,9.384-7.982,15.53-8.761,8.51-1.079,17.332.024,25.566-2.384a31.156,31.156,0,0,0,15.611-10.545c-.132,5.488,1.961,10.838,4.918,15.463,2.31,3.613,5.268,6.962,9.127,8.834s8.737,2.029,12.269-.4a6.8,6.8,0,0,0,2.074-2.149,7.713,7.713,0,0,0,.85-2.691c1.157-7.528-3.3-14.667-7.676-20.9a34.131,34.131,0,0,0-6.48-7.5c-4.394-3.454-10.137-4.611-15.682-5.311-14.732-1.858-30.506-1-43.164,6.767" fill="#2b2c3e"/>
              <g id="Grupo_1210399" data-name="Grupo 1210399" opacity="0.14" style="mix-blend-mode: multiply;isolation: isolate">
                <g id="Grupo_1210398" data-name="Grupo 1210398">
                  <g id="Grupo_1210397" data-name="Grupo 1210397" clip-path="url(#clip-path-7)">
                    <path id="Trazado_1054674" data-name="Trazado 1054674" d="M290.378,206.321c-4.968-8.432-12.761,2.805-13.776,8.15-.313,1.653-.029,3.805,1.568,4.334a4.65,4.65,0,0,0,1.914.04,7.039,7.039,0,0,1,3.146.285,3.426,3.426,0,0,1,2.159,2.181c.444,1.627-.684,3.226-1.745,4.538a2.027,2.027,0,0,0,1.369-.6,18.552,18.552,0,0,0,6.38-10.542,11.883,11.883,0,0,0-1.015-8.382" fill="#b56f61"/>
                  </g>
                </g>
              </g>
              <path id="Trazado_1054675" data-name="Trazado 1054675" d="M262.362,157.642c-.135-.021-.286,1.078-1.1,2.609a24.542,24.542,0,0,1-4.2,5.341,23.134,23.134,0,0,0-4.279,5.532,5.21,5.21,0,0,0-.764,2.808c.131.032.373-1.047,1.266-2.536a30.33,30.33,0,0,1,4.362-5.245,19.861,19.861,0,0,0,4.133-5.654,5.023,5.023,0,0,0,.581-2.855" fill="#434877"/>
              <path id="Trazado_1054676" data-name="Trazado 1054676" d="M265.62,192.265c.08-.109-1.04-.919-2.48-2.57a23.938,23.938,0,0,1-4.29-7.33,38.811,38.811,0,0,1-1.971-8.337,22.285,22.285,0,0,0-.531-3.556,12.479,12.479,0,0,0-.038,3.615,30.984,30.984,0,0,0,1.783,8.561,21.059,21.059,0,0,0,4.628,7.436,8.56,8.56,0,0,0,2.9,2.181" fill="#434877"/>
              <path id="Trazado_1054677" data-name="Trazado 1054677" d="M285.266,196.543a3.678,3.678,0,0,0-.179-1.6,9.793,9.793,0,0,0-2.12-3.852,18.341,18.341,0,0,0-5.134-4c-2.125-1.208-4.581-2.261-6.911-3.725a19,19,0,0,1-5.533-5.3,20.519,20.519,0,0,1-2.749-5.668,34.316,34.316,0,0,1-.981-5.784,4.978,4.978,0,0,0-.143,1.6,17.049,17.049,0,0,0,.574,4.342,19.744,19.744,0,0,0,2.684,5.932,19.01,19.01,0,0,0,5.716,5.565c2.41,1.512,4.88,2.543,6.983,3.7a18.876,18.876,0,0,1,5.067,3.731,10.515,10.515,0,0,1,2.246,3.566c.34.947.408,1.515.48,1.506" fill="#434877"/>
              <path id="Trazado_1054678" data-name="Trazado 1054678" d="M288.734,188.193a4.345,4.345,0,0,0-.228-1.48,17.608,17.608,0,0,0-1.464-3.816,19.5,19.5,0,0,0-3.628-4.877,18.658,18.658,0,0,0-2.809-2.271,32.675,32.675,0,0,0-3.358-1.88,34.811,34.811,0,0,1-6.3-3.588,11.577,11.577,0,0,1-3.482-4.608,30.705,30.705,0,0,1-1.311-3.786,5.672,5.672,0,0,0-.483-1.41,4.978,4.978,0,0,0,.177,1.483,22.128,22.128,0,0,0,1.09,3.934,11.709,11.709,0,0,0,3.539,4.965,32.689,32.689,0,0,0,6.408,3.733,22.81,22.81,0,0,1,6.014,3.965,20.45,20.45,0,0,1,3.642,4.615,40.285,40.285,0,0,1,2.194,5.021" fill="#434877"/>
              <path id="Trazado_1054679" data-name="Trazado 1054679" d="M286.659,174.607A6.631,6.631,0,0,0,285.512,172a18.12,18.12,0,0,0-4.666-5.043,37.723,37.723,0,0,1-5.192-4.253c-1.138-1.261-1.534-2.272-1.659-2.222a4.772,4.772,0,0,0,1.219,2.587,26.553,26.553,0,0,0,5.137,4.528c4.286,3.1,6.1,7.145,6.308,7.009" fill="#434877"/>
              <path id="Trazado_1054680" data-name="Trazado 1054680" d="M259.6,160.685a3.047,3.047,0,0,0-.735-.343,14.207,14.207,0,0,0-2.221-.693,18.34,18.34,0,0,0-3.665-.443,24.692,24.692,0,0,0-4.866.468c-1.781.332-3.692.852-5.722,1.435a40.462,40.462,0,0,1-6.489,1.55,22.691,22.691,0,0,1-7.283-.415c-2.505-.5-5.042-1.332-7.661-2.141a24.085,24.085,0,0,0-15.4-.366,20.948,20.948,0,0,0-10.236,7.366,22.408,22.408,0,0,0-3.707,7.688,20,20,0,0,0-.461,2.277,2.987,2.987,0,0,0-.088.8c.077.015.29-1.082.851-2.993a23.574,23.574,0,0,1,3.859-7.428,20.668,20.668,0,0,1,10.013-7.006,23.6,23.6,0,0,1,14.935.43,77.777,77.777,0,0,0,7.743,2.146,23.125,23.125,0,0,0,7.528.377c.6-.05,1.185-.193,1.766-.287.567-.146,1.144-.266,1.681-.429l3.143-.929c2.019-.611,3.9-1.157,5.644-1.518a25.42,25.42,0,0,1,4.755-.577,19.776,19.776,0,0,1,3.6.3c1.957.374,2.99.811,3.019.728" fill="#434877"/>
              <path id="Trazado_1054681" data-name="Trazado 1054681" d="M245.662,169.107a2.036,2.036,0,0,0-.643.129,10.484,10.484,0,0,0-1.737.705,64.406,64.406,0,0,0-5.747,3.717,14,14,0,0,1-4.2,1.876,17.178,17.178,0,0,1-5.27.426c-3.771-.185-7.778-1.463-12.144-2.278a24.58,24.58,0,0,0-6.5-.423,16.761,16.761,0,0,0-5.876,1.608,19.447,19.447,0,0,0-7.694,6.688,17.418,17.418,0,0,0-2.635,6.35,10.462,10.462,0,0,0-.221,1.858,1.982,1.982,0,0,0,.01.654,2.076,2.076,0,0,0,.152-.637,15.051,15.051,0,0,1,.367-1.807,18.427,18.427,0,0,1,2.8-6.1,19.3,19.3,0,0,1,7.538-6.335,16.181,16.181,0,0,1,5.624-1.494,24.213,24.213,0,0,1,6.291.429c4.283.795,8.355,2.071,12.248,2.225a17.55,17.55,0,0,0,5.48-.519,14.357,14.357,0,0,0,4.339-2.046c2.4-1.658,4.173-3.156,5.585-3.919,1.383-.808,2.256-1.037,2.231-1.112" fill="#434877"/>
              <path id="Trazado_1054682" data-name="Trazado 1054682" d="M235.656,168.119a32.847,32.847,0,0,1-4.668.424,27.762,27.762,0,0,1-5.035-.627c-1.88-.386-3.927-.942-6.1-1.5a37.865,37.865,0,0,0-6.259-1.105,18.082,18.082,0,0,0-5.21.282,11.041,11.041,0,0,0-3.293,1.242c-.714.428-1.057.737-1.031.774a20.786,20.786,0,0,1,4.431-1.455,19.379,19.379,0,0,1,5.039-.1,42.379,42.379,0,0,1,6.124,1.147c2.16.552,4.231,1.092,6.153,1.444a24.693,24.693,0,0,0,5.179.468,13.688,13.688,0,0,0,3.474-.509,3.384,3.384,0,0,0,1.192-.487" fill="#434877"/>
              <path id="Trazado_1054683" data-name="Trazado 1054683" d="M231.955,181.539c-.061-.133-1.643.708-4.434,1.194a51.6,51.6,0,0,1-11.076.271c-4.367-.207-8.424.066-11.194,1.009a13.574,13.574,0,0,0-3.125,1.419c-.684.436-1.018.737-.99.776a35.859,35.859,0,0,1,4.276-1.647,37.141,37.141,0,0,1,11-.75c4.352.21,8.388.184,11.221-.517a15.322,15.322,0,0,0,3.246-1.1c.728-.356,1.1-.612,1.074-.656" fill="#434877"/>
              <path id="Trazado_1054684" data-name="Trazado 1054684" d="M190.323,215.017c.1-.1-.958-1.144-2.168-3.163a18.26,18.26,0,0,1-.828-17.508c1.014-2.124,1.969-3.268,1.859-3.354a9.215,9.215,0,0,0-2.368,3.094,17.312,17.312,0,0,0,.855,18.075,9.2,9.2,0,0,0,2.65,2.856" fill="#434877"/>
              <path id="Trazado_1054685" data-name="Trazado 1054685" d="M192.935,211.016c.117-.278.251-.554.381-.831-.192-.248-.385-.494-.571-.746a11.047,11.047,0,0,1-1.726-3.078,8.672,8.672,0,0,1-.394-3.228,12.289,12.289,0,0,1,1.685-5.325,24.809,24.809,0,0,1,2.2-3.171,5.665,5.665,0,0,0,.854-1.156c-.038-.037-.437.287-1.09.947a18.777,18.777,0,0,0-2.456,3.087,12.294,12.294,0,0,0-1.937,5.566,9.215,9.215,0,0,0,.384,3.527,11.527,11.527,0,0,0,1.829,3.312c.279.377.561.739.84,1.1" fill="#434877"/>
              <path id="Trazado_1054686" data-name="Trazado 1054686" d="M237.3,156.823c-.062-.222-2.161.208-4.772.379a16.079,16.079,0,0,1-3.293,0c-.811-.122-1.259-.417-1.336-.32-.073.066.3.575,1.2.874a9.562,9.562,0,0,0,3.488.248c2.711-.178,4.784-.98,4.717-1.185" fill="#434877"/>
              <path id="Trazado_1054687" data-name="Trazado 1054687" d="M209.665,240.072a19.793,19.793,0,1,1,19.793-19.793,19.815,19.815,0,0,1-19.793,19.793m0-38.085a18.293,18.293,0,1,0,18.293,18.292,18.313,18.313,0,0,0-18.293-18.292" fill="#efb75e"/>
              <path id="Trazado_1054688" data-name="Trazado 1054688" d="M253.34,233.182a19.793,19.793,0,1,1,19.793-19.792,19.815,19.815,0,0,1-19.793,19.792m0-38.085a18.293,18.293,0,1,0,18.293,18.293A18.313,18.313,0,0,0,253.34,195.1" fill="#efb75e"/>
              <path id="Trazado_1054689" data-name="Trazado 1054689" d="M303.34,202.346a18.6,18.6,0,0,0-4.85-5.975c-2.512-1.854-6.075-1.679-9.014-1.584a98.862,98.862,0,0,0-23.86,3.851.757.757,0,0,0-.3.162,6.281,6.281,0,0,1,1.3,1.119,101.477,101.477,0,0,1,19.016-3.412,35.667,35.667,0,0,1,9.415.036c3.474.655,5.353,3.751,6.992,6.56a.75.75,0,0,0,1.295-.757" fill="#efb75e"/>
              <path id="Trazado_1054690" data-name="Trazado 1054690" d="M234.684,214.776a5.8,5.8,0,0,0-7.055.9.75.75,0,0,0,1.061,1.06,4.313,4.313,0,0,1,5.734-.358.615.615,0,0,0,.435.13,8.249,8.249,0,0,1-.175-1.732" fill="#efb75e"/>
              <path id="Trazado_1054691" data-name="Trazado 1054691" d="M234.947,332.328c-3.284.714-6.7-.309-9.772-1.666s-6.031-3.07-9.3-3.847c-2.959-.7-7.022-.889-9.755.734a3.128,3.128,0,0,0-1.629,2.361c5.67,1.516,12.733-.656,17.488,3.763a27.777,27.777,0,0,0-11.913.791c-2.652.773-5.447,2.221-6.312,4.845a2.014,2.014,0,0,0-.109,1.059,1.75,1.75,0,0,0,1.9,1.149,5.961,5.961,0,0,0,2.237-.878,23.636,23.636,0,0,1,15.268-2.4c-3.873,1.18-7.96,1.649-11.717,3.159s-7.311,4.4-8.091,8.375a1.864,1.864,0,0,0,.232,1.6c.756.854,2.113.008,2.948-.77a23.994,23.994,0,0,1,17.286-6.332c-5.571,2.144-11.493,4.558-14.823,9.512a3.674,3.674,0,0,0-.77,1.985c0,3.035,2.634.626,3.519-.051,3.147-2.409,8.76-5.327,12.624-2.879a12.249,12.249,0,0,1,2.875,2.815c3.283,4.1,7.893,7.6,13.244,8.366,10.176,1.462,20.286-.12,30.463-.439" fill="#c96c4f"/>
              <path id="Trazado_1054692" data-name="Trazado 1054692" d="M397.522,39.946a9.833,9.833,0,0,1-7.8-8.518,11.193,11.193,0,0,1,5.371-10.45A13.017,13.017,0,0,1,407,20.45c-1.514-16.508,24.434-20.8,33.445-10.416a16.711,16.711,0,0,1,3.9,12.886c4.849-1.948,10.836-2.563,14.938.676a11.473,11.473,0,0,1,3.724,11.071,16.924,16.924,0,0,1-6.675,9.985c4.646,3.538,5.8,10.58,3.287,15.854-3.375,7.091-10.64,9.784-17.953,9.031" fill="#602844"/>
              <path id="Trazado_1054693" data-name="Trazado 1054693" d="M441.912,80.009c8.594-.35,18.2,4.376,21,12.888a16.668,16.668,0,0,1-4.031,16.9c-5.988,5.739-15.827,5.7-23.265,2.028" fill="#c96c4f"/>
              <path id="Trazado_1054694" data-name="Trazado 1054694" d="M365.991,83.5q-11.532-28.263-23.065-56.525a14.589,14.589,0,0,1-1.11-3.57,17.8,17.8,0,0,1,.311-4.676,35.913,35.913,0,0,0-.411-13.382c-.359-1.47-2.256-6.914-4.569-4.911-1.854,1.606-.819,6.685-.99,8.823-.29,3.627.019,7.03-.945,10.617.4-1.491-1.936-5.072-2.677-6.313a55.41,55.41,0,0,0-2.851-5A20.1,20.1,0,0,0,319.418,1.63c-1.637-.479-4.779-.982-6.027.642-1.425,1.855.346,3.633,1.993,4.359,6.391,2.814,13.061,7.17,14.46,14.011-.627-3.064-7.078-6.684-9.553-8.046-4.618-2.541-12.066-3.6-16.907-1.188-.606.3-1.258.777-1.264,1.454-.006.785.839,1.268,1.577,1.536,4.487,1.636,9.434,1.735,13.878,3.486a19.88,19.88,0,0,1,7.746,5.5A34.433,34.433,0,0,0,309.868,19.7c-3.406,0-7.021.6-9.577,2.853a1.639,1.639,0,0,0-.694,1.192c.031.736.887,1.11,1.606,1.272,3.58.806,7.318.614,10.926,1.285,3.973.738,7.673,2.5,11.321,4.239a42.368,42.368,0,0,0-15.2,1.382c-2.663.742-9.094,1.043-8.334,5.362.281,1.6,16.151-.434,18.013-.382q10.136,32.4,22.988,63.87" fill="#c96c4f"/>
              <path id="Trazado_1054695" data-name="Trazado 1054695" d="M367.979,66.694c-5.052,1.919-10.1,3.859-15.1,5.892-8.7,3.532-17.069,7.786-25.576,11.73a147.8,147.8,0,0,0,6.721,15.714c1.962,4.057,4.065,8.179,7.4,11.215a22.7,22.7,0,0,0,13.875,5.493,21.083,21.083,0,0,0,6.919-.613c6.465-1.783,11.389-7.5,13.333-13.922s1.218-13.409-.831-19.794c-.347-1.082-4.7-11.518-6.735-15.715" fill="#f2b14a"/>
              <path id="Trazado_1054696" data-name="Trazado 1054696" d="M329.8,90.755Q350.063,81.3,370.24,71.671c-.171-.39-.339-.773-.5-1.146Q349.572,80.152,329.324,89.6c.157.387.318.771.481,1.155" fill="#d89e48"/>
              <path id="Trazado_1054697" data-name="Trazado 1054697" d="M412.291,37.447a11.461,11.461,0,0,1,20.543,5.561,4.766,4.766,0,0,1-.624,3.374" fill="#efb75e"/>
              <path id="Trazado_1054698" data-name="Trazado 1054698" d="M448.431,86.019c2.245-10.839.618-23.224-6.813-31.683q-.287-.325-.576-.647c-12.433-13.789-31.916-20.134-49.666-13.5A42.331,42.331,0,0,0,369.139,59.6c-8.385,15.593-12.875,34.494-.909,49.538,13.5,16.975,39.833,21.739,58.485,10.918,11.364-6.593,17.485-18.749,20.946-30.9q.438-1.542.77-3.139" fill="#c96c4f"/>
              <path id="Trazado_1054699" data-name="Trazado 1054699" d="M422.554,131.485q-17.418,8.319-34.321,17.662c-10.331,5.711-20.366,13.6-31.634,17-4.975,1.5-10.106,2.657-14.731,5.026s-8.8,6.212-10.144,11.234a2.417,2.417,0,0,0,.13,2.051c.928,1.254,2.849.069,3.969-1.017,3.97-3.848,10.2-7.129,15.837-6.839a15.413,15.413,0,0,0-4.806,26.129c.582.5,1.488.96,2.053.437,1.2-2.23,1.153-4.914.868-7.432s-.773-5.068-.345-7.566,2.042-5,4.51-5.576a13.968,13.968,0,0,0-2.007,10.563A20.249,20.249,0,0,0,355.6,201.7c1.7,2.1,7.025,5.174,5.861-.185-.662-3.048-1.982-5.933-2.5-9.009s-.049-6.591,2.286-8.659a22.561,22.561,0,0,0,.62,10.53c1.177,3.348,3.792,6.344,7.229,7.233a1.062,1.062,0,0,0,1.581-1.141c.1-4.739-2.832-9.036-3.395-13.742a1.513,1.513,0,0,1,.384-1.459,1.286,1.286,0,0,1,.942-.134c1.915.309,2.623,2.013,4.17,2.8,1.637.833,4.3.626,6.095.544,6.846-.312,13.693-4.791,19.383-8.238q18.579-11.257,36-24.286" fill="#c96c4f"/>
              <path id="Trazado_1054700" data-name="Trazado 1054700" d="M444.9,131.432c-7.384-9.085-19.731-5.623-29.105-1.621q-11.625,4.962-22.833,10.836c1.785,8.541,5.543,16.966,9.4,24.3a73.033,73.033,0,0,0,10.29,15.19c3.314-1.1,6.655-2.14,9.846-3.545a74.7,74.7,0,0,0,9.592-5.284c5.6-3.526,11.177-7.481,14.745-13.058,5.17-8.082,4.028-19.49-1.932-26.823" fill="#f2b14a"/>
              <path id="Trazado_1054701" data-name="Trazado 1054701" d="M398.987,137.579a99.575,99.575,0,0,0,21.389,39.887c.412-.161.82-.334,1.228-.5a98.352,98.352,0,0,1-21.484-39.934c-.377.186-.757.365-1.133.551" fill="#d89e48"/>
              <path id="Trazado_1054702" data-name="Trazado 1054702" d="M377.91,79.338a26.756,26.756,0,0,0-.771,2.655c-2.931,12.577,3.71,24.874,14.834,27.466,11.011,2.567,22.283-5.343,25.352-17.7-13.072-4.36-26.172-8.625-39.415-12.417" fill="#6d2c4a"/>
              <path id="Trazado_1054703" data-name="Trazado 1054703" d="M389.668,91.976A20.6,20.6,0,0,0,377.706,95.8c2.257,6.769,7.408,12.061,14.267,13.66a19.707,19.707,0,0,0,16.984-4.267,20.7,20.7,0,0,0-19.289-13.216" fill="#a53d71"/>
              <path id="Trazado_1054704" data-name="Trazado 1054704" d="M383.879,70.424c-.965,2.586-2.694,4.328-3.863,3.892s-1.333-2.885-.368-5.471,2.694-4.328,3.862-3.892,1.334,2.885.369,5.471" fill="#703a35"/>
              <path id="Trazado_1054705" data-name="Trazado 1054705" d="M418.721,81.568c-.965,2.586-2.694,4.328-3.863,3.892s-1.333-2.885-.368-5.471,2.694-4.328,3.862-3.892,1.334,2.885.369,5.471" fill="#703a35"/>
              <path id="Trazado_1054706" data-name="Trazado 1054706" d="M391.162,61.734c-1.384,1.211-4.539-.13-7.046-3s-3.417-6.17-2.033-7.381,4.539.13,7.046,2.995,3.417,6.17,2.033,7.381" fill="#703a35"/>
              <path id="Trazado_1054707" data-name="Trazado 1054707" d="M429.3,63.937c.419,1.791-2.246,3.946-5.953,4.814s-7.052.12-7.471-1.671,2.246-3.946,5.953-4.814,7.052-.12,7.471,1.671" fill="#703a35"/>
              <path id="Trazado_1054708" data-name="Trazado 1054708" d="M402.04,73.975a20.8,20.8,0,0,0-6.319-1.864c-1.192-.157-3.334-.513-4.091.78-.692,1.18.772,3.214,1.388,4.116a10.944,10.944,0,0,0,4.445,3.636c.58.272,1.088-.59.5-.863a10.567,10.567,0,0,1-4.949-4.7c-1.477-2.759,2.646-2,3.967-1.773a17.6,17.6,0,0,1,4.55,1.532c.579.277,1.087-.586.505-.863" fill="#703a35"/>
              <path id="Trazado_1054709" data-name="Trazado 1054709" d="M400.456,80.307l1.474-.632c.592-.253.082-1.114-.5-.863l-1.475.631c-.591.254-.081,1.115.505.864" fill="#703a35"/>
              <path id="Trazado_1054710" data-name="Trazado 1054710" d="M455.1,88.044c-10.253.528-18.81,12.764-12.707,22.042.493.751,1.706.051,1.209-.706-5.506-8.369,2.259-19.461,11.5-19.936.9-.046.9-1.447,0-1.4" fill="#703a35"/>
              <path id="Trazado_1054711" data-name="Trazado 1054711" d="M443.913,95.476a5.836,5.836,0,0,1,3.835,9.676c-.583.682.4,1.678.989.99a7.226,7.226,0,0,0-4.452-12.016c-.882-.12-1.263,1.229-.372,1.35" fill="#703a35"/>
              <path id="Trazado_1054712" data-name="Trazado 1054712" d="M441.618,54.336q-.287-.325-.576-.647c-12.433-13.789-31.916-20.134-49.666-13.5a42.009,42.009,0,0,0-12.892,7.728,59.845,59.845,0,0,0,44.424,3.856,27.7,27.7,0,0,0,6.017,21.29,25.745,25.745,0,0,0,20.018,9.172c.033,0,.066,0,.1-.006,1.178-9.844-.846-20.406-7.424-27.894" fill="#6d2c4a"/>
              <path id="Trazado_1054713" data-name="Trazado 1054713" d="M435.414,78.7c.121-.154-1.674-1.5-4.014-4.2a32.67,32.67,0,0,1-7.85-25.752c.438-3.542,1.174-5.665.988-5.726-.112-.048-1.134,2-1.8,5.6A30.391,30.391,0,0,0,430.8,75.049c2.561,2.625,4.55,3.753,4.616,3.65" fill="#471e35"/>
              <path id="Trazado_1054714" data-name="Trazado 1054714" d="M441.81,74.78c.117-.151-1.313-1.323-3.316-3.487a41.2,41.2,0,0,1-3.258-4.01A43.6,43.6,0,0,1,432,61.867,43.514,43.514,0,0,1,429.671,56a41.344,41.344,0,0,1-1.2-5.024c-.5-2.907-.557-4.755-.748-4.754-.128-.005-.36,1.858-.06,4.866a32.047,32.047,0,0,0,.986,5.211,37.206,37.206,0,0,0,2.313,6.078,37.186,37.186,0,0,0,3.415,5.534,32.1,32.1,0,0,0,3.534,3.954c2.205,2.069,3.825,3.018,3.9,2.914" fill="#471e35"/>
              <path id="Trazado_1054715" data-name="Trazado 1054715" d="M445.2,76.212c.137,0,.286-1.652-.176-4.271a31.935,31.935,0,0,0-3.584-9.669,59.42,59.42,0,0,0-5.811-8.468c-1.654-2.033-2.761-3.216-2.885-3.122s.751,1.462,2.23,3.61,3.545,5.09,5.454,8.537a40.351,40.351,0,0,1,3.8,9.287c.65,2.494.793,4.106.974,4.1" fill="#471e35"/>
              <path id="Trazado_1054716" data-name="Trazado 1054716" d="M418.37,48.263c-.018-.168-1.775-.1-4.6-.012a102.306,102.306,0,0,1-11-.168c-2.136-.174-4.158-.449-5.985-.768-1.82-.346-3.451-.717-4.8-1.111-2.7-.764-4.331-1.423-4.408-1.255-.059.121,1.462,1.051,4.159,2.034a37.565,37.565,0,0,0,4.843,1.375,49.879,49.879,0,0,0,6.1.876,62.8,62.8,0,0,0,11.147-.169c2.834-.3,4.562-.651,4.546-.8" fill="#471e35"/>
              <path id="Trazado_1054717" data-name="Trazado 1054717" d="M422.487,44.271c.013-.162-1.151-.388-3.027-.678S415,42.937,412.2,42.331a43.317,43.317,0,0,1-7-2.123c-1.739-.7-2.788-1.239-2.882-1.09-.078.119.83.911,2.536,1.83a27.7,27.7,0,0,0,7.1,2.512,45.5,45.5,0,0,0,7.431.946c1.911.083,3.1.02,3.108-.135" fill="#471e35"/>
              <path id="Trazado_1054718" data-name="Trazado 1054718" d="M54.031,64.559a22.938,22.938,0,0,0-18.106-15,21.544,21.544,0,0,0,20.962,14.02" fill="#efb75e"/>
              <path id="Trazado_1054719" data-name="Trazado 1054719" d="M54.307,63.875A46.593,46.593,0,0,1,52.864,52.54c.144-3.817,1.329-7.733,4.007-10.456A12.956,12.956,0,0,1,59.5,49.966a22.761,22.761,0,0,1-1.619,8.256,36.868,36.868,0,0,1-3.2,6.536" fill="#efb75e"/>
              <path id="Trazado_1054720" data-name="Trazado 1054720" d="M119.166,114.1a75.941,75.941,0,0,1,19.761-10.116c6.4-2.165,13.334-3.467,19.915-1.934,3.624.844,8.67,2.924,10.853,6.133,3.161,4.646-1.081,13.684-2.492,18.51-1.387,4.746-2.545,9.715-1.785,14.6a23.787,23.787,0,0,0,4.214,10.869c.819,1.092,2.063,2.205,3.376,1.832.538-2.859-.674-5.982-.915-8.84-.56-6.647-1.13-12.607,2.819-18.463a36.535,36.535,0,0,0,.5,14.114,31.37,31.37,0,0,0,2.858,7.7,11.328,11.328,0,0,0,3.082,3.58c.223.159,3.86,1.711,3.711.693-.725-4.952-3.458-9.428-3.741-14.391s-.383-9.5,1.269-14.291c-1.21,3.509.17,7.593,1.1,11.007,1.1,4.045,2.645,8.065,5.415,11.276a7.012,7.012,0,0,0,4.044,2.638,1.962,1.962,0,0,0,1.4-.225c.964-.665.571-2.156.058-3.208a80.345,80.345,0,0,1-4.751-10.444c-1.17-3.645-1.557-7.692-.171-11.261-.6,1.553.743,5,1.271,6.481a23.437,23.437,0,0,0,3.254,6.085,22.924,22.924,0,0,0,4.885,4.865c.861.629,5.082,3.265,4.3.072-.831-3.392-3.4-5.733-5.039-8.692-1.673-3.027-.918-5.892-.059-9.157,1.431-5.436,3.806-11.74,3.08-17.454a69.786,69.786,0,0,0-3.357-14.543,44.165,44.165,0,0,0-19.679-23.187c-10.58-6.073-23.487-7.3-35.386-5.5A86.017,86.017,0,0,0,98.379,83.958c5.543,11.063,12.827,20.683,20.787,30.137" fill="#ed9170"/>
              <path id="Trazado_1054721" data-name="Trazado 1054721" d="M148.755,86.2c-3.268-10.472-8.87-19.3-15.094-27.952-7.559,2.077-15.088,4.415-22.03,8.082-7.063,3.729-15.29,9.762-18.845,17.154a22.052,22.052,0,0,0-1.113,14.949,36.4,36.4,0,0,0,7.107,13.42c2.243,2.805,4.86,5.451,8.163,6.859,6.179,2.631,13.257.438,19.542-1.929,4.8-1.6,9.322-4.084,14.126-5.643a101.4,101.4,0,0,1,11.509-2.594A77.408,77.408,0,0,0,148.755,86.2" fill="#591a37"/>
              <path id="Trazado_1054722" data-name="Trazado 1054722" d="M147.091,109.527a114.428,114.428,0,0,0-18.3-49.884q-.742.222-1.483.45a113.078,113.078,0,0,1,18.307,49.748c.493-.107.985-.214,1.48-.314" fill="#a53d71"/>
              <path id="Trazado_1054723" data-name="Trazado 1054723" d="M12.969,110.71c-2.363-11.409-.651-24.445,7.172-33.349q.3-.343.606-.681C33.833,62.166,54.342,55.487,73.024,62.471A44.561,44.561,0,0,1,96.432,82.9c8.825,16.414,13.551,36.308.956,52.144-14.212,17.868-41.927,22.882-61.561,11.492C23.865,139.6,17.422,126.8,13.78,114.014q-.462-1.623-.811-3.3" fill="#ed9170"/>
              <path id="Trazado_1054724" data-name="Trazado 1054724" d="M48.763,164.511q14.7,14.023,28.551,28.9c8.466,9.1,15.922,20.271,26.079,27.369,4.484,3.134,9.24,5.966,13.091,9.851s6.773,9.1,6.47,14.559a2.538,2.538,0,0,1-.8,2.009c-1.339.951-2.872-.863-3.637-2.316-2.393-4.543-4.588-8.322-9.695-10.232a27.993,27.993,0,0,1,.5,12.893c-.365,1.9-7.929,17.093-9.977,12.465a3.722,3.722,0,0,1,.195-2.621c1.457-4.432,2.735-8.818,3.751-13.365.482-2.158.329-4.659-1.21-6.247a94.3,94.3,0,0,1-4.769,11.871c-1.527,3.134-4.171,6.529-7.566,7.77-2.641.967-4.544.14-2.792-2.849,3.259-5.559,8.3-10.842,5.7-17.964a27.1,27.1,0,0,1-8.081,13.9,9.487,9.487,0,0,1-4.128,2.468,2.179,2.179,0,0,1-1.462-.072,1.819,1.819,0,0,1-.8-1.953,5.317,5.317,0,0,1,1-2.008,75.847,75.847,0,0,0,6.786-11.072,1.59,1.59,0,0,0,.094-1.585,1.364,1.364,0,0,0-.9-.443c-2.016-.318-3.283,1.155-5.088,1.436-1.91.3-4.508-.783-6.275-1.452-6.747-2.554-12.13-9.276-16.693-14.588Q42.206,203.9,29.04,185.16" fill="#ed9170"/>
              <path id="Trazado_1054725" data-name="Trazado 1054725" d="M26.429,157.143c10.361-6.67,21.58.836,29.647,7.908q10,8.771,19.294,18.316c-4.582,7.961-11.1,15.156-17.358,21.237a76.839,76.839,0,0,1-15.268,11.828c-2.955-2.185-5.956-4.321-8.689-6.772a78.581,78.581,0,0,1-7.865-8.426c-4.451-5.362-8.732-11.142-10.475-17.889-2.527-9.779,2.351-20.816,10.714-26.2" fill="#591a37"/>
              <path id="Trazado_1054726" data-name="Trazado 1054726" d="M70.344,178.324a104.79,104.79,0,0,1-34.456,32.9c-.36-.3-.711-.6-1.064-.906A103.521,103.521,0,0,0,69.392,177.4c.316.308.637.612.952.922" fill="#a53d71"/>
              <path id="Trazado_1054727" data-name="Trazado 1054727" d="M73.025,62.471c-18.683-6.983-39.191-.305-52.277,14.209q-.306.339-.607.681c-7.822,8.9-9.535,21.941-7.171,33.349.091.443.216.87.32,1.307,18.962-5.44,35.084-20.513,41.279-39.306,1.457,3.409,4.635,5.774,7.924,7.484A38.683,38.683,0,0,0,95.468,81.2,44.608,44.608,0,0,0,73.025,62.471" fill="#efb75e"/>
              <path id="Trazado_1054728" data-name="Trazado 1054728" d="M13.495,113.123a17.772,17.772,0,0,0-3.736,33.12c6.655,3.357,19.519,1.922,23.244-5.45" fill="#ed9170"/>
              <path id="Trazado_1054729" data-name="Trazado 1054729" d="M48.082,121.171a23.116,23.116,0,0,0,.6,2.33c3.382,10.718,13.808,16.981,23.287,13.99,9.384-2.962,14.317-13.882,11.134-24.5-11.722,2.532-23.423,5.147-35.021,8.18" fill="#6d2c4a"/>
              <path id="Trazado_1054730" data-name="Trazado 1054730" d="M62.49,125.422a17.928,17.928,0,0,0-7.262,8.167c4.692,4.068,10.9,5.747,16.741,3.9a17.15,17.15,0,0,0,10.825-10.726,18.013,18.013,0,0,0-20.3-1.343" fill="#a53d71"/>
              <path id="Trazado_1054731" data-name="Trazado 1054731" d="M56.638,63.629c-.2-.025-.536,2.335-1.526,6.02A59.564,59.564,0,0,1,53.008,76a62.92,62.92,0,0,1-3.543,7.366A63.173,63.173,0,0,1,44.9,90.144a59.985,59.985,0,0,1-4.413,5.025c-2.677,2.717-4.545,4.2-4.421,4.359.074.108,2.139-1.136,5.018-3.741a47.252,47.252,0,0,0,4.691-4.944,54.231,54.231,0,0,0,4.743-6.877A54.474,54.474,0,0,0,54.055,76.4a47.352,47.352,0,0,0,1.893-6.546c.791-3.8.82-6.212.69-6.222" fill="#d8993f"/>
              <path id="Trazado_1054732" data-name="Trazado 1054732" d="M18.663,103.937a5.934,5.934,0,0,0,1.809-.68,20.908,20.908,0,0,0,2.023-1.011c.769-.429,1.668-.887,2.593-1.5.943-.59,1.969-1.248,3.014-2.036,1.079-.744,2.148-1.646,3.289-2.578a60.52,60.52,0,0,0,6.732-6.809,60.7,60.7,0,0,0,5.469-7.859c.708-1.292,1.4-2.508,1.935-3.7.585-1.171,1.046-2.3,1.453-3.335.438-1.021.725-1.988,1.007-2.823a20.9,20.9,0,0,0,.626-2.173,5.938,5.938,0,0,0,.338-1.9c-.2-.058-.975,2.566-2.763,6.565-.452,1-.949,2.088-1.563,3.22-.564,1.156-1.278,2.331-2,3.583a68.461,68.461,0,0,1-5.439,7.651,68.3,68.3,0,0,1-6.533,6.742c-1.1.937-2.125,1.852-3.159,2.617-1,.81-1.982,1.5-2.881,2.124-3.607,2.487-6.046,3.725-5.952,3.913" fill="#d8993f"/>
              <path id="Trazado_1054733" data-name="Trazado 1054733" d="M24.857,84.074c.165.268,4.715-2.362,9.473-6.719,4.776-4.338,7.812-8.627,7.56-8.817-.276-.224-3.685,3.656-8.379,7.919-4.675,4.283-8.853,7.321-8.654,7.617" fill="#d8993f"/>
              <path id="Trazado_1054734" data-name="Trazado 1054734" d="M89.108,75.657c-.033-.184-1.739.031-4.487.111a47.352,47.352,0,0,1-10.641-.927,43.509,43.509,0,0,1-10.1-3.394c-2.442-1.212-3.574-2.522-3.715-2.4-.132.072.831,1.669,3.3,3.148a34.239,34.239,0,0,0,10.277,3.834,36.554,36.554,0,0,0,10.941.6c2.8-.305,4.461-.823,4.432-.969" fill="#d8993f"/>
              <path id="Trazado_1054735" data-name="Trazado 1054735" d="M81.6,71.068c.04-.165-.827-.523-2.245-.992s-3.384-1.056-5.493-1.822a37.309,37.309,0,0,1-5.216-2.341c-1.285-.706-2.063-1.211-2.181-1.073-.1.115.492.866,1.714,1.794A20.414,20.414,0,0,0,73.446,69.4a34.761,34.761,0,0,0,5.7,1.514c1.482.258,2.417.319,2.456.158" fill="#d8993f"/>
              <path id="Trazado_1054736" data-name="Trazado 1054736" d="M79.306,100.627c1.019,2.764,2.847,4.627,4.081,4.16s1.409-3.084.39-5.848-2.847-4.626-4.081-4.16-1.409,3.084-.39,5.848" fill="#703a35"/>
              <path id="Trazado_1054737" data-name="Trazado 1054737" d="M42.491,112.539c1.018,2.764,2.846,4.627,4.08,4.16s1.409-3.084.39-5.848-2.847-4.627-4.08-4.16-1.409,3.084-.39,5.848" fill="#703a35"/>
              <path id="Trazado_1054738" data-name="Trazado 1054738" d="M71.611,91.337c1.463,1.3,4.8-.139,7.445-3.2s3.611-6.6,2.148-7.89-4.8.139-7.445,3.2-3.611,6.6-2.148,7.89" fill="#703a35"/>
              <path id="Trazado_1054739" data-name="Trazado 1054739" d="M32.668,96.119c-.443,1.914,2.373,4.219,6.29,5.146s7.452.128,7.9-1.786-2.374-4.219-6.29-5.146-7.452-.128-7.9,1.786" fill="#703a35"/>
              <path id="Trazado_1054740" data-name="Trazado 1054740" d="M60.651,105.343c.832-.4,10.17-3.584,9.409-.7-.709,2.684-3.248,4.853-5.642,5.988-.619.294-.079,1.21.536.918a11.575,11.575,0,0,0,4.342-3.414c.9-1.2,2.319-3.132,1.876-4.742-.382-1.388-2.668-1.079-3.635-1.028a19.593,19.593,0,0,0-7.422,2.061c-.618.3-.078,1.214.536.918" fill="#703a35"/>
              <path id="Trazado_1054741" data-name="Trazado 1054741" d="M62.325,110.271l-1.558-.675c-.622-.27-1.164.645-.536.917l1.558.676c.622.269,1.163-.646.536-.918" fill="#703a35"/>
              <path id="Trazado_1054742" data-name="Trazado 1054742" d="M9.71,121.629c9.73-2.158,18.4,9.432,17.7,18.266-.074.947,1.4.941,1.474,0,.781-9.872-8.946-22.042-19.57-19.687-.927.206-.534,1.627.392,1.421" fill="#703a35"/>
              <path id="Trazado_1054743" data-name="Trazado 1054743" d="M21.478,124.148A9.671,9.671,0,0,0,20.2,139.76c.706.632,1.752-.407,1.042-1.042a8.19,8.19,0,0,1,.984-13.3c.8-.514.057-1.79-.744-1.273" fill="#703a35"/>
            </g>
          </g>
        </g>
      </g>
      <g id="Grupo_1210411" data-name="Grupo 1210411" transform="translate(-91.184 216.566)">
        <path id="Trazado_1043524" data-name="Trazado 1043524" d="M-118.277,11296.4l41.077-64.468h23.387" transform="translate(1104.358 -5899.001)" fill="none" stroke="#aa52f9" stroke-width="2"/>
        <g id="Grupo_1181474" data-name="Grupo 1181474" transform="translate(980.184 5390.638)">
          <path id="Trazado_1043527" data-name="Trazado 1043527" d="M6.361,0a6.361,6.361,0,1,0,6.361,6.361A6.361,6.361,0,0,0,6.361,0Z" transform="translate(0)" fill="#7c6ea2"/>
          <g id="Grupo_1181473" data-name="Grupo 1181473" transform="matrix(-0.998, -0.07, 0.07, -0.998, 11.122, 11.838)">
            <g id="Elipse_12494" data-name="Elipse 12494" transform="translate(0.131 0.131)" fill="#ebd5ff" stroke="#48396f" stroke-width="1">
              <circle cx="5" cy="5" r="5" stroke="none"/>
              <circle cx="5" cy="5" r="4.5" fill="none"/>
            </g>
            <g id="Trazado_1043525" data-name="Trazado 1043525" transform="translate(0 0)" fill="#ebd5ff">
              <path d="M 5.130859375 9.761719703674316 C 2.577399492263794 9.761719703674316 0.4999993741512299 7.684319496154785 0.4999993741512299 5.130859375 C 0.4999993741512299 2.577399492263794 2.577399492263794 0.4999993741512299 5.130859375 0.4999993741512299 C 7.684319496154785 0.4999993741512299 9.761719703674316 2.577399492263794 9.761719703674316 5.130859375 C 9.761719703674316 7.684319496154785 7.684319496154785 9.761719703674316 5.130859375 9.761719703674316 Z" stroke="none"/>
              <path d="M 5.130859375 9.261719703674316 C 7.408619403839111 9.261719703674316 9.261719703674316 7.408619403839111 9.261719703674316 5.130859375 C 9.261719703674316 2.853099346160889 7.408619403839111 0.9999994039535522 5.130859375 0.9999994039535522 C 2.853099346160889 0.9999994039535522 0.9999994039535522 2.853099346160889 0.9999994039535522 5.130859375 C 0.9999994039535522 7.408619403839111 2.853099346160889 9.261719703674316 5.130859375 9.261719703674316 M 5.130859375 10.26171970367432 C 2.297159433364868 10.26171970367432 -6.24999984211172e-07 7.964559555053711 -6.24999984211172e-07 5.130859375 C -6.24999984211172e-07 2.297159433364868 2.297159433364868 -6.24999984211172e-07 5.130859375 -6.24999984211172e-07 C 7.964559555053711 -6.24999984211172e-07 10.26171970367432 2.297159433364868 10.26171970367432 5.130859375 C 10.26171970367432 7.964559555053711 7.964559555053711 10.26171970367432 5.130859375 10.26171970367432 Z" stroke="none" fill="#48396f"/>
            </g>
            <g id="Trazado_1043526" data-name="Trazado 1043526" transform="translate(0 0)" fill="#ebd5ff">
              <path d="M 5.130859375 9.761719703674316 C 2.577399492263794 9.761719703674316 0.4999993741512299 7.684319496154785 0.4999993741512299 5.130859375 C 0.4999993741512299 2.577399492263794 2.577399492263794 0.4999993741512299 5.130859375 0.4999993741512299 C 7.684319496154785 0.4999993741512299 9.761719703674316 2.577399492263794 9.761719703674316 5.130859375 C 9.761719703674316 7.684319496154785 7.684319496154785 9.761719703674316 5.130859375 9.761719703674316 Z" stroke="none"/>
              <path d="M 5.130859375 9.261719703674316 C 7.408619403839111 9.261719703674316 9.261719703674316 7.408619403839111 9.261719703674316 5.130859375 C 9.261719703674316 2.853099346160889 7.408619403839111 0.9999994039535522 5.130859375 0.9999994039535522 C 2.853099346160889 0.9999994039535522 0.9999994039535522 2.853099346160889 0.9999994039535522 5.130859375 C 0.9999994039535522 7.408619403839111 2.853099346160889 9.261719703674316 5.130859375 9.261719703674316 M 5.130859375 10.26171970367432 C 2.297159433364868 10.26171970367432 -6.24999984211172e-07 7.964559555053711 -6.24999984211172e-07 5.130859375 C -6.24999984211172e-07 2.297159433364868 2.297159433364868 -6.24999984211172e-07 5.130859375 -6.24999984211172e-07 C 7.964559555053711 -6.24999984211172e-07 10.26171970367432 2.297159433364868 10.26171970367432 5.130859375 C 10.26171970367432 7.964559555053711 7.964559555053711 10.26171970367432 5.130859375 10.26171970367432 Z" stroke="none" fill="#48396f"/>
            </g>
          </g>
        </g>
        <g id="Rectángulo_417959" data-name="Rectángulo 417959" transform="translate(1050.546 5312.999)" fill="#fff" stroke="#aa52f9" stroke-width="2">
          <rect width="288" height="40" rx="20" stroke="none"/>
          <rect x="1" y="1" width="286" height="38" rx="19" fill="none"/>
        </g>
        <g id="Elipse_12493" data-name="Elipse 12493" transform="translate(1303.546 5302.999)" fill="#fff" stroke="#aa52f9" stroke-width="2">
          <circle cx="30" cy="30" r="30" stroke="none"/>
          <circle cx="30" cy="30" r="29" fill="none"/>
        </g>
        <path id="Trazado_1055027" data-name="Trazado 1055027" d="M1.652,0V-12.6h3.48q6.662,0,6.662,6.144a6.191,6.191,0,0,1-1.85,4.689A6.863,6.863,0,0,1,4.992,0ZM3.129-11.268v9.932H5.01A5.338,5.338,0,0,0,8.868-2.663a4.975,4.975,0,0,0,1.38-3.762q0-4.843-5.15-4.843Zm11.691-.018a.913.913,0,0,1-.659-.264.89.89,0,0,1-.272-.668.9.9,0,0,1,.272-.672.905.905,0,0,1,.659-.268.931.931,0,0,1,.672.268.9.9,0,0,1,.277.672.891.891,0,0,1-.277.659A.923.923,0,0,1,14.82-11.285ZM15.523,0H14.082V-9h1.441ZM22.89-12.059a1.92,1.92,0,0,0-.958-.237q-1.512,0-1.512,1.907V-9H22.53v1.23H20.421V0H18.988V-7.77H17.45V-9h1.538v-1.459a3.032,3.032,0,0,1,.817-2.237,2.759,2.759,0,0,1,2.039-.822,2.824,2.824,0,0,1,1.046.158Zm1.927.773a.913.913,0,0,1-.659-.264.89.89,0,0,1-.272-.668.9.9,0,0,1,.272-.672.905.905,0,0,1,.659-.268.931.931,0,0,1,.672.268.9.9,0,0,1,.277.672.891.891,0,0,1-.277.659A.923.923,0,0,1,24.817-11.285ZM25.52,0H24.079V-9H25.52Zm9.055-.413a4.684,4.684,0,0,1-2.461.624,4.074,4.074,0,0,1-3.107-1.252,4.539,4.539,0,0,1-1.182-3.248A4.99,4.99,0,0,1,29.1-7.862a4.458,4.458,0,0,1,3.4-1.349,4.735,4.735,0,0,1,2.092.439v1.477A3.665,3.665,0,0,0,32.448-8a2.9,2.9,0,0,0-2.263.989,3.752,3.752,0,0,0-.883,2.6,3.573,3.573,0,0,0,.831,2.5A2.863,2.863,0,0,0,32.36-1a3.613,3.613,0,0,0,2.215-.782ZM44.033,0H42.592V-1.424h-.035A2.96,2.96,0,0,1,39.78.211q-3.217,0-3.217-3.832V-9H38v5.15Q38-1,40.175-1a2.205,2.205,0,0,0,1.736-.778,2.976,2.976,0,0,0,.681-2.035V-9h1.441Zm4.352,0H46.944V-13.324h1.441ZM55.48-.088a2.779,2.779,0,0,1-1.345.281q-2.364,0-2.364-2.637V-7.77H50.225V-9h1.547v-2.2l1.441-.466V-9H55.48v1.23H53.213V-2.7a2.1,2.1,0,0,0,.308,1.292,1.228,1.228,0,0,0,1.02.387,1.515,1.515,0,0,0,.94-.3ZM63.849,0H62.408V-1.406h-.035A3.018,3.018,0,0,1,59.6.211,2.959,2.959,0,0,1,57.5-.5a2.466,2.466,0,0,1-.76-1.89q0-2.522,2.971-2.936l2.7-.378Q62.408-8,60.553-8a4.431,4.431,0,0,0-2.936,1.107V-8.367a5.577,5.577,0,0,1,3.059-.844q3.173,0,3.173,3.357ZM62.408-4.553l-2.171.3a3.525,3.525,0,0,0-1.512.5,1.432,1.432,0,0,0-.51,1.261,1.374,1.374,0,0,0,.47,1.077A1.817,1.817,0,0,0,59.938-1a2.314,2.314,0,0,0,1.771-.751,2.685,2.685,0,0,0,.7-1.9ZM74.249,0H72.807V-1.529h-.035A3.327,3.327,0,0,1,69.678.211,3.362,3.362,0,0,1,66.967-1a4.958,4.958,0,0,1-1.015-3.292,5.394,5.394,0,0,1,1.125-3.577,3.71,3.71,0,0,1,3-1.345,2.885,2.885,0,0,1,2.7,1.459h.035v-5.572h1.441ZM72.807-4.069V-5.4a2.575,2.575,0,0,0-.721-1.846A2.417,2.417,0,0,0,70.258-8a2.489,2.489,0,0,0-2.074.967,4.237,4.237,0,0,0-.756,2.672A3.81,3.81,0,0,0,68.153-1.9,2.37,2.37,0,0,0,70.1-1a2.462,2.462,0,0,0,1.956-.87A3.242,3.242,0,0,0,72.807-4.069ZM84.4-4.14H78.047a3.366,3.366,0,0,0,.809,2.32A2.788,2.788,0,0,0,80.983-1a4.422,4.422,0,0,0,2.795-1V-.65A5.224,5.224,0,0,1,80.64.211a3.8,3.8,0,0,1-3-1.226,5.018,5.018,0,0,1-1.09-3.45,4.921,4.921,0,0,1,1.191-3.423A3.819,3.819,0,0,1,80.7-9.211a3.384,3.384,0,0,1,2.733,1.143A4.764,4.764,0,0,1,84.4-4.9ZM82.925-5.361a2.933,2.933,0,0,0-.6-1.942A2.051,2.051,0,0,0,80.675-8a2.328,2.328,0,0,0-1.731.729,3.311,3.311,0,0,0-.879,1.907ZM86.038-.325V-1.872A4.266,4.266,0,0,0,88.631-1q1.9,0,1.9-1.266a1.1,1.1,0,0,0-.163-.611,1.62,1.62,0,0,0-.439-.444,3.383,3.383,0,0,0-.65-.347q-.374-.154-.8-.321a10.357,10.357,0,0,1-1.05-.479,3.173,3.173,0,0,1-.756-.545,2.028,2.028,0,0,1-.457-.69,2.441,2.441,0,0,1-.154-.905,2.15,2.15,0,0,1,.29-1.121,2.572,2.572,0,0,1,.773-.817,3.607,3.607,0,0,1,1.1-.5A4.893,4.893,0,0,1,89.5-9.211a5.164,5.164,0,0,1,2.092.4v1.459A4.077,4.077,0,0,0,89.308-8a2.671,2.671,0,0,0-.729.092,1.786,1.786,0,0,0-.558.259,1.2,1.2,0,0,0-.36.4,1.053,1.053,0,0,0-.127.514,1.233,1.233,0,0,0,.127.589,1.3,1.3,0,0,0,.374.422,2.855,2.855,0,0,0,.6.334q.352.149.8.325a11.131,11.131,0,0,1,1.072.47,3.678,3.678,0,0,1,.809.545,2.129,2.129,0,0,1,.514.7,2.254,2.254,0,0,1,.18.94,2.217,2.217,0,0,1-.294,1.16,2.523,2.523,0,0,1-.787.817,3.6,3.6,0,0,1-1.134.483,5.6,5.6,0,0,1-1.345.158A5.106,5.106,0,0,1,86.038-.325Zm20.8.325H105.4V-1.529h-.035a3.327,3.327,0,0,1-3.094,1.74A3.362,3.362,0,0,1,99.555-1,4.958,4.958,0,0,1,98.54-4.289a5.394,5.394,0,0,1,1.125-3.577,3.71,3.71,0,0,1,3-1.345,2.885,2.885,0,0,1,2.7,1.459h.035v-5.572h1.441ZM105.4-4.069V-5.4a2.575,2.575,0,0,0-.721-1.846A2.417,2.417,0,0,0,102.847-8a2.489,2.489,0,0,0-2.074.967,4.237,4.237,0,0,0-.756,2.672,3.81,3.81,0,0,0,.725,2.457,2.37,2.37,0,0,0,1.947.9,2.462,2.462,0,0,0,1.956-.87A3.242,3.242,0,0,0,105.4-4.069Zm11.595-.07h-6.354a3.366,3.366,0,0,0,.809,2.32A2.788,2.788,0,0,0,113.571-1a4.422,4.422,0,0,0,2.795-1V-.65a5.224,5.224,0,0,1-3.138.861,3.8,3.8,0,0,1-3-1.226,5.018,5.018,0,0,1-1.09-3.45,4.921,4.921,0,0,1,1.191-3.423,3.819,3.819,0,0,1,2.958-1.323,3.384,3.384,0,0,1,2.733,1.143A4.764,4.764,0,0,1,116.99-4.9Zm-1.477-1.222a2.933,2.933,0,0,0-.6-1.942A2.051,2.051,0,0,0,113.263-8a2.328,2.328,0,0,0-1.731.729,3.311,3.311,0,0,0-.879,1.907ZM130.546,0H129.1V-1.406h-.035A3.018,3.018,0,0,1,126.3.211,2.959,2.959,0,0,1,124.2-.5a2.466,2.466,0,0,1-.76-1.89q0-2.522,2.971-2.936l2.7-.378Q129.1-8,127.25-8a4.431,4.431,0,0,0-2.936,1.107V-8.367a5.577,5.577,0,0,1,3.059-.844q3.173,0,3.173,3.357ZM129.1-4.553l-2.171.3a3.525,3.525,0,0,0-1.512.5,1.432,1.432,0,0,0-.51,1.261,1.374,1.374,0,0,0,.47,1.077A1.817,1.817,0,0,0,126.635-1a2.314,2.314,0,0,0,1.771-.751,2.685,2.685,0,0,0,.7-1.9ZM134.741-1.3h-.035V4.14h-1.441V-9h1.441v1.582h.035a3.408,3.408,0,0,1,3.111-1.793A3.3,3.3,0,0,1,140.568-8a5.005,5.005,0,0,1,.976,3.239,5.578,5.578,0,0,1-1.1,3.617A3.658,3.658,0,0,1,137.439.211,3.011,3.011,0,0,1,134.741-1.3Zm-.035-3.63v1.257a2.676,2.676,0,0,0,.725,1.894A2.408,2.408,0,0,0,137.272-1a2.413,2.413,0,0,0,2.052-1,4.6,4.6,0,0,0,.743-2.786,3.629,3.629,0,0,0-.694-2.355A2.3,2.3,0,0,0,137.492-8a2.554,2.554,0,0,0-2.021.875A3.211,3.211,0,0,0,134.705-4.931Zm13.836-2.61a1.763,1.763,0,0,0-1.09-.29,1.839,1.839,0,0,0-1.542.87,4.023,4.023,0,0,0-.62,2.373V0h-1.441V-9h1.441v1.854h.035a3.143,3.143,0,0,1,.94-1.481,2.144,2.144,0,0,1,1.415-.532,2.353,2.353,0,0,1,.861.123Zm8.8,3.4h-6.354a3.366,3.366,0,0,0,.809,2.32A2.788,2.788,0,0,0,153.922-1a4.422,4.422,0,0,0,2.795-1V-.65a5.224,5.224,0,0,1-3.138.861,3.8,3.8,0,0,1-3-1.226,5.018,5.018,0,0,1-1.09-3.45,4.921,4.921,0,0,1,1.191-3.423,3.819,3.819,0,0,1,2.958-1.323,3.384,3.384,0,0,1,2.733,1.143,4.764,4.764,0,0,1,.967,3.173Zm-1.477-1.222a2.933,2.933,0,0,0-.6-1.942A2.051,2.051,0,0,0,153.614-8a2.328,2.328,0,0,0-1.731.729A3.311,3.311,0,0,0,151-5.361ZM166.993,0h-1.441V-5.133Q165.552-8,163.46-8a2.269,2.269,0,0,0-1.789.813,3.013,3.013,0,0,0-.708,2.052V0h-1.441V-9h1.441v1.494H161a3.248,3.248,0,0,1,2.953-1.705,2.753,2.753,0,0,1,2.259.954,4.248,4.248,0,0,1,.782,2.755Zm10.4,0h-1.441V-1.529h-.035a3.327,3.327,0,0,1-3.094,1.74A3.362,3.362,0,0,1,170.111-1,4.958,4.958,0,0,1,169.1-4.289a5.394,5.394,0,0,1,1.125-3.577,3.71,3.71,0,0,1,3-1.345,2.885,2.885,0,0,1,2.7,1.459h.035v-5.572h1.441Zm-1.441-4.069V-5.4a2.575,2.575,0,0,0-.721-1.846A2.417,2.417,0,0,0,173.4-8a2.489,2.489,0,0,0-2.074.967,4.237,4.237,0,0,0-.756,2.672A3.81,3.81,0,0,0,171.3-1.9a2.37,2.37,0,0,0,1.947.9,2.462,2.462,0,0,0,1.956-.87A3.242,3.242,0,0,0,175.951-4.069Zm5.1-7.216a.913.913,0,0,1-.659-.264.89.89,0,0,1-.272-.668.9.9,0,0,1,.272-.672.905.905,0,0,1,.659-.268.931.931,0,0,1,.672.268.9.9,0,0,1,.277.672.891.891,0,0,1-.277.659A.923.923,0,0,1,181.05-11.285ZM181.753,0h-1.441V-9h1.441Zm9.2-8.587L185.622-1.23H190.9V0H183.5V-.448L188.83-7.77h-4.825V-9h6.943ZM199.256,0h-1.441V-1.406h-.035A3.018,3.018,0,0,1,195.011.211a2.959,2.959,0,0,1-2.1-.712,2.466,2.466,0,0,1-.76-1.89q0-2.522,2.971-2.936l2.7-.378Q197.815-8,195.96-8a4.431,4.431,0,0,0-2.936,1.107V-8.367a5.577,5.577,0,0,1,3.059-.844q3.173,0,3.173,3.357Zm-1.441-4.553-2.171.3a3.525,3.525,0,0,0-1.512.5,1.432,1.432,0,0,0-.51,1.261,1.374,1.374,0,0,0,.47,1.077A1.817,1.817,0,0,0,195.345-1a2.314,2.314,0,0,0,1.771-.751,2.685,2.685,0,0,0,.7-1.9Zm5.6,4.175a5.641,5.641,0,0,1-.892,3.415,2.99,2.99,0,0,1-2.553,1.2,2.71,2.71,0,0,1-1.2-.281V2.61a2.385,2.385,0,0,0,1.23.4q1.969,0,1.969-3.146V-9h1.441Zm-.7-10.907a.913.913,0,0,1-.659-.264.89.89,0,0,1-.272-.668.9.9,0,0,1,.272-.672.905.905,0,0,1,.659-.268.931.931,0,0,1,.672.268.9.9,0,0,1,.277.672.891.891,0,0,1-.277.659A.923.923,0,0,1,202.712-11.285ZM213.568-4.14h-6.354a3.366,3.366,0,0,0,.809,2.32A2.788,2.788,0,0,0,210.149-1a4.422,4.422,0,0,0,2.795-1V-.65a5.224,5.224,0,0,1-3.138.861,3.8,3.8,0,0,1-3-1.226,5.018,5.018,0,0,1-1.09-3.45,4.921,4.921,0,0,1,1.191-3.423,3.819,3.819,0,0,1,2.958-1.323A3.384,3.384,0,0,1,212.6-8.068a4.764,4.764,0,0,1,.967,3.173Zm-1.477-1.222a2.933,2.933,0,0,0-.6-1.942A2.051,2.051,0,0,0,209.842-8a2.328,2.328,0,0,0-1.731.729,3.311,3.311,0,0,0-.879,1.907Z" transform="translate(1068.546 5339.226)" fill="#212429"/>
      </g>
      <g id="Grupo_1210412" data-name="Grupo 1210412" transform="translate(458 5561.565)">
        <g id="Grupo_1210525" data-name="Grupo 1210525">
          <path id="Trazado_1043524-2" data-name="Trazado 1043524" d="M12.464,11231.931l-83.309,64.468h-47.431" transform="translate(302 -11225.967)" fill="none" stroke="#aa52f9" stroke-width="2"/>
          <g id="Grupo_1181474-2" data-name="Grupo 1181474" transform="translate(307.639)">
            <path id="Trazado_1043527-2" data-name="Trazado 1043527" d="M6.361,12.723A6.361,6.361,0,1,0,0,6.361,6.361,6.361,0,0,0,6.361,12.723Z" fill="#7c6ea2"/>
            <g id="Grupo_1181473-2" data-name="Grupo 1181473" transform="matrix(0.998, 0.07, -0.07, 0.998, 1.601, 0.885)">
              <g id="Elipse_12494-2" data-name="Elipse 12494" transform="translate(0.131 0.131)" fill="#ebd5ff" stroke="#48396f" stroke-width="1">
                <ellipse cx="5" cy="5" rx="5" ry="5" stroke="none"/>
                <ellipse cx="5" cy="5" rx="4.5" ry="4.5" fill="none"/>
              </g>
              <g id="Trazado_1043525-2" data-name="Trazado 1043525" transform="translate(0)" fill="#ebd5ff">
                <path d="M 5.130860805511475 9.761723518371582 C 2.577400922775269 9.761723518371582 0.5000008344650269 7.684323310852051 0.5000008344650269 5.130863189697266 C 0.5000008344650269 2.57740330696106 2.577400922775269 0.5000032186508179 5.130860805511475 0.5000032186508179 C 7.68432092666626 0.5000032186508179 9.761720657348633 2.57740330696106 9.761720657348633 5.130863189697266 C 9.761720657348633 7.684323310852051 7.68432092666626 9.761723518371582 5.130860805511475 9.761723518371582 Z" stroke="none"/>
                <path d="M 5.130860805511475 9.261723518371582 C 7.408620834350586 9.261723518371582 9.261720657348633 7.408623218536377 9.261720657348633 5.130863189697266 C 9.261720657348633 2.853103160858154 7.408620834350586 1.000003218650818 5.130860805511475 1.000003218650818 C 2.853100776672363 1.000003218650818 1.000000834465027 2.853103160858154 1.000000834465027 5.130863189697266 C 1.000000834465027 7.408623218536377 2.853100776672363 9.261723518371582 5.130860805511475 9.261723518371582 M 5.130860805511475 10.26172351837158 C 2.297160863876343 10.26172351837158 8.05511490398203e-07 7.964563369750977 8.05511490398203e-07 5.130863189697266 C 8.05511490398203e-07 2.297163248062134 2.297160863876343 3.189697281413828e-06 5.130860805511475 3.189697281413828e-06 C 7.964560985565186 3.189697281413828e-06 10.26172065734863 2.297163248062134 10.26172065734863 5.130863189697266 C 10.26172065734863 7.964563369750977 7.964560985565186 10.26172351837158 5.130860805511475 10.26172351837158 Z" stroke="none" fill="#48396f"/>
              </g>
              <g id="Trazado_1043526-2" data-name="Trazado 1043526" transform="translate(0)" fill="#ebd5ff">
                <path d="M 5.130860805511475 9.761723518371582 C 2.577400922775269 9.761723518371582 0.5000008344650269 7.684323310852051 0.5000008344650269 5.130863189697266 C 0.5000008344650269 2.57740330696106 2.577400922775269 0.5000032186508179 5.130860805511475 0.5000032186508179 C 7.68432092666626 0.5000032186508179 9.761720657348633 2.57740330696106 9.761720657348633 5.130863189697266 C 9.761720657348633 7.684323310852051 7.68432092666626 9.761723518371582 5.130860805511475 9.761723518371582 Z" stroke="none"/>
                <path d="M 5.130860805511475 9.261723518371582 C 7.408620834350586 9.261723518371582 9.261720657348633 7.408623218536377 9.261720657348633 5.130863189697266 C 9.261720657348633 2.853103160858154 7.408620834350586 1.000003218650818 5.130860805511475 1.000003218650818 C 2.853100776672363 1.000003218650818 1.000000834465027 2.853103160858154 1.000000834465027 5.130863189697266 C 1.000000834465027 7.408623218536377 2.853100776672363 9.261723518371582 5.130860805511475 9.261723518371582 M 5.130860805511475 10.26172351837158 C 2.297160863876343 10.26172351837158 8.05511490398203e-07 7.964563369750977 8.05511490398203e-07 5.130863189697266 C 8.05511490398203e-07 2.297163248062134 2.297160863876343 3.189697281413828e-06 5.130860805511475 3.189697281413828e-06 C 7.964560985565186 3.189697281413828e-06 10.26172065734863 2.297163248062134 10.26172065734863 5.130863189697266 C 10.26172065734863 7.964563369750977 7.964560985565186 10.26172351837158 5.130860805511475 10.26172351837158 Z" stroke="none" fill="#48396f"/>
              </g>
            </g>
          </g>
          <g id="Rectángulo_417959-2" data-name="Rectángulo 417959" transform="translate(-39 50.361)" fill="#fff" stroke="#aa52f9" stroke-width="2">
            <rect width="260" height="40" rx="20" stroke="none"/>
            <rect x="1" y="1" width="258" height="38" rx="19" fill="none"/>
          </g>
          <path id="Trazado_1055029" data-name="Trazado 1055029" d="M3.129-4.764V0H1.652V-12.6H5.115a4.571,4.571,0,0,1,3.133.984A3.515,3.515,0,0,1,9.36-8.842,3.82,3.82,0,0,1,8.125-5.906,4.718,4.718,0,0,1,4.79-4.764Zm0-6.5V-6.1H4.676a3.458,3.458,0,0,0,2.333-.7,2.474,2.474,0,0,0,.8-1.973q0-2.5-2.953-2.5ZM16.235-7.541a1.763,1.763,0,0,0-1.09-.29,1.839,1.839,0,0,0-1.542.87,4.023,4.023,0,0,0-.62,2.373V0H11.542V-9h1.441v1.854h.035a3.143,3.143,0,0,1,.94-1.481,2.144,2.144,0,0,1,1.415-.532,2.353,2.353,0,0,1,.861.123ZM21.563.211A4.175,4.175,0,0,1,18.377-1.05a4.672,4.672,0,0,1-1.191-3.344,4.867,4.867,0,0,1,1.239-3.542,4.455,4.455,0,0,1,3.349-1.274,4.037,4.037,0,0,1,3.142,1.239,4.914,4.914,0,0,1,1.129,3.437,4.835,4.835,0,0,1-1.217,3.45A4.265,4.265,0,0,1,21.563.211ZM21.669-8a2.742,2.742,0,0,0-2.2.945,3.88,3.88,0,0,0-.809,2.606,3.67,3.67,0,0,0,.817,2.522A2.778,2.778,0,0,0,21.669-1a2.635,2.635,0,0,0,2.149-.905,3.928,3.928,0,0,0,.751-2.575,4,4,0,0,0-.751-2.6A2.623,2.623,0,0,0,21.669-8Zm8.158,6.7h-.035V0H28.35V-13.324h1.441v5.906h.035a3.408,3.408,0,0,1,3.111-1.793A3.3,3.3,0,0,1,35.649-8a4.99,4.99,0,0,1,.98,3.239,5.578,5.578,0,0,1-1.1,3.617A3.658,3.658,0,0,1,32.525.211,2.96,2.96,0,0,1,29.827-1.3Zm-.035-3.63v1.257a2.676,2.676,0,0,0,.725,1.894A2.408,2.408,0,0,0,32.358-1,2.413,2.413,0,0,0,34.41-2a4.6,4.6,0,0,0,.743-2.786,3.629,3.629,0,0,0-.694-2.355A2.3,2.3,0,0,0,32.578-8a2.554,2.554,0,0,0-2.021.875A3.211,3.211,0,0,0,29.792-4.931ZM40.375,0H38.934V-13.324h1.441ZM50.529-4.14H44.174a3.366,3.366,0,0,0,.809,2.32A2.788,2.788,0,0,0,47.11-1,4.422,4.422,0,0,0,49.9-2V-.65a5.224,5.224,0,0,1-3.138.861,3.8,3.8,0,0,1-3-1.226,5.018,5.018,0,0,1-1.09-3.45,4.921,4.921,0,0,1,1.191-3.423,3.819,3.819,0,0,1,2.958-1.323,3.384,3.384,0,0,1,2.733,1.143A4.764,4.764,0,0,1,50.529-4.9ZM49.052-5.361a2.933,2.933,0,0,0-.6-1.942A2.051,2.051,0,0,0,46.8-8a2.328,2.328,0,0,0-1.731.729,3.311,3.311,0,0,0-.879,1.907ZM65.489,0H64.048V-5.168a3.9,3.9,0,0,0-.461-2.162A1.75,1.75,0,0,0,62.035-8a1.921,1.921,0,0,0-1.569.844,3.228,3.228,0,0,0-.646,2.021V0H58.379V-5.344Q58.379-8,56.331-8a1.9,1.9,0,0,0-1.564.8,3.288,3.288,0,0,0-.615,2.07V0H52.71V-9h1.441v1.424h.035a3.058,3.058,0,0,1,2.795-1.635A2.606,2.606,0,0,1,58.59-8.7a2.586,2.586,0,0,1,.94,1.349,3.212,3.212,0,0,1,2.988-1.863q2.971,0,2.971,3.665Zm9.169,0H73.217V-1.406h-.035A3.018,3.018,0,0,1,70.413.211a2.959,2.959,0,0,1-2.1-.712,2.466,2.466,0,0,1-.76-1.89q0-2.522,2.971-2.936l2.7-.378Q73.217-8,71.362-8a4.431,4.431,0,0,0-2.936,1.107V-8.367a5.577,5.577,0,0,1,3.059-.844q3.173,0,3.173,3.357ZM73.217-4.553l-2.171.3a3.525,3.525,0,0,0-1.512.5,1.432,1.432,0,0,0-.51,1.261,1.374,1.374,0,0,0,.47,1.077A1.817,1.817,0,0,0,70.747-1a2.314,2.314,0,0,0,1.771-.751,2.685,2.685,0,0,0,.7-1.9ZM76.831-.325V-1.872A4.266,4.266,0,0,0,79.424-1q1.9,0,1.9-1.266a1.1,1.1,0,0,0-.163-.611,1.62,1.62,0,0,0-.439-.444,3.383,3.383,0,0,0-.65-.347q-.374-.154-.8-.321a10.357,10.357,0,0,1-1.05-.479,3.173,3.173,0,0,1-.756-.545A2.028,2.028,0,0,1,77-5.7a2.441,2.441,0,0,1-.154-.905,2.15,2.15,0,0,1,.29-1.121,2.572,2.572,0,0,1,.773-.817,3.607,3.607,0,0,1,1.1-.5,4.893,4.893,0,0,1,1.279-.167,5.164,5.164,0,0,1,2.092.4v1.459A4.077,4.077,0,0,0,80.1-8a2.671,2.671,0,0,0-.729.092,1.786,1.786,0,0,0-.558.259,1.2,1.2,0,0,0-.36.4,1.053,1.053,0,0,0-.127.514,1.233,1.233,0,0,0,.127.589,1.3,1.3,0,0,0,.374.422,2.855,2.855,0,0,0,.6.334q.352.149.8.325a11.131,11.131,0,0,1,1.072.47,3.678,3.678,0,0,1,.809.545,2.129,2.129,0,0,1,.514.7,2.254,2.254,0,0,1,.18.94,2.217,2.217,0,0,1-.294,1.16,2.523,2.523,0,0,1-.787.817,3.6,3.6,0,0,1-1.134.483,5.6,5.6,0,0,1-1.345.158A5.106,5.106,0,0,1,76.831-.325ZM97.181-4.14H90.827a3.366,3.366,0,0,0,.809,2.32A2.788,2.788,0,0,0,93.762-1a4.422,4.422,0,0,0,2.795-1V-.65a5.224,5.224,0,0,1-3.138.861,3.8,3.8,0,0,1-3-1.226,5.018,5.018,0,0,1-1.09-3.45,4.921,4.921,0,0,1,1.191-3.423,3.819,3.819,0,0,1,2.958-1.323,3.384,3.384,0,0,1,2.733,1.143A4.764,4.764,0,0,1,97.181-4.9ZM95.7-5.361A2.933,2.933,0,0,0,95.1-7.3,2.051,2.051,0,0,0,93.455-8a2.328,2.328,0,0,0-1.731.729,3.311,3.311,0,0,0-.879,1.907ZM112.142,0H110.7V-5.168a3.9,3.9,0,0,0-.461-2.162A1.75,1.75,0,0,0,108.688-8a1.921,1.921,0,0,0-1.569.844,3.228,3.228,0,0,0-.646,2.021V0h-1.441V-5.344Q105.032-8,102.984-8a1.9,1.9,0,0,0-1.564.8,3.288,3.288,0,0,0-.615,2.07V0H99.363V-9H100.8v1.424h.035a3.058,3.058,0,0,1,2.795-1.635,2.606,2.606,0,0,1,1.608.514,2.586,2.586,0,0,1,.94,1.349,3.212,3.212,0,0,1,2.988-1.863q2.971,0,2.971,3.665Zm6.488.211a4.175,4.175,0,0,1-3.186-1.261,4.672,4.672,0,0,1-1.191-3.344,4.867,4.867,0,0,1,1.239-3.542,4.455,4.455,0,0,1,3.349-1.274,4.037,4.037,0,0,1,3.142,1.239,4.914,4.914,0,0,1,1.129,3.437,4.835,4.835,0,0,1-1.217,3.45A4.265,4.265,0,0,1,118.63.211ZM118.735-8a2.742,2.742,0,0,0-2.2.945,3.88,3.88,0,0,0-.809,2.606,3.67,3.67,0,0,0,.817,2.522A2.778,2.778,0,0,0,118.735-1a2.635,2.635,0,0,0,2.149-.905,3.928,3.928,0,0,0,.751-2.575,4,4,0,0,0-.751-2.6A2.623,2.623,0,0,0,118.735-8ZM131.552-.413a4.684,4.684,0,0,1-2.461.624,4.074,4.074,0,0,1-3.107-1.252A4.539,4.539,0,0,1,124.8-4.289a4.99,4.99,0,0,1,1.274-3.573,4.458,4.458,0,0,1,3.4-1.349,4.735,4.735,0,0,1,2.092.439v1.477a3.665,3.665,0,0,0-2.145-.7,2.9,2.9,0,0,0-2.263.989,3.752,3.752,0,0,0-.883,2.6,3.573,3.573,0,0,0,.831,2.5A2.863,2.863,0,0,0,129.337-1a3.613,3.613,0,0,0,2.215-.782Zm2.92-10.872a.913.913,0,0,1-.659-.264.89.89,0,0,1-.272-.668.9.9,0,0,1,.272-.672.905.905,0,0,1,.659-.268.931.931,0,0,1,.672.268.9.9,0,0,1,.277.672.891.891,0,0,1-.277.659A.923.923,0,0,1,134.471-11.285ZM135.175,0h-1.441V-9h1.441Zm6.681.211A4.175,4.175,0,0,1,138.67-1.05a4.672,4.672,0,0,1-1.191-3.344,4.867,4.867,0,0,1,1.239-3.542,4.455,4.455,0,0,1,3.349-1.274,4.037,4.037,0,0,1,3.142,1.239,4.914,4.914,0,0,1,1.129,3.437,4.835,4.835,0,0,1-1.217,3.45A4.265,4.265,0,0,1,141.856.211ZM141.962-8a2.742,2.742,0,0,0-2.2.945,3.88,3.88,0,0,0-.809,2.606,3.67,3.67,0,0,0,.817,2.522A2.778,2.778,0,0,0,141.962-1a2.635,2.635,0,0,0,2.149-.905,3.928,3.928,0,0,0,.751-2.575,4,4,0,0,0-.751-2.6A2.623,2.623,0,0,0,141.962-8Zm14.152,8h-1.441V-5.133Q154.672-8,152.581-8a2.269,2.269,0,0,0-1.789.813,3.013,3.013,0,0,0-.708,2.052V0h-1.441V-9h1.441v1.494h.035a3.248,3.248,0,0,1,2.953-1.705,2.753,2.753,0,0,1,2.259.954,4.248,4.248,0,0,1,.782,2.755Zm9.16,0h-1.441V-1.406H163.8A3.018,3.018,0,0,1,161.029.211a2.959,2.959,0,0,1-2.1-.712,2.466,2.466,0,0,1-.76-1.89q0-2.522,2.971-2.936l2.7-.378Q163.832-8,161.978-8a4.431,4.431,0,0,0-2.936,1.107V-8.367a5.577,5.577,0,0,1,3.059-.844q3.173,0,3.173,3.357Zm-1.441-4.553-2.171.3a3.525,3.525,0,0,0-1.512.5,1.432,1.432,0,0,0-.51,1.261,1.374,1.374,0,0,0,.47,1.077A1.817,1.817,0,0,0,161.363-1a2.314,2.314,0,0,0,1.771-.751,2.685,2.685,0,0,0,.7-1.9ZM169.433,0h-1.441V-13.324h1.441Zm10.153-4.14h-6.354a3.366,3.366,0,0,0,.809,2.32A2.788,2.788,0,0,0,176.167-1a4.422,4.422,0,0,0,2.795-1V-.65a5.224,5.224,0,0,1-3.138.861,3.8,3.8,0,0,1-3-1.226,5.018,5.018,0,0,1-1.09-3.45,4.921,4.921,0,0,1,1.191-3.423,3.819,3.819,0,0,1,2.958-1.323,3.384,3.384,0,0,1,2.733,1.143,4.764,4.764,0,0,1,.967,3.173Zm-1.477-1.222a2.933,2.933,0,0,0-.6-1.942A2.051,2.051,0,0,0,175.859-8a2.328,2.328,0,0,0-1.731.729,3.311,3.311,0,0,0-.879,1.907Zm3.113,5.036V-1.872a4.266,4.266,0,0,0,2.593.87q1.9,0,1.9-1.266a1.1,1.1,0,0,0-.163-.611,1.62,1.62,0,0,0-.439-.444,3.383,3.383,0,0,0-.65-.347q-.374-.154-.8-.321a10.357,10.357,0,0,1-1.05-.479,3.173,3.173,0,0,1-.756-.545,2.028,2.028,0,0,1-.457-.69,2.441,2.441,0,0,1-.154-.905,2.15,2.15,0,0,1,.29-1.121,2.572,2.572,0,0,1,.773-.817,3.607,3.607,0,0,1,1.1-.5,4.893,4.893,0,0,1,1.279-.167,5.164,5.164,0,0,1,2.092.4v1.459A4.077,4.077,0,0,0,184.492-8a2.671,2.671,0,0,0-.729.092,1.786,1.786,0,0,0-.558.259,1.2,1.2,0,0,0-.36.4,1.053,1.053,0,0,0-.127.514,1.233,1.233,0,0,0,.127.589,1.3,1.3,0,0,0,.374.422,2.855,2.855,0,0,0,.6.334q.352.149.8.325a11.131,11.131,0,0,1,1.072.47,3.678,3.678,0,0,1,.809.545,2.129,2.129,0,0,1,.514.7,2.254,2.254,0,0,1,.18.94,2.217,2.217,0,0,1-.294,1.16,2.523,2.523,0,0,1-.787.817,3.6,3.6,0,0,1-1.134.483,5.6,5.6,0,0,1-1.345.158A5.106,5.106,0,0,1,181.223-.325Z" transform="translate(4 77.135)" fill="#212429"/>
          <g id="Elipse_12493-2" data-name="Elipse 12493" transform="translate(-67 40.361)" fill="#fff" stroke="#aa52f9" stroke-width="2">
            <circle cx="30" cy="30" r="30" stroke="none"/>
            <circle cx="30" cy="30" r="29" fill="none"/>
          </g>
        </g>
      </g>
      <g id="Grupo_1210413" data-name="Grupo 1210413" transform="translate(376 5482.397)">
        <path id="Trazado_1043524-3" data-name="Trazado 1043524" d="M-70.591,11231.931l-30.386,25.688h-17.3" transform="translate(339.277 -11187.188)" fill="none" stroke="#aa52f9" stroke-width="2"/>
        <g id="Grupo_1181474-3" data-name="Grupo 1181474" transform="translate(262.324 40.361)">
          <path id="Trazado_1043527-3" data-name="Trazado 1043527" d="M6.361,12.723A6.361,6.361,0,1,0,0,6.361,6.361,6.361,0,0,0,6.361,12.723Z" fill="#7c6ea2"/>
          <g id="Grupo_1181473-3" data-name="Grupo 1181473" transform="matrix(0.998, 0.07, -0.07, 0.998, 1.601, 0.885)">
            <g id="Elipse_12494-3" data-name="Elipse 12494" transform="translate(0.131 0.131)" fill="#ebd5ff" stroke="#48396f" stroke-width="1">
              <ellipse cx="5" cy="5" rx="5" ry="5" stroke="none"/>
              <ellipse cx="5" cy="5" rx="4.5" ry="4.5" fill="none"/>
            </g>
            <g id="Trazado_1043525-3" data-name="Trazado 1043525" transform="translate(0)" fill="#ebd5ff">
              <path d="M 5.130860805511475 9.761723518371582 C 2.577400922775269 9.761723518371582 0.5000008344650269 7.684323310852051 0.5000008344650269 5.130863189697266 C 0.5000008344650269 2.57740330696106 2.577400922775269 0.5000032186508179 5.130860805511475 0.5000032186508179 C 7.68432092666626 0.5000032186508179 9.761720657348633 2.57740330696106 9.761720657348633 5.130863189697266 C 9.761720657348633 7.684323310852051 7.68432092666626 9.761723518371582 5.130860805511475 9.761723518371582 Z" stroke="none"/>
              <path d="M 5.130860805511475 9.261723518371582 C 7.408620834350586 9.261723518371582 9.261720657348633 7.408623218536377 9.261720657348633 5.130863189697266 C 9.261720657348633 2.853103160858154 7.408620834350586 1.000003218650818 5.130860805511475 1.000003218650818 C 2.853100776672363 1.000003218650818 1.000000834465027 2.853103160858154 1.000000834465027 5.130863189697266 C 1.000000834465027 7.408623218536377 2.853100776672363 9.261723518371582 5.130860805511475 9.261723518371582 M 5.130860805511475 10.26172351837158 C 2.297160863876343 10.26172351837158 8.05511490398203e-07 7.964563369750977 8.05511490398203e-07 5.130863189697266 C 8.05511490398203e-07 2.297163248062134 2.297160863876343 3.189697281413828e-06 5.130860805511475 3.189697281413828e-06 C 7.964560985565186 3.189697281413828e-06 10.26172065734863 2.297163248062134 10.26172065734863 5.130863189697266 C 10.26172065734863 7.964563369750977 7.964560985565186 10.26172351837158 5.130860805511475 10.26172351837158 Z" stroke="none" fill="#48396f"/>
            </g>
            <g id="Trazado_1043526-3" data-name="Trazado 1043526" transform="translate(0)" fill="#ebd5ff">
              <path d="M 5.130860805511475 9.761723518371582 C 2.577400922775269 9.761723518371582 0.5000008344650269 7.684323310852051 0.5000008344650269 5.130863189697266 C 0.5000008344650269 2.57740330696106 2.577400922775269 0.5000032186508179 5.130860805511475 0.5000032186508179 C 7.68432092666626 0.5000032186508179 9.761720657348633 2.57740330696106 9.761720657348633 5.130863189697266 C 9.761720657348633 7.684323310852051 7.68432092666626 9.761723518371582 5.130860805511475 9.761723518371582 Z" stroke="none"/>
              <path d="M 5.130860805511475 9.261723518371582 C 7.408620834350586 9.261723518371582 9.261720657348633 7.408623218536377 9.261720657348633 5.130863189697266 C 9.261720657348633 2.853103160858154 7.408620834350586 1.000003218650818 5.130860805511475 1.000003218650818 C 2.853100776672363 1.000003218650818 1.000000834465027 2.853103160858154 1.000000834465027 5.130863189697266 C 1.000000834465027 7.408623218536377 2.853100776672363 9.261723518371582 5.130860805511475 9.261723518371582 M 5.130860805511475 10.26172351837158 C 2.297160863876343 10.26172351837158 8.05511490398203e-07 7.964563369750977 8.05511490398203e-07 5.130863189697266 C 8.05511490398203e-07 2.297163248062134 2.297160863876343 3.189697281413828e-06 5.130860805511475 3.189697281413828e-06 C 7.964560985565186 3.189697281413828e-06 10.26172065734863 2.297163248062134 10.26172065734863 5.130863189697266 C 10.26172065734863 7.964563369750977 7.964560985565186 10.26172351837158 5.130860805511475 10.26172351837158 Z" stroke="none" fill="#48396f"/>
            </g>
          </g>
        </g>
        <g id="Rectángulo_417959-3" data-name="Rectángulo 417959" transform="translate(-96 50.361)" fill="#fff" stroke="#aa52f9" stroke-width="2">
          <rect width="317" height="40" rx="20" stroke="none"/>
          <rect x="1" y="1" width="315" height="38" rx="19" fill="none"/>
        </g>
        <path id="Trazado_1055028" data-name="Trazado 1055028" d="M10.688,0H8.93L6.82-3.533a7.7,7.7,0,0,0-.562-.839A3.207,3.207,0,0,0,5.7-4.939a1.933,1.933,0,0,0-.615-.321,2.53,2.53,0,0,0-.743-.1H3.129V0H1.652V-12.6H5.414a5.361,5.361,0,0,1,1.525.207,3.412,3.412,0,0,1,1.213.628,2.92,2.92,0,0,1,.8,1.05,3.483,3.483,0,0,1,.29,1.472,3.545,3.545,0,0,1-.2,1.208,3.156,3.156,0,0,1-.562.98,3.41,3.41,0,0,1-.879.734,4.487,4.487,0,0,1-1.156.47v.035A2.658,2.658,0,0,1,7-5.5a3.023,3.023,0,0,1,.444.426,5.646,5.646,0,0,1,.417.558q.207.312.461.725ZM3.129-11.268V-6.7h2a3.039,3.039,0,0,0,1.024-.167,2.37,2.37,0,0,0,.813-.479,2.172,2.172,0,0,0,.536-.765A2.56,2.56,0,0,0,7.7-9.123,1.976,1.976,0,0,0,7.044-10.7a2.813,2.813,0,0,0-1.894-.567Zm15.8,7.128H12.579a3.366,3.366,0,0,0,.809,2.32A2.788,2.788,0,0,0,15.514-1a4.422,4.422,0,0,0,2.795-1V-.65a5.224,5.224,0,0,1-3.138.861,3.8,3.8,0,0,1-3-1.226,5.018,5.018,0,0,1-1.09-3.45,4.921,4.921,0,0,1,1.191-3.423,3.819,3.819,0,0,1,2.958-1.323,3.384,3.384,0,0,1,2.733,1.143A4.764,4.764,0,0,1,18.933-4.9ZM17.457-5.361a2.933,2.933,0,0,0-.6-1.942A2.051,2.051,0,0,0,15.207-8a2.328,2.328,0,0,0-1.731.729A3.311,3.311,0,0,0,12.6-5.361ZM22.556,0H21.115V-13.324h1.441Zm9.362,0H30.477V-1.406h-.035A3.018,3.018,0,0,1,27.673.211a2.959,2.959,0,0,1-2.1-.712,2.466,2.466,0,0,1-.76-1.89q0-2.522,2.971-2.936l2.7-.378Q30.477-8,28.623-8a4.431,4.431,0,0,0-2.936,1.107V-8.367a5.577,5.577,0,0,1,3.059-.844q3.173,0,3.173,3.357ZM30.477-4.553l-2.171.3a3.525,3.525,0,0,0-1.512.5,1.432,1.432,0,0,0-.51,1.261,1.374,1.374,0,0,0,.47,1.077A1.817,1.817,0,0,0,28.007-1a2.314,2.314,0,0,0,1.771-.751,2.685,2.685,0,0,0,.7-1.9ZM40.771-.413A4.684,4.684,0,0,1,38.31.211,4.074,4.074,0,0,1,35.2-1.042a4.539,4.539,0,0,1-1.182-3.248A4.99,4.99,0,0,1,35.3-7.862a4.458,4.458,0,0,1,3.4-1.349,4.735,4.735,0,0,1,2.092.439v1.477A3.665,3.665,0,0,0,38.644-8a2.9,2.9,0,0,0-2.263.989,3.752,3.752,0,0,0-.883,2.6,3.573,3.573,0,0,0,.831,2.5A2.863,2.863,0,0,0,38.556-1a3.613,3.613,0,0,0,2.215-.782Zm2.92-10.872a.913.913,0,0,1-.659-.264.89.89,0,0,1-.272-.668.9.9,0,0,1,.272-.672.905.905,0,0,1,.659-.268.931.931,0,0,1,.672.268.9.9,0,0,1,.277.672.891.891,0,0,1-.277.659A.923.923,0,0,1,43.691-11.285ZM44.394,0H42.952V-9h1.441Zm6.681.211A4.175,4.175,0,0,1,47.889-1.05,4.672,4.672,0,0,1,46.7-4.395a4.867,4.867,0,0,1,1.239-3.542,4.455,4.455,0,0,1,3.349-1.274,4.037,4.037,0,0,1,3.142,1.239,4.914,4.914,0,0,1,1.129,3.437,4.835,4.835,0,0,1-1.217,3.45A4.265,4.265,0,0,1,51.075.211ZM51.181-8a2.742,2.742,0,0,0-2.2.945,3.88,3.88,0,0,0-.809,2.606,3.67,3.67,0,0,0,.817,2.522A2.778,2.778,0,0,0,51.181-1a2.635,2.635,0,0,0,2.149-.905,3.928,3.928,0,0,0,.751-2.575,4,4,0,0,0-.751-2.6A2.623,2.623,0,0,0,51.181-8ZM65.333,0H63.892V-5.133Q63.892-8,61.8-8a2.269,2.269,0,0,0-1.789.813A3.013,3.013,0,0,0,59.3-5.133V0H57.862V-9H59.3v1.494h.035a3.248,3.248,0,0,1,2.953-1.705,2.753,2.753,0,0,1,2.259.954A4.248,4.248,0,0,1,65.333-5.5Zm9.951-4.14H68.929a3.366,3.366,0,0,0,.809,2.32A2.788,2.788,0,0,0,71.865-1,4.422,4.422,0,0,0,74.66-2V-.65a5.224,5.224,0,0,1-3.138.861,3.8,3.8,0,0,1-3-1.226,5.018,5.018,0,0,1-1.09-3.45,4.921,4.921,0,0,1,1.191-3.423,3.819,3.819,0,0,1,2.958-1.323,3.384,3.384,0,0,1,2.733,1.143A4.764,4.764,0,0,1,75.284-4.9ZM73.807-5.361a2.933,2.933,0,0,0-.6-1.942A2.051,2.051,0,0,0,71.557-8a2.328,2.328,0,0,0-1.731.729,3.311,3.311,0,0,0-.879,1.907ZM76.92-.325V-1.872A4.266,4.266,0,0,0,79.513-1q1.9,0,1.9-1.266a1.1,1.1,0,0,0-.163-.611,1.62,1.62,0,0,0-.439-.444,3.383,3.383,0,0,0-.65-.347q-.374-.154-.8-.321a10.357,10.357,0,0,1-1.05-.479,3.173,3.173,0,0,1-.756-.545,2.028,2.028,0,0,1-.457-.69,2.441,2.441,0,0,1-.154-.905,2.15,2.15,0,0,1,.29-1.121A2.572,2.572,0,0,1,78-8.547a3.607,3.607,0,0,1,1.1-.5,4.893,4.893,0,0,1,1.279-.167,5.164,5.164,0,0,1,2.092.4v1.459A4.077,4.077,0,0,0,80.19-8a2.671,2.671,0,0,0-.729.092,1.786,1.786,0,0,0-.558.259,1.2,1.2,0,0,0-.36.4,1.053,1.053,0,0,0-.127.514,1.233,1.233,0,0,0,.127.589,1.3,1.3,0,0,0,.374.422,2.855,2.855,0,0,0,.6.334q.352.149.8.325a11.131,11.131,0,0,1,1.072.47,3.678,3.678,0,0,1,.809.545,2.129,2.129,0,0,1,.514.7,2.254,2.254,0,0,1,.18.94,2.217,2.217,0,0,1-.294,1.16,2.523,2.523,0,0,1-.787.817,3.6,3.6,0,0,1-1.134.483,5.6,5.6,0,0,1-1.345.158A5.106,5.106,0,0,1,76.92-.325Zm12.572,0V-1.872A4.266,4.266,0,0,0,92.085-1q1.9,0,1.9-1.266a1.1,1.1,0,0,0-.163-.611,1.62,1.62,0,0,0-.439-.444,3.383,3.383,0,0,0-.65-.347q-.374-.154-.8-.321a10.357,10.357,0,0,1-1.05-.479,3.173,3.173,0,0,1-.756-.545,2.028,2.028,0,0,1-.457-.69,2.441,2.441,0,0,1-.154-.905A2.15,2.15,0,0,1,89.8-7.73a2.572,2.572,0,0,1,.773-.817,3.607,3.607,0,0,1,1.1-.5,4.893,4.893,0,0,1,1.279-.167,5.164,5.164,0,0,1,2.092.4v1.459A4.077,4.077,0,0,0,92.762-8a2.671,2.671,0,0,0-.729.092,1.786,1.786,0,0,0-.558.259,1.2,1.2,0,0,0-.36.4,1.053,1.053,0,0,0-.127.514,1.233,1.233,0,0,0,.127.589,1.3,1.3,0,0,0,.374.422,2.855,2.855,0,0,0,.6.334q.352.149.8.325a11.131,11.131,0,0,1,1.072.47,3.678,3.678,0,0,1,.809.545,2.129,2.129,0,0,1,.514.7,2.254,2.254,0,0,1,.18.94,2.217,2.217,0,0,1-.294,1.16,2.523,2.523,0,0,1-.787.817,3.6,3.6,0,0,1-1.134.483A5.6,5.6,0,0,1,91.9.211,5.106,5.106,0,0,1,89.492-.325Zm11.946.536A4.175,4.175,0,0,1,98.253-1.05a4.672,4.672,0,0,1-1.191-3.344A4.867,4.867,0,0,1,98.3-7.937a4.455,4.455,0,0,1,3.349-1.274,4.037,4.037,0,0,1,3.142,1.239,4.914,4.914,0,0,1,1.129,3.437,4.835,4.835,0,0,1-1.217,3.45A4.265,4.265,0,0,1,101.439.211ZM101.544-8a2.742,2.742,0,0,0-2.2.945,3.88,3.88,0,0,0-.809,2.606,3.67,3.67,0,0,0,.817,2.522A2.778,2.778,0,0,0,101.544-1a2.635,2.635,0,0,0,2.149-.905,3.928,3.928,0,0,0,.751-2.575,4,4,0,0,0-.751-2.6A2.623,2.623,0,0,0,101.544-8ZM114.36-.413A4.684,4.684,0,0,1,111.9.211a4.074,4.074,0,0,1-3.107-1.252,4.539,4.539,0,0,1-1.182-3.248,4.99,4.99,0,0,1,1.274-3.573,4.458,4.458,0,0,1,3.4-1.349,4.735,4.735,0,0,1,2.092.439v1.477a3.665,3.665,0,0,0-2.145-.7,2.9,2.9,0,0,0-2.263.989,3.752,3.752,0,0,0-.883,2.6,3.573,3.573,0,0,0,.831,2.5A2.863,2.863,0,0,0,112.145-1a3.613,3.613,0,0,0,2.215-.782Zm2.92-10.872a.913.913,0,0,1-.659-.264.89.89,0,0,1-.272-.668.9.9,0,0,1,.272-.672.905.905,0,0,1,.659-.268.931.931,0,0,1,.672.268.9.9,0,0,1,.277.672.891.891,0,0,1-.277.659A.923.923,0,0,1,117.28-11.285ZM117.983,0h-1.441V-9h1.441Zm9.362,0H125.9V-1.406h-.035A3.018,3.018,0,0,1,123.1.211,2.959,2.959,0,0,1,121-.5a2.466,2.466,0,0,1-.76-1.89q0-2.522,2.971-2.936l2.7-.378Q125.9-8,124.049-8a4.431,4.431,0,0,0-2.936,1.107V-8.367a5.577,5.577,0,0,1,3.059-.844q3.173,0,3.173,3.357ZM125.9-4.553l-2.171.3a3.525,3.525,0,0,0-1.512.5,1.432,1.432,0,0,0-.51,1.261,1.374,1.374,0,0,0,.47,1.077A1.817,1.817,0,0,0,123.434-1a2.314,2.314,0,0,0,1.771-.751,2.685,2.685,0,0,0,.7-1.9ZM131.5,0h-1.441V-13.324H131.5Zm10.153-4.14H135.3a3.366,3.366,0,0,0,.809,2.32A2.788,2.788,0,0,0,138.239-1a4.422,4.422,0,0,0,2.795-1V-.65A5.224,5.224,0,0,1,137.9.211a3.8,3.8,0,0,1-3-1.226,5.018,5.018,0,0,1-1.09-3.45A4.921,4.921,0,0,1,135-7.888a3.819,3.819,0,0,1,2.958-1.323,3.384,3.384,0,0,1,2.733,1.143,4.764,4.764,0,0,1,.967,3.173Zm-1.477-1.222a2.933,2.933,0,0,0-.6-1.942A2.051,2.051,0,0,0,137.931-8a2.328,2.328,0,0,0-1.731.729,3.311,3.311,0,0,0-.879,1.907Zm3.113,5.036V-1.872a4.266,4.266,0,0,0,2.593.87q1.9,0,1.9-1.266a1.1,1.1,0,0,0-.163-.611,1.62,1.62,0,0,0-.439-.444,3.383,3.383,0,0,0-.65-.347q-.374-.154-.8-.321a10.357,10.357,0,0,1-1.05-.479,3.173,3.173,0,0,1-.756-.545,2.028,2.028,0,0,1-.457-.69,2.441,2.441,0,0,1-.154-.905,2.15,2.15,0,0,1,.29-1.121,2.572,2.572,0,0,1,.773-.817,3.607,3.607,0,0,1,1.1-.5,4.893,4.893,0,0,1,1.279-.167,5.164,5.164,0,0,1,2.092.4v1.459A4.077,4.077,0,0,0,146.564-8a2.671,2.671,0,0,0-.729.092,1.786,1.786,0,0,0-.558.259,1.2,1.2,0,0,0-.36.4,1.053,1.053,0,0,0-.127.514,1.233,1.233,0,0,0,.127.589,1.3,1.3,0,0,0,.374.422,2.855,2.855,0,0,0,.6.334q.352.149.8.325a11.131,11.131,0,0,1,1.072.47,3.678,3.678,0,0,1,.809.545,2.129,2.129,0,0,1,.514.7,2.254,2.254,0,0,1,.18.94,2.217,2.217,0,0,1-.294,1.16,2.523,2.523,0,0,1-.787.817,3.6,3.6,0,0,1-1.134.483A5.6,5.6,0,0,1,145.7.211,5.106,5.106,0,0,1,143.294-.325Zm19.252-.088a4.684,4.684,0,0,1-2.461.624,4.074,4.074,0,0,1-3.107-1.252A4.539,4.539,0,0,1,155.8-4.289a4.99,4.99,0,0,1,1.274-3.573,4.458,4.458,0,0,1,3.4-1.349,4.735,4.735,0,0,1,2.092.439v1.477a3.665,3.665,0,0,0-2.145-.7,2.9,2.9,0,0,0-2.263.989,3.752,3.752,0,0,0-.883,2.6,3.573,3.573,0,0,0,.831,2.5A2.863,2.863,0,0,0,160.331-1a3.613,3.613,0,0,0,2.215-.782Zm5.943.624A4.175,4.175,0,0,1,165.3-1.05a4.672,4.672,0,0,1-1.191-3.344,4.867,4.867,0,0,1,1.239-3.542A4.455,4.455,0,0,1,168.7-9.211a4.037,4.037,0,0,1,3.142,1.239,4.914,4.914,0,0,1,1.129,3.437,4.835,4.835,0,0,1-1.217,3.45A4.265,4.265,0,0,1,168.489.211ZM168.594-8a2.742,2.742,0,0,0-2.2.945,3.88,3.88,0,0,0-.809,2.606,3.67,3.67,0,0,0,.817,2.522A2.778,2.778,0,0,0,168.594-1a2.635,2.635,0,0,0,2.149-.905,3.928,3.928,0,0,0,.751-2.575,4,4,0,0,0-.751-2.6A2.623,2.623,0,0,0,168.594-8Zm14.152,8h-1.441V-5.133Q181.305-8,179.213-8a2.269,2.269,0,0,0-1.789.813,3.013,3.013,0,0,0-.708,2.052V0h-1.441V-9h1.441v1.494h.035a3.248,3.248,0,0,1,2.953-1.705,2.753,2.753,0,0,1,2.259.954,4.248,4.248,0,0,1,.782,2.755Zm7.165-12.059a1.92,1.92,0,0,0-.958-.237q-1.512,0-1.512,1.907V-9h2.109v1.23h-2.109V0h-1.433V-7.77h-1.538V-9h1.538v-1.459a3.032,3.032,0,0,1,.817-2.237,2.759,2.759,0,0,1,2.039-.822,2.824,2.824,0,0,1,1.046.158ZM192.541,0H191.1V-13.324h1.441ZM196.2-11.285a.913.913,0,0,1-.659-.264.89.89,0,0,1-.272-.668.9.9,0,0,1,.272-.672.905.905,0,0,1,.659-.268.931.931,0,0,1,.672.268.9.9,0,0,1,.277.672.891.891,0,0,1-.277.659A.923.923,0,0,1,196.2-11.285ZM196.9,0h-1.441V-9H196.9Zm9.055-.413A4.684,4.684,0,0,1,203.5.211a4.074,4.074,0,0,1-3.107-1.252,4.539,4.539,0,0,1-1.182-3.248,4.99,4.99,0,0,1,1.274-3.573,4.458,4.458,0,0,1,3.4-1.349,4.735,4.735,0,0,1,2.092.439v1.477A3.665,3.665,0,0,0,203.83-8a2.9,2.9,0,0,0-2.263.989,3.752,3.752,0,0,0-.883,2.6,3.573,3.573,0,0,0,.831,2.5A2.863,2.863,0,0,0,203.742-1a3.613,3.613,0,0,0,2.215-.782Zm6.356.325a2.779,2.779,0,0,1-1.345.281q-2.364,0-2.364-2.637V-7.77h-1.547V-9H208.6v-2.2l1.441-.466V-9h2.268v1.23h-2.268V-2.7a2.1,2.1,0,0,0,.308,1.292,1.228,1.228,0,0,0,1.02.387,1.515,1.515,0,0,0,.94-.3Zm2.665-11.2a.913.913,0,0,1-.659-.264.89.89,0,0,1-.272-.668.9.9,0,0,1,.272-.672.905.905,0,0,1,.659-.268.931.931,0,0,1,.672.268.9.9,0,0,1,.277.672.891.891,0,0,1-.277.659A.923.923,0,0,1,214.978-11.285ZM215.681,0H214.24V-9h1.441Zm9.995-9L222.09,0h-1.415l-3.41-9h1.582l2.285,6.539a5.869,5.869,0,0,1,.316,1.257h.035a5.943,5.943,0,0,1,.281-1.222L224.156-9Zm7.991,9h-1.441V-1.406h-.035A3.018,3.018,0,0,1,229.422.211a2.959,2.959,0,0,1-2.1-.712,2.466,2.466,0,0,1-.76-1.89q0-2.522,2.971-2.936l2.7-.378Q232.226-8,230.371-8a4.431,4.431,0,0,0-2.936,1.107V-8.367a5.577,5.577,0,0,1,3.059-.844q3.173,0,3.173,3.357Zm-1.441-4.553-2.171.3a3.525,3.525,0,0,0-1.512.5,1.432,1.432,0,0,0-.51,1.261,1.374,1.374,0,0,0,.47,1.077A1.817,1.817,0,0,0,229.756-1a2.314,2.314,0,0,0,1.771-.751,2.685,2.685,0,0,0,.7-1.9ZM235.84-.325V-1.872a4.266,4.266,0,0,0,2.593.87q1.9,0,1.9-1.266a1.1,1.1,0,0,0-.163-.611,1.62,1.62,0,0,0-.439-.444,3.383,3.383,0,0,0-.65-.347q-.374-.154-.8-.321a10.357,10.357,0,0,1-1.05-.479,3.173,3.173,0,0,1-.756-.545,2.028,2.028,0,0,1-.457-.69,2.441,2.441,0,0,1-.154-.905,2.15,2.15,0,0,1,.29-1.121,2.572,2.572,0,0,1,.773-.817,3.607,3.607,0,0,1,1.1-.5,4.893,4.893,0,0,1,1.279-.167,5.164,5.164,0,0,1,2.092.4v1.459A4.077,4.077,0,0,0,239.11-8a2.671,2.671,0,0,0-.729.092,1.786,1.786,0,0,0-.558.259,1.2,1.2,0,0,0-.36.4,1.053,1.053,0,0,0-.127.514,1.233,1.233,0,0,0,.127.589,1.3,1.3,0,0,0,.374.422,2.855,2.855,0,0,0,.6.334q.352.149.8.325a11.131,11.131,0,0,1,1.072.47,3.678,3.678,0,0,1,.809.545,2.129,2.129,0,0,1,.514.7,2.254,2.254,0,0,1,.18.94,2.217,2.217,0,0,1-.294,1.16,2.523,2.523,0,0,1-.787.817,3.6,3.6,0,0,1-1.134.483,5.6,5.6,0,0,1-1.345.158A5.106,5.106,0,0,1,235.84-.325Z" transform="translate(-52 77.135)" fill="#212429"/>
        <g id="Elipse_12493-3" data-name="Elipse 12493" transform="translate(-121 40.361)" fill="#fff" stroke="#aa52f9" stroke-width="2">
          <circle cx="30" cy="30" r="30" stroke="none"/>
          <circle cx="30" cy="30" r="29" fill="none"/>
        </g>
      </g>
    </g>
  </g>
</svg>
