<svg xmlns="http://www.w3.org/2000/svg" xmlns:xlink="http://www.w3.org/1999/xlink" width="108" height="108" viewBox="0 0 108 108">
  <defs>
    <filter id="Trazado_904820" x="0" y="0" width="108" height="108" filterUnits="userSpaceOnUse">
      <feOffset dy="3" input="SourceAlpha"/>
      <feGaussianBlur stdDeviation="3" result="blur"/>
      <feFlood flood-opacity="0.161"/>
      <feComposite operator="in" in2="blur"/>
      <feComposite in="SourceGraphic"/>
    </filter>
    <clipPath id="clip-path">
      <path id="path8010" d="M0-682.665H54.848v54.848H0Z" transform="translate(0 682.665)"/>
    </clipPath>
  </defs>
  <g id="Grupo_1208606" data-name="Grupo 1208606" transform="translate(-200.881 -6816.971)">
    <g id="Grupo_1208260" data-name="Grupo 1208260" transform="translate(209.881 6822.971)">
      <g id="Grupo_1173585" data-name="Grupo 1173585" transform="translate(0 0)">
        <g id="Grupo_1173428" data-name="Grupo 1173428">
          <g id="Grupo_1171958" data-name="Grupo 1171958">
            <g id="Grupo_1167341" data-name="Grupo 1167341">
              <g id="Grupo_1166792" data-name="Grupo 1166792">
                <g transform="matrix(1, 0, 0, 1, -9, -6)" filter="url(#Trazado_904820)">
                  <g id="Trazado_904820-2" data-name="Trazado 904820" transform="translate(9 6)" fill="#fdfbec">
                    <path d="M 44.99999618530273 88.49999237060547 C 39.12687301635742 88.49999237060547 33.43022155761719 87.35006713867188 28.06829643249512 85.08216857910156 C 22.88852119445801 82.89130401611328 18.23629570007324 79.75457763671875 14.24084663391113 75.75914001464844 C 10.24540901184082 71.76369476318359 7.108683586120605 67.11146545410156 4.917821407318115 61.93169403076172 C 2.649921178817749 56.56976699829102 1.499996185302734 50.87311553955078 1.499996185302734 44.99999237060547 C 1.499996185302734 39.12686920166016 2.649921178817749 33.43021774291992 4.917821407318115 28.06829261779785 C 7.108683586120605 22.88851737976074 10.24540901184082 18.23630523681641 14.24084663391113 14.24085521697998 C 18.23629570007324 10.24540519714355 22.88852119445801 7.108692169189453 28.06829643249512 4.917829990386963 C 33.43022155761719 2.649929761886597 39.12687301635742 1.500004887580872 44.99999618530273 1.500004887580872 C 50.87311935424805 1.500004887580872 56.56977081298828 2.649929761886597 61.93169784545898 4.917829990386963 C 67.11147308349609 7.108692169189453 71.76369476318359 10.24540519714355 75.75914764404297 14.24085521697998 C 79.75458526611328 18.23630523681641 82.89131164550781 22.88851737976074 85.08216857910156 28.06829261779785 C 87.35007476806641 33.43021774291992 88.5 39.12686920166016 88.5 44.99999237060547 C 88.5 50.87311553955078 87.35007476806641 56.56976699829102 85.08216857910156 61.93169403076172 C 82.89131164550781 67.11146545410156 79.75458526611328 71.76369476318359 75.75914764404297 75.75914001464844 C 71.76369476318359 79.75457763671875 67.11147308349609 82.89130401611328 61.93169784545898 85.08216857910156 C 56.56977081298828 87.35006713867188 50.87311935424805 88.49999237060547 44.99999618530273 88.49999237060547 Z" stroke="none"/>
                    <path d="M 44.99999618530273 2.999992370605469 C 39.32870864868164 2.999992370605469 33.82865142822266 4.11004638671875 28.65262603759766 6.299331665039062 C 23.65165710449219 8.414566040039062 19.15968322753906 11.44333648681641 15.301513671875 15.30150604248047 C 11.44333648681641 19.15967559814453 8.414566040039062 23.65164947509766 6.299339294433594 28.65262222290039 C 4.110054016113281 33.82864761352539 2.999992370605469 39.32870483398438 2.999992370605469 44.99999237060547 C 2.999992370605469 50.67127990722656 4.110054016113281 56.17132186889648 6.299339294433594 61.34736633300781 C 8.414566040039062 66.34833526611328 11.44333648681641 70.84029388427734 15.301513671875 74.69846343994141 C 19.15968322753906 78.55663299560547 23.65165710449219 81.58540344238281 28.65262603759766 83.70063781738281 C 33.82865142822266 85.88992309570312 39.32870864868164 86.99997711181641 44.99999618530273 86.99997711181641 C 50.67128372192383 86.99997711181641 56.17134094238281 85.88992309570312 61.34736633300781 83.70063781738281 C 66.34834289550781 81.58540344238281 70.84030914306641 78.55663299560547 74.69847869873047 74.69846343994141 C 78.55665588378906 70.84029388427734 81.58542633056641 66.34833526611328 83.70065307617188 61.34736633300781 C 85.88993835449219 56.17132186889648 87 50.67127990722656 87 44.99999237060547 C 87 39.32870483398438 85.88993835449219 33.82864761352539 83.70065307617188 28.65262222290039 C 81.58542633056641 23.65164947509766 78.55665588378906 19.15967559814453 74.69847869873047 15.30150604248047 C 70.84030914306641 11.44333648681641 66.34834289550781 8.414566040039062 61.34736633300781 6.299331665039062 C 56.17134094238281 4.11004638671875 50.67128372192383 2.999992370605469 44.99999618530273 2.999992370605469 M 44.99999618530273 -7.62939453125e-06 C 69.85281372070312 -7.62939453125e-06 90 20.14717864990234 90 44.99999237060547 C 90 69.85279083251953 69.85281372070312 89.99997711181641 44.99999618530273 89.99997711181641 C 20.14717864990234 89.99997711181641 -7.62939453125e-06 69.85279083251953 -7.62939453125e-06 44.99999237060547 C -7.62939453125e-06 20.14717864990234 20.14717864990234 -7.62939453125e-06 44.99999618530273 -7.62939453125e-06 Z" stroke="none" fill="#83793c"/>
                  </g>
                </g>
              </g>
            </g>
          </g>
        </g>
      </g>
    </g>
    <g id="g8004" transform="translate(227.457 7520.219)">
      <g id="g8006" transform="translate(0 -682.665)">
        <g id="g8008" clip-path="url(#clip-path)">
          <g id="g8014" transform="translate(0.815 31.111)">
            <path id="path8016" d="M-392.26-42.23h0a34.063,34.063,0,0,0-30.837,0,6.271,6.271,0,0,0-3.433,5.592v12.956a.7.7,0,0,0,.7.7h37V-36.638a6.272,6.272,0,0,0-3.433-5.592" transform="translate(426.53 45.919)" fill="#51a1c8"/>
          </g>
          <g id="g8018" transform="translate(18.415 31.111)">
            <path id="path8020" d="M-190.812-42.22h0a34.053,34.053,0,0,0-16.67-3.666v2.1a1.84,1.84,0,0,0,1.533,1.818,34.037,34.037,0,0,1,9.83,3.227h0a6.271,6.271,0,0,1,3.432,5.592v10.178h5.308V-36.628a6.271,6.271,0,0,0-3.433-5.592" transform="translate(207.482 45.909)" fill="#4497b7"/>
          </g>
          <path id="path8022" d="M202.406-371.558h-8.111v-10.4h8.111Z" transform="translate(-178.684 406.117)" fill="#fed6a6"/>
          <g id="g8024" transform="translate(18.414 24.16)">
            <path id="path8026" d="M0-103.815a1.846,1.846,0,0,0,.565,1.329H5.307v-10.4H0Z" transform="translate(0 112.885)" fill="#efc79c"/>
          </g>
          <g id="g8028" transform="translate(7.538 4.687)">
            <path id="path8030" d="M-246.026,0h-18.731a2.763,2.763,0,0,0-2.763,2.763v7.643h24.256V2.763A2.763,2.763,0,0,0-246.026,0" transform="translate(267.519)" fill="#fa9a39"/>
          </g>
          <g id="g8032" transform="translate(7.033 12.702)">
            <path id="path8034" d="M-42.8,0h-1.475A2.265,2.265,0,0,0-46.54,2.266V3.338A2.265,2.265,0,0,0-44.275,5.6H-42.8Z" transform="translate(46.54)" fill="#fed6a6"/>
          </g>
          <g id="g8036" transform="translate(28.56 12.702)">
            <path id="path8038" d="M0,0H1.475A2.265,2.265,0,0,1,3.739,2.266V3.338A2.265,2.265,0,0,1,1.475,5.6H0Z" fill="#fed6a6"/>
          </g>
          <g id="g8040" transform="translate(10.104 8.99)">
            <path id="path8042" d="M0,0,.033,10.572c.063,2.694,1.591,4.553,3.212,6.149,1.492,1.469,3.521,3.2,6.368,3.228,2.847-.044,4.865-1.79,6.346-3.269,1.61-1.607,3.125-3.479,3.17-6.173l-.02-6.41A4.11,4.11,0,0,0,15,0Z" transform="translate(0 0)" fill="#ffe3c2"/>
          </g>
          <g id="g8044" transform="translate(17.04 8.99)">
            <path id="path8046" d="M-139.332-46.894a4.109,4.109,0,0,0-4.109-4.1h-1.2l.024,10.507c-.045,2.694-1.56,4.566-3.17,6.173A11.98,11.98,0,0,1-151.5-31.6a7,7,0,0,0,2.677.56c2.847-.044,4.865-1.79,6.346-3.269,1.61-1.607,3.125-3.479,3.17-6.173Z" transform="translate(151.505 50.991)" fill="#f7d6b5"/>
          </g>
          <g id="g8048" transform="translate(7.538 0.803)">
            <path id="path8050" d="M-75.922,0A4.062,4.062,0,0,0-79.98,3.893a2.8,2.8,0,0,0-2.574,2.753v6.093A2.258,2.258,0,0,1-80.8,11.9h.817A3.267,3.267,0,0,0-76.9,9.227,1.029,1.029,0,0,1-75.875,8.2H-64.77a6.093,6.093,0,0,0,6.093-6.093V.281A.281.281,0,0,0-58.958,0Z" transform="translate(82.554)" fill="#fdbd37"/>
          </g>
          <g id="g8052" transform="translate(19.666 30.027)">
            <path id="path8054" d="M-54.958-4.08-59.76.095-54.8,3.106a.854.854,0,0,0,1.138-.233L-50.2-1.982l-2.948-2.172a1.453,1.453,0,0,0-1.815.073" transform="translate(59.76 4.437)" fill="#3990b2"/>
          </g>
          <g id="g8056" transform="translate(10.104 30.027)">
            <path id="path8058" d="M-54.52-4.08l4.8,4.175-4.956,3.011a.854.854,0,0,1-1.138-.233l-3.471-4.854,2.948-2.172a1.453,1.453,0,0,1,1.815.073" transform="translate(59.283 4.437)" fill="#3990b2"/>
          </g>
          <g id="g8060" transform="translate(6.767 46.862)">
            <path id="path8062" d="M0-82.215V-89.4" transform="translate(0 89.397)" fill="none" stroke="#000" stroke-linecap="round" stroke-linejoin="round" stroke-miterlimit="10" stroke-width="1"/>
          </g>
          <g id="g8064" transform="translate(19.477 17.074)">
            <path id="path8066" d="M0,0V2.13a.335.335,0,0,0,.335.335h.7" fill="none" stroke="#000" stroke-linecap="round" stroke-linejoin="round" stroke-miterlimit="10" stroke-width="1"/>
          </g>
          <g id="g8068" transform="translate(16.482 22.613)">
            <path id="path8070" d="M0,0A3.743,3.743,0,0,0,3.185,1.547,3.743,3.743,0,0,0,6.37,0" fill="none" stroke="#000" stroke-linecap="round" stroke-linejoin="round" stroke-miterlimit="10" stroke-width="1"/>
          </g>
          <g id="g8072" transform="translate(24.542 15.092)">
            <path id="path8074" d="M0,0V.97" transform="translate(0 0)" fill="none" stroke="#000" stroke-linecap="round" stroke-linejoin="round" stroke-miterlimit="10" stroke-width="1"/>
          </g>
          <g id="g8076" transform="translate(14.79 15.092)">
            <path id="path8078" d="M0,0V.97" transform="translate(0 0)" fill="none" stroke="#000" stroke-linecap="round" stroke-linejoin="round" stroke-miterlimit="10" stroke-width="1"/>
          </g>
          <g id="g8080" transform="translate(25.525 33.492)">
            <path id="path8082" d="M-296.6-92.088h0a25.737,25.737,0,0,0-6.779-2.323,2.246,2.246,0,0,1-1.812-2.21v-3.512h-6.133v3.512a2.246,2.246,0,0,1-1.812,2.21,25.737,25.737,0,0,0-6.779,2.323,3.8,3.8,0,0,0-2.6,3.6v8.907H-294.7a.7.7,0,0,0,.7-.7v-8.21a3.8,3.8,0,0,0-2.6-3.6" transform="translate(322.515 100.133)" fill="#fed6a6"/>
          </g>
          <g id="g8084" transform="translate(37.499 33.492)">
            <path id="path8086" d="M-159.551-92.088h0a25.737,25.737,0,0,0-6.779-2.323,2.247,2.247,0,0,1-1.812-2.21v-3.512h-5.347v6.217a2.246,2.246,0,0,0,1.812,2.21,25.735,25.735,0,0,1,6.779,2.323,3.8,3.8,0,0,1,2.6,3.6v6.2h4.65a.7.7,0,0,0,.7-.7v-8.21a3.8,3.8,0,0,0-2.6-3.6" transform="translate(173.49 100.133)" fill="#efc79c"/>
          </g>
          <g id="g8088" transform="translate(25.525 39.323)">
            <path id="path8090" d="M-296.6-25.346h0a25.75,25.75,0,0,0-6.247-2.214c0,.007,0,.013,0,.02,0,1.581-2.423,2.863-5.413,2.863s-5.413-1.282-5.413-2.863c0-.007,0-.013,0-.02a25.749,25.749,0,0,0-6.247,2.214,3.8,3.8,0,0,0-2.6,3.6v8.907H-294.7a.7.7,0,0,0,.7-.7v-8.21a3.8,3.8,0,0,0-2.6-3.6" transform="translate(322.515 27.56)" fill="#fc6a58"/>
          </g>
          <g id="g8092" transform="translate(40.505 39.323)">
            <path id="path8094" d="M-146.874-168.516a.7.7,0,0,0,.7-.7v-8.21a3.8,3.8,0,0,0-2.6-3.6,25.748,25.748,0,0,0-6.247-2.214c0,.007,0,.013,0,.02,0,1.451-2.041,2.649-4.687,2.837a25.733,25.733,0,0,1,5.586,2.063,3.8,3.8,0,0,1,2.6,3.6v6.2Z" transform="translate(159.705 183.238)" fill="#e35052"/>
          </g>
          <g id="g8096" transform="translate(31.229 17.146)">
            <path id="path8098" d="M-117.681,0h-3.461a6.82,6.82,0,0,0-6.82,6.82v4.2h17.1V6.82A6.82,6.82,0,0,0-117.681,0" transform="translate(127.962)" fill="#fdbd37"/>
          </g>
          <g id="g8100" transform="translate(39.672 17.146)">
            <path id="path8102" d="M-21.031,0h-1.837a3.35,3.35,0,0,1,3.35,3.35v7.669h5.308V6.82A6.82,6.82,0,0,0-21.031,0" transform="translate(22.868)" fill="#fa9a39"/>
          </g>
          <g id="g8104" transform="translate(30.47 25.76)">
            <path id="path8106" d="M-32.363,0h-1.115a1.713,1.713,0,0,0-1.712,1.713v.811a1.713,1.713,0,0,0,1.712,1.713h1.115Z" transform="translate(35.191)" fill="#fed6a6"/>
          </g>
          <g id="g8108" transform="translate(46.261 25.76)">
            <path id="path8110" d="M0,0H1.115A1.713,1.713,0,0,1,2.827,1.713v.811A1.713,1.713,0,0,1,1.115,4.237H0Z" fill="#fed6a6"/>
          </g>
          <g id="g8112" transform="translate(32.553 22.272)">
            <path id="path8114" d="M-11.092-29.188a.829.829,0,0,0-.969.821l.021,4.372c0,5.37,5.091,7.072,7.244,7.09,2.153-.033,7.2-1.436,7.2-7.14L2.38-28.368a.711.711,0,0,0-.739-.706c-1.579.06-2.979-1.693-3.545-2.511a.358.358,0,0,0-.567-.027c-2.2,2.532-6.652,2.764-8.621,2.423" transform="translate(12.061 31.738)" fill="#ffe3c2"/>
          </g>
          <g id="g8116" transform="translate(37.222 22.272)">
            <path id="path8118" d="M-111.852-38.576a.711.711,0,0,0-.739-.706c-1.579.06-2.979-1.693-3.545-2.511a.358.358,0,0,0-.567-.027,5.436,5.436,0,0,1-.455.464l.018,7.1a6.625,6.625,0,0,1-4.483,6.584,7.728,7.728,0,0,0,2.6.556c2.153-.033,7.2-1.436,7.2-7.14Z" transform="translate(121.624 41.946)" fill="#f7d6b5"/>
          </g>
          <g id="g8120" transform="translate(30.025 48.227)">
            <path id="path8122" d="M0-66.6v-5.818" transform="translate(0 72.414)" fill="none" stroke="#000" stroke-linecap="round" stroke-linejoin="round" stroke-miterlimit="10" stroke-width="1"/>
          </g>
          <g id="g8124" transform="translate(49.533 48.227)">
            <path id="path8126" d="M0-66.6v-5.818" transform="translate(0 72.414)" fill="none" stroke="#000" stroke-linecap="round" stroke-linejoin="round" stroke-miterlimit="10" stroke-width="1"/>
          </g>
          <g id="g8128" transform="translate(39.636 28.133)">
            <path id="path8130" d="M0,0V1.61a.253.253,0,0,0,.253.253H.784" fill="none" stroke="#000" stroke-linecap="round" stroke-linejoin="round" stroke-miterlimit="10" stroke-width="1"/>
          </g>
          <g id="g8132" transform="translate(37.371 32.322)">
            <path id="path8134" d="M0,0A2.83,2.83,0,0,0,2.408,1.17,2.831,2.831,0,0,0,4.817,0" fill="none" stroke="#000" stroke-linecap="round" stroke-linejoin="round" stroke-miterlimit="10" stroke-width="1"/>
          </g>
          <g id="g8136" transform="translate(43.466 27.164)">
            <path id="path8138" d="M0,0V.47" fill="none" stroke="#000" stroke-linecap="round" stroke-linejoin="round" stroke-miterlimit="10" stroke-width="1"/>
          </g>
          <g id="g8140" transform="translate(36.092 27.164)">
            <path id="path8142" d="M0,0V.47" fill="none" stroke="#000" stroke-linecap="round" stroke-linejoin="round" stroke-miterlimit="10" stroke-width="1"/>
          </g>
          <g id="g8144" transform="translate(42.132 46.473)">
            <path id="path8146" d="M-52.539-40.793l-2.074,1.027a.306.306,0,0,1-.271,0l-2.074-1.027a.306.306,0,0,1-.17-.274v-2.985a.306.306,0,0,1,.306-.306h4.149a.305.305,0,0,1,.306.306v2.985a.305.305,0,0,1-.17.274" transform="translate(57.129 44.357)" fill="#fa9a39"/>
          </g>
          <g id="g8148" transform="translate(25.525 39.323)">
            <path id="path8150" d="M-252.125-7.162q-1.168-.37-2.361-.626c0,.007,0,.013,0,.02,0,1.581-2.423,2.863-5.413,2.863s-5.413-1.282-5.413-2.863c0-.007,0-.013,0-.02a25.749,25.749,0,0,0-6.247,2.214,3.8,3.8,0,0,0-2.6,3.6V6.934h27.811a.7.7,0,0,0,.7-.7v-8.21a3.8,3.8,0,0,0-2.6-3.6q-.212-.108-.426-.211" transform="translate(274.151 7.788)" fill="none" stroke="#000" stroke-linecap="round" stroke-linejoin="round" stroke-miterlimit="10" stroke-width="1"/>
          </g>
          <g id="g8152" transform="translate(42.132 46.473)">
            <path id="path8154" d="M-52.539-40.793l-2.074,1.027a.306.306,0,0,1-.271,0l-2.074-1.027a.306.306,0,0,1-.17-.274v-2.985a.306.306,0,0,1,.306-.306h4.149a.305.305,0,0,1,.306.306v2.985A.305.305,0,0,1-52.539-40.793Z" transform="translate(57.129 44.357)" fill="none" stroke="#000" stroke-linecap="round" stroke-linejoin="round" stroke-miterlimit="10" stroke-width="1"/>
          </g>
          <g id="g8156" transform="translate(34.366 36.333)">
            <path id="path8158" d="M-26.853,0V.671a2.247,2.247,0,0,1-1.812,2.21c-.178.034-.355.071-.533.109,0,.007,0,.013,0,.02" transform="translate(29.199)" fill="none" stroke="#000" stroke-linecap="round" stroke-linejoin="round" stroke-miterlimit="10" stroke-width="1"/>
          </g>
          <g id="g8160" transform="translate(42.846 36.421)">
            <path id="path8162" d="M-26.853-33.436c0-.007,0-.013,0-.02-.177-.038-.355-.075-.533-.109a2.247,2.247,0,0,1-1.812-2.21v-.582" transform="translate(29.199 36.357)" fill="none" stroke="#000" stroke-linecap="round" stroke-linejoin="round" stroke-miterlimit="10" stroke-width="1"/>
          </g>
          <g id="g8164" transform="translate(32.553 22.272)">
            <path id="path8166" d="M-11.092-29.188a.829.829,0,0,0-.969.821l.021,4.372c0,5.37,5.091,7.072,7.244,7.09,2.153-.033,7.2-1.436,7.2-7.14L2.38-28.368a.711.711,0,0,0-.739-.706c-1.579.06-2.979-1.693-3.545-2.511a.358.358,0,0,0-.567-.027C-4.667-29.08-9.123-28.847-11.092-29.188Z" transform="translate(12.061 31.738)" fill="none" stroke="#000" stroke-linecap="round" stroke-linejoin="round" stroke-miterlimit="10" stroke-width="1"/>
          </g>
          <g id="g8168" transform="translate(46.995 25.76)">
            <path id="path8170" d="M-.206-48.14c0,.011,0,.021,0,.032H.157A1.713,1.713,0,0,0,1.87-49.821v-.811A1.713,1.713,0,0,0,.157-52.345H-.224" transform="translate(0.224 52.345)" fill="none" stroke="#000" stroke-linecap="round" stroke-linejoin="round" stroke-miterlimit="10" stroke-width="1"/>
          </g>
          <g id="g8172" transform="translate(30.47 25.76)">
            <path id="path8174" d="M-23.851,0h-.371a1.712,1.712,0,0,0-1.712,1.713v.811a1.712,1.712,0,0,0,1.712,1.713h.391" transform="translate(25.935)" fill="none" stroke="#000" stroke-linecap="round" stroke-linejoin="round" stroke-miterlimit="10" stroke-width="1"/>
          </g>
          <g id="g8176" transform="translate(31.229 17.146)">
            <path id="path8178" d="M-195.745-101.925v-2.085a6.82,6.82,0,0,0-6.82-6.82h-3.461a6.82,6.82,0,0,0-6.82,6.82v2.085" transform="translate(212.846 110.829)" fill="none" stroke="#000" stroke-linecap="round" stroke-linejoin="round" stroke-miterlimit="10" stroke-width="1"/>
          </g>
          <g id="g8180" transform="translate(19.666 30.027)">
            <path id="path8182" d="M-54.958-4.08-59.76.095-54.8,3.106a.854.854,0,0,0,1.138-.233L-50.2-1.982l-2.948-2.172A1.453,1.453,0,0,0-54.958-4.08Z" transform="translate(59.76 4.437)" fill="none" stroke="#000" stroke-linecap="round" stroke-linejoin="round" stroke-miterlimit="10" stroke-width="1"/>
          </g>
          <g id="g8184" transform="translate(10.104 30.027)">
            <path id="path8186" d="M-54.52-4.08l4.8,4.175-4.956,3.011a.854.854,0,0,1-1.138-.233l-3.471-4.854,2.948-2.172A1.453,1.453,0,0,1-54.52-4.08Z" transform="translate(59.283 4.437)" fill="none" stroke="#000" stroke-linecap="round" stroke-linejoin="round" stroke-miterlimit="10" stroke-width="1"/>
          </g>
          <g id="g8188" transform="translate(29.23 32.482)">
            <path id="path8190" d="M-54.669-20.548a34.064,34.064,0,0,0-4.776-1.8" transform="translate(59.445 22.343)" fill="none" stroke="#000" stroke-linecap="round" stroke-linejoin="round" stroke-miterlimit="10" stroke-width="1"/>
          </g>
          <g id="g8192" transform="translate(0.815 45.131)">
            <path id="path8194" d="M0,0V8.216a.7.7,0,0,0,.7.7H24.71" fill="none" stroke="#000" stroke-linecap="round" stroke-linejoin="round" stroke-miterlimit="10" stroke-width="1"/>
          </g>
          <g id="g8196" transform="translate(0.815 32.478)">
            <path id="path8198" d="M-106.323-.04l0,0a34.053,34.053,0,0,0-5.861,2.321,6.271,6.271,0,0,0-3.433,5.592V8.85" transform="translate(115.612 0.044)" fill="none" stroke="#000" stroke-linecap="round" stroke-linejoin="round" stroke-miterlimit="10" stroke-width="1"/>
          </g>
          <g id="g8200" transform="translate(15.61 27.607)">
            <path id="path8202" d="M0,0V3.423" fill="none" stroke="#000" stroke-linecap="round" stroke-linejoin="round" stroke-miterlimit="10" stroke-width="1"/>
          </g>
          <g id="g8204" transform="translate(23.722 27.641)">
            <path id="path8206" d="M0-38.809V-42.2" transform="translate(0 42.2)" fill="none" stroke="#000" stroke-linecap="round" stroke-linejoin="round" stroke-miterlimit="10" stroke-width="1"/>
          </g>
          <g id="g8208" transform="translate(10.115 12.702)">
            <path id="path8210" d="M0,0,.021,6.86c.063,2.694,1.591,4.553,3.212,6.149,1.492,1.469,3.521,3.2,6.368,3.228,2.847-.044,4.865-1.79,6.346-3.269,1.61-1.607,3.125-3.479,3.17-6.173L19.1.385" fill="none" stroke="#000" stroke-linecap="round" stroke-linejoin="round" stroke-miterlimit="10" stroke-width="1"/>
          </g>
          <g id="g8212" transform="translate(7.538 0.803)">
            <path id="path8214" d="M-29.5-136.2h0a3.267,3.267,0,0,0,3.073-2.672A1.029,1.029,0,0,1-25.4-139.9h11.106A6.093,6.093,0,0,0-8.2-145.992v-1.824a.281.281,0,0,0-.281-.281H-25.446A4.062,4.062,0,0,0-29.5-144.2a2.8,2.8,0,0,0-2.574,2.753v6.093" transform="translate(32.079 148.097)" fill="none" stroke="#000" stroke-linecap="round" stroke-linejoin="round" stroke-miterlimit="10" stroke-width="1"/>
          </g>
          <g id="g8216" transform="translate(25.377 9)">
            <path id="path8218" d="M0,0A4.109,4.109,0,0,1,3.816,3.7" fill="none" stroke="#000" stroke-linecap="round" stroke-linejoin="round" stroke-miterlimit="10" stroke-width="1"/>
          </g>
          <g id="g8220" transform="translate(30.883 5.399)">
            <path id="path8222" d="M-10.429-93.212v-6.093a2.755,2.755,0,0,0-.911-2.05" transform="translate(11.34 101.356)" fill="none" stroke="#000" stroke-linecap="round" stroke-linejoin="round" stroke-miterlimit="10" stroke-width="1"/>
          </g>
          <g id="g8224" transform="translate(29.193 12.702)">
            <path id="path8226" d="M-.41-64.143H.4a2.265,2.265,0,0,0,2.265-2.266V-67.48A2.265,2.265,0,0,0,.4-69.747H-.445" transform="translate(0.445 69.747)" fill="none" stroke="#000" stroke-linecap="round" stroke-linejoin="round" stroke-miterlimit="10" stroke-width="1"/>
          </g>
          <g id="g8228" transform="translate(7.033 12.702)">
            <path id="path8230" d="M-35.283,0H-36.1a2.265,2.265,0,0,0-2.265,2.266V3.338A2.265,2.265,0,0,0-36.1,5.6h.835Z" transform="translate(38.365)" fill="none" stroke="#000" stroke-linecap="round" stroke-linejoin="round" stroke-miterlimit="10" stroke-width="1"/>
          </g>
        </g>
      </g>
    </g>
  </g>
</svg>
