<svg xmlns="http://www.w3.org/2000/svg" xmlns:xlink="http://www.w3.org/1999/xlink" width="108" height="108" viewBox="0 0 108 108">
  <defs>
    <filter id="Trazado_904820" x="0" y="0" width="108" height="108" filterUnits="userSpaceOnUse">
      <feOffset dy="3" input="SourceAlpha"/>
      <feGaussianBlur stdDeviation="3" result="blur"/>
      <feFlood flood-opacity="0.161"/>
      <feComposite operator="in" in2="blur"/>
      <feComposite in="SourceGraphic"/>
    </filter>
  </defs>
  <g id="Grupo_1208261" data-name="Grupo 1208261" transform="translate(9 6)">
    <g id="Grupo_1173585" data-name="Grupo 1173585" transform="translate(0 0)">
      <g id="Grupo_1173428" data-name="Grupo 1173428">
        <g id="Grupo_1171958" data-name="Grupo 1171958">
          <g id="Grupo_1167341" data-name="Grupo 1167341">
            <g id="Grupo_1166792" data-name="Grupo 1166792">
              <g transform="matrix(1, 0, 0, 1, -9, -6)" filter="url(#Trazado_904820)">
                <g id="Trazado_904820-2" data-name="Trazado 904820" transform="translate(9 6)" fill="#fdfbec">
                  <path d="M 44.99999618530273 88.49999237060547 C 39.12687301635742 88.49999237060547 33.43022155761719 87.35006713867188 28.06829643249512 85.08216857910156 C 22.88852119445801 82.89130401611328 18.23629570007324 79.75457763671875 14.24084663391113 75.75914001464844 C 10.24540901184082 71.76369476318359 7.108683586120605 67.11146545410156 4.917821407318115 61.93169403076172 C 2.649921178817749 56.56976699829102 1.499996185302734 50.87311553955078 1.499996185302734 44.99999237060547 C 1.499996185302734 39.12686920166016 2.649921178817749 33.43021774291992 4.917821407318115 28.06829261779785 C 7.108683586120605 22.88851737976074 10.24540901184082 18.23630523681641 14.24084663391113 14.24085521697998 C 18.23629570007324 10.24540519714355 22.88852119445801 7.108692169189453 28.06829643249512 4.917829990386963 C 33.43022155761719 2.649929761886597 39.12687301635742 1.500004887580872 44.99999618530273 1.500004887580872 C 50.87311935424805 1.500004887580872 56.56977081298828 2.649929761886597 61.93169784545898 4.917829990386963 C 67.11147308349609 7.108692169189453 71.76369476318359 10.24540519714355 75.75914764404297 14.24085521697998 C 79.75458526611328 18.23630523681641 82.89131164550781 22.88851737976074 85.08216857910156 28.06829261779785 C 87.35007476806641 33.43021774291992 88.5 39.12686920166016 88.5 44.99999237060547 C 88.5 50.87311553955078 87.35007476806641 56.56976699829102 85.08216857910156 61.93169403076172 C 82.89131164550781 67.11146545410156 79.75458526611328 71.76369476318359 75.75914764404297 75.75914001464844 C 71.76369476318359 79.75457763671875 67.11147308349609 82.89130401611328 61.93169784545898 85.08216857910156 C 56.56977081298828 87.35006713867188 50.87311935424805 88.49999237060547 44.99999618530273 88.49999237060547 Z" stroke="none"/>
                  <path d="M 44.99999618530273 2.999992370605469 C 39.32870864868164 2.999992370605469 33.82865142822266 4.11004638671875 28.65262603759766 6.299331665039062 C 23.65165710449219 8.414566040039062 19.15968322753906 11.44333648681641 15.301513671875 15.30150604248047 C 11.44333648681641 19.15967559814453 8.414566040039062 23.65164947509766 6.299339294433594 28.65262222290039 C 4.110054016113281 33.82864761352539 2.999992370605469 39.32870483398438 2.999992370605469 44.99999237060547 C 2.999992370605469 50.67127990722656 4.110054016113281 56.17132186889648 6.299339294433594 61.34736633300781 C 8.414566040039062 66.34833526611328 11.44333648681641 70.84029388427734 15.301513671875 74.69846343994141 C 19.15968322753906 78.55663299560547 23.65165710449219 81.58540344238281 28.65262603759766 83.70063781738281 C 33.82865142822266 85.88992309570312 39.32870864868164 86.99997711181641 44.99999618530273 86.99997711181641 C 50.67128372192383 86.99997711181641 56.17134094238281 85.88992309570312 61.34736633300781 83.70063781738281 C 66.34834289550781 81.58540344238281 70.84030914306641 78.55663299560547 74.69847869873047 74.69846343994141 C 78.55665588378906 70.84029388427734 81.58542633056641 66.34833526611328 83.70065307617188 61.34736633300781 C 85.88993835449219 56.17132186889648 87 50.67127990722656 87 44.99999237060547 C 87 39.32870483398438 85.88993835449219 33.82864761352539 83.70065307617188 28.65262222290039 C 81.58542633056641 23.65164947509766 78.55665588378906 19.15967559814453 74.69847869873047 15.30150604248047 C 70.84030914306641 11.44333648681641 66.34834289550781 8.414566040039062 61.34736633300781 6.299331665039062 C 56.17134094238281 4.11004638671875 50.67128372192383 2.999992370605469 44.99999618530273 2.999992370605469 M 44.99999618530273 -7.62939453125e-06 C 69.85281372070312 -7.62939453125e-06 90 20.14717864990234 90 44.99999237060547 C 90 69.85279083251953 69.85281372070312 89.99997711181641 44.99999618530273 89.99997711181641 C 20.14717864990234 89.99997711181641 -7.62939453125e-06 69.85279083251953 -7.62939453125e-06 44.99999237060547 C -7.62939453125e-06 20.14717864990234 20.14717864990234 -7.62939453125e-06 44.99999618530273 -7.62939453125e-06 Z" stroke="none" fill="#83793c"/>
                </g>
              </g>
            </g>
          </g>
        </g>
      </g>
      <g id="tutor_10491839" transform="translate(14.027 13.947)">
        <g id="Grupo_1208625" data-name="Grupo 1208625" transform="translate(0.938 0.938)">
          <g id="Grupo_1208607" data-name="Grupo 1208607" transform="translate(5.631 48.801)">
            <path id="Trazado_1053134" data-name="Trazado 1053134" d="M63.508,427.754H56V424h5.631v1.877A1.876,1.876,0,0,0,63.508,427.754Z" transform="translate(-56 -424)" fill="#e6e9ed"/>
          </g>
          <g id="Grupo_1208608" data-name="Grupo 1208608" transform="translate(0 30.97)">
            <path id="Trazado_1053135" data-name="Trazado 1053135" d="M19.262,284.213a1.878,1.878,0,0,0-1.457,1.024l-.42.84v3.754H11.754A3.754,3.754,0,0,1,8,286.077v-6.5a6.569,6.569,0,0,1,5.64-6.5l7.5-1.071,2.815,2.815L26.769,272l7.5,1.071a6.569,6.569,0,0,1,5.64,6.5v.561l-.2-.529a1.877,1.877,0,0,0-3.357,1.68l1.8,4.791h-.118a1.876,1.876,0,0,0-1.877,1.877v1.877a1.876,1.876,0,0,0,1.877,1.877H35.216a.938.938,0,0,0-.938.939v.938H26.769a1.876,1.876,0,0,0,1.877-1.877V278.569a1.876,1.876,0,0,0-1.877-1.877H21.139a1.876,1.876,0,0,0-1.877,1.877Z" transform="translate(-8 -272)" fill="#e6e9ed"/>
          </g>
          <g id="Grupo_1208609" data-name="Grupo 1208609" transform="translate(11.262 35.662)">
            <path id="Trazado_1053136" data-name="Trazado 1053136" d="M113.385,313.877v13.139a1.876,1.876,0,0,1-1.877,1.877h-5.631A1.876,1.876,0,0,1,104,327.016v-1.877h1.877a1.876,1.876,0,0,0,1.877-1.877v-1.877a1.876,1.876,0,0,0-1.877-1.877h-1.655a1.968,1.968,0,0,0-.222.013v-5.644A1.876,1.876,0,0,1,105.877,312h5.631A1.876,1.876,0,0,1,113.385,313.877Z" transform="translate(-104 -312)" fill="#969faa"/>
          </g>
          <g id="Grupo_1208610" data-name="Grupo 1208610" transform="translate(1.877)">
            <path id="Trazado_1053137" data-name="Trazado 1053137" d="M47.462,20.2l-1.591-1.193a5.16,5.16,0,0,0-4.729-.767l-2.093.7a6.32,6.32,0,0,1-7.4-2.719,5.632,5.632,0,0,0-3.242,4.637l-.1,1.221H26.815a2.783,2.783,0,0,0-1.29.314h0A9.291,9.291,0,0,1,33.291,8h9.572a9.29,9.29,0,0,1,7.766,14.39h0a2.782,2.782,0,0,0-1.29-.314H47.671Z" transform="translate(-24 -8)" fill="#b27946"/>
          </g>
          <g id="Grupo_1208611" data-name="Grupo 1208611" transform="translate(30.97 15.016)">
            <path id="Trazado_1053138" data-name="Trazado 1053138" d="M276.692,147.262h-2.815a1.861,1.861,0,0,0-.831.194A7.6,7.6,0,0,1,272,143.606v-.638a4.118,4.118,0,0,1,3.119-3.994l.635-.158A4.118,4.118,0,0,1,279.66,136h7.257a7.605,7.605,0,0,1,6.56,11.455,1.861,1.861,0,0,0-.831-.194h-2.815a3.606,3.606,0,0,0-2.731-3.5l-1.023-.256a7.394,7.394,0,0,1-5.234,3.235Z" transform="translate(-272 -136)" fill="#656d78"/>
          </g>
          <g id="Grupo_1208612" data-name="Grupo 1208612" transform="translate(26.277 50.678)">
            <path id="Trazado_1053139" data-name="Trazado 1053139" d="M241.97,440h19.123a.938.938,0,0,1,.938.938v.938a1.876,1.876,0,0,1-1.877,1.877H249.831a1.877,1.877,0,1,1-3.754,0h-12.2A1.876,1.876,0,0,1,232,441.877v-.938a.938.938,0,0,1,.938-.938h9.032Z" transform="translate(-232 -440)" fill="#cf9e76"/>
          </g>
          <g id="Grupo_1208613" data-name="Grupo 1208613" transform="translate(33.19 39.416)">
            <path id="Trazado_1053140" data-name="Trazado 1053140" d="M310.294,351.006v4.256H293.987l-3.057-8.154a6.551,6.551,0,0,1,3.694-2.474l2.532-.633a2.815,2.815,0,1,0,5.631,0l2.532.633a6.569,6.569,0,0,1,4.976,6.372Z" transform="translate(-290.93 -344)" fill="#fcd770"/>
          </g>
          <g id="Grupo_1208614" data-name="Grupo 1208614" transform="translate(28.154 37.539)">
            <path id="Trazado_1053141" data-name="Trazado 1053141" d="M253.036,332.984l3.057,8.154h-5.278a.938.938,0,0,0,.938-.938v-3.754a.938.938,0,0,0-.938-.938h-.82l-1.8-4.791a1.877,1.877,0,0,1,3.357-1.68l.2.529Z" transform="translate(-247.999 -328)" fill="#f29ed0"/>
          </g>
          <g id="Grupo_1208615" data-name="Grupo 1208615" transform="translate(5.631 8.219)">
            <path id="Trazado_1053142" data-name="Trazado 1053142" d="M76.6,90.074a7.523,7.523,0,0,1-4.837,7.876l-2.625.984v1.877l-2.815,2.815-2.815-2.815V98.934l-2.625-.984A7.524,7.524,0,0,1,56,90.9v-.1c0-.21.008-.419.026-.628l.053-.625.472-5.631.1-1.221a5.632,5.632,0,0,1,3.242-4.637,6.316,6.316,0,0,0,7.4,2.719l2.093-.7a5.16,5.16,0,0,1,4.729.767l1.591,1.193.209,1.877.625,5.631Z" transform="translate(-56 -78.06)" fill="#f0d0b4"/>
          </g>
          <g id="Grupo_1208616" data-name="Grupo 1208616" transform="translate(18.213 12.79)">
            <ellipse id="Elipse_13490" data-name="Elipse 13490" cx="3.5" cy="4" rx="3.5" ry="4" transform="translate(-0.058 0.364)" fill="#69d6f4"/>
          </g>
          <g id="Grupo_1208617" data-name="Grupo 1208617" transform="translate(6.463 12.79)">
            <circle id="Elipse_13491" data-name="Elipse 13491" cx="4" cy="4" r="4" transform="translate(-0.309 0.364)" fill="#69d6f4"/>
          </g>
          <g id="Grupo_1208618" data-name="Grupo 1208618" transform="translate(25.548 14.077)">
            <path id="Trazado_1053143" data-name="Trazado 1053143" d="M228.739,128.314a2.815,2.815,0,0,1-1.29,5.316h-1.043L225.78,128h1.668A2.782,2.782,0,0,1,228.739,128.314Z" transform="translate(-225.78 -128)" fill="#f0d0b4"/>
          </g>
          <g id="Grupo_1208619" data-name="Grupo 1208619" transform="translate(1.877 14.077)">
            <path id="Trazado_1053144" data-name="Trazado 1053144" d="M28.3,128l-.472,5.631H26.815a2.814,2.814,0,0,1-1.29-5.316,2.783,2.783,0,0,1,1.29-.314Z" transform="translate(-24 -128)" fill="#f0d0b4"/>
          </g>
          <g id="Grupo_1208620" data-name="Grupo 1208620" transform="translate(9.385 43.17)">
            <path id="Trazado_1053145" data-name="Trazado 1053145" d="M93.631,377.877v1.877a1.876,1.876,0,0,1-1.877,1.877H88v-3.754l.42-.84a1.878,1.878,0,0,1,1.457-1.024A1.975,1.975,0,0,1,90.1,376h1.655A1.876,1.876,0,0,1,93.631,377.877Z" transform="translate(-88 -376)" fill="#f0d0b4"/>
          </g>
          <g id="Grupo_1208621" data-name="Grupo 1208621" transform="translate(28.154 45.047)">
            <path id="Trazado_1053146" data-name="Trazado 1053146" d="M251.754,392.938v3.754a.938.938,0,0,1-.938.938h-.938A1.876,1.876,0,0,1,248,395.754v-1.877A1.876,1.876,0,0,1,249.877,392h.938A.938.938,0,0,1,251.754,392.938Z" transform="translate(-248 -392)" fill="#f0d0b4"/>
          </g>
          <g id="Grupo_1208622" data-name="Grupo 1208622" transform="translate(48.801 26.277)">
            <path id="Trazado_1053147" data-name="Trazado 1053147" d="M428.143,232.549a1.878,1.878,0,0,1-1.328,3.2h-2.19L424,232h2.815a1.883,1.883,0,0,1,1.328.549Z" transform="translate(-424 -232)" fill="#f0d0b4"/>
          </g>
          <g id="Grupo_1208623" data-name="Grupo 1208623" transform="translate(34.723 22.523)">
            <path id="Trazado_1053148" data-name="Trazado 1053148" d="M318.949,208.981a4.941,4.941,0,0,1-3.038,5.4l-1.587.635v1.877a2.815,2.815,0,0,1-5.631,0v-1.877l-1.587-.635a4.944,4.944,0,0,1-3.038-5.4l.245-1.473h0l.625-3.754,4.15-.518A7.393,7.393,0,0,0,314.323,200l1.023.256a3.606,3.606,0,0,1,2.731,3.5l.625,3.754h0Z" transform="translate(-304 -200)" fill="#f0d0b4"/>
          </g>
          <g id="Grupo_1208624" data-name="Grupo 1208624" transform="translate(30.97 26.277)">
            <path id="Trazado_1053149" data-name="Trazado 1053149" d="M276.692,232l-.625,3.754h-2.19a1.877,1.877,0,1,1,0-3.754Z" transform="translate(-272 -232)" fill="#f0d0b4"/>
          </g>
          <circle id="Elipse_13498" data-name="Elipse 13498" cx="1" cy="1" r="1" transform="translate(20.154 16.154)"/>
          <circle id="Elipse_13499" data-name="Elipse 13499" cx="1" cy="1" r="1" transform="translate(10.154 16.154)"/>
        </g>
        <g id="Grupo_1208626" data-name="Grupo 1208626" transform="translate(0 0)">
          <path id="Trazado_1053150" data-name="Trazado 1053150" d="M56.308,50.678H54.431V47.36a7.5,7.5,0,0,0-5.687-7.284l-1.821-.455v-.509l1-.4a5.879,5.879,0,0,0,3.616-6.425l-.063-.381h1.082a2.813,2.813,0,0,0,2.028-4.766,8.544,8.544,0,0,0-7.757-12.127H39.568a5.049,5.049,0,0,0-4.6,2.96l-.167.042a5.049,5.049,0,0,0-3.83,4.9v.637a8.551,8.551,0,0,0,.788,3.582,2.813,2.813,0,0,0,2.028,4.766h1.082l-.063.381a5.878,5.878,0,0,0,3.616,6.425l1,.4v.509l-1.821.455a7.523,7.523,0,0,0-3.121,1.633l-.689-1.836v-.391a7.508,7.508,0,0,0-6.446-7.432l-6.693-.956v-.413l2.017-.756A8.5,8.5,0,0,0,28.154,22c0-.139,0-.278-.012-.417h.012a3.752,3.752,0,0,0,2.536-6.519A10.227,10.227,0,0,0,21.679,0H12.106A10.227,10.227,0,0,0,3.095,15.066a3.752,3.752,0,0,0,2.536,6.519h.007c0,.1-.007.21-.007.315V22a8.5,8.5,0,0,0,5.491,7.924l2.017.756v.413l-6.693.956A7.508,7.508,0,0,0,0,39.482v6.5a4.7,4.7,0,0,0,4.692,4.692h.938v3.754H26.439a2.82,2.82,0,0,0,2.654,1.877H40.515a2.816,2.816,0,0,0,5.309,0H55.37a2.819,2.819,0,0,0,2.815-2.815v-.938a1.879,1.879,0,0,0-1.877-1.877ZM52.554,30.031H51.16l-.313-1.877h1.708a.938.938,0,0,1,0,1.877ZM32.847,22.923a3.174,3.174,0,0,1,2.408-3.084l1.135-.284.163-.489a3.175,3.175,0,0,1,3.016-2.174h7.257A6.666,6.666,0,0,1,52.9,26.3a2.829,2.829,0,0,0-.349-.022h-1.2a6.954,6.954,0,0,0,.212-4.989l-1.781.594a5.1,5.1,0,0,1,.126,2.809,4.537,4.537,0,0,0-2.678-1.884l-1.664-.416-.367.55a6.451,6.451,0,0,1-4.57,2.824l-3.1.387v-.814a1.879,1.879,0,0,1,1.877-1.877V21.585a3.758,3.758,0,0,0-3.754,3.754v.938H33.785a2.829,2.829,0,0,0-.349.022,6.673,6.673,0,0,1-.59-2.74Zm.938,7.108a.938.938,0,1,1,0-1.877h1.708l-.313,1.877Zm5.331,6.94A4,4,0,0,1,36.655,32.6l.756-4.537,3.456-.432a8.325,8.325,0,0,0,5.5-3.1l.409.1A2.664,2.664,0,0,1,48.8,27.216v.078l.884,5.3a4,4,0,0,1-2.461,4.374l-2.177.871v2.512a1.877,1.877,0,0,1-3.754,0V37.842ZM38.05,41.9l1.549-.387a3.753,3.753,0,0,0,7.142,0l1.549.387a5.623,5.623,0,0,1,4.265,5.463v3.317H37.837L35.2,43.634A5.646,5.646,0,0,1,38.05,41.9Zm-8.019,7.841V47.862a.94.94,0,0,1,.938-.938h.938v3.754H30.97A.94.94,0,0,1,30.031,49.739Zm1.877-4.692h-.17l-1.569-4.182-.039-.09A.938.938,0,0,1,31.79,39.9l4.043,10.779H33.785V46.924A1.879,1.879,0,0,0,31.908,45.047ZM27.074,33.908a5.662,5.662,0,0,1,4.507,3.7,2.819,2.819,0,0,0-1.871.231,2.819,2.819,0,0,0-1.283,3.729l1.4,3.726a2.819,2.819,0,0,0-1.67,2.571v1.877a2.8,2.8,0,0,0,.161.938h-.161a1.879,1.879,0,0,0-1.877,1.877H22.362a2.8,2.8,0,0,0,.161-.938V38.477a2.819,2.819,0,0,0-2.815-2.815H17.281L20.04,32.9Zm-4.55-20.77a4.694,4.694,0,0,0-4.065,2.354,2.809,2.809,0,0,0-3.131,0,4.686,4.686,0,0,0-7.21-1.141l.04-.478a4.7,4.7,0,0,1,2.028-3.479,7.254,7.254,0,0,0,7.977,2.372l2.092-.7a4.224,4.224,0,0,1,3.869.628l1.265.949.058.519A4.668,4.668,0,0,0,22.523,13.139Zm2.815,4.692a2.815,2.815,0,1,1-2.815-2.815A2.819,2.819,0,0,1,25.339,17.831Zm-11.262,0a2.815,2.815,0,1,1-2.815-2.815A2.819,2.819,0,0,1,14.077,17.831Zm14.077,1.877h-.2l-.417-3.754h.62a1.877,1.877,0,0,1,0,3.754Zm-24.4-9.479a8.361,8.361,0,0,1,8.352-8.352h9.573a8.35,8.35,0,0,1,7.356,12.305,3.746,3.746,0,0,0-.881-.105h-.828l-.11-.991v-.793a6.794,6.794,0,0,0-5.447-6.644L21.4,7.489a4.915,4.915,0,0,1,3.805,3.673,6.1,6.1,0,0,0-5.545-.874l-2.092.7A5.38,5.38,0,0,1,11.2,8.551L9.261,5.165,7.631,6.1,9.18,8.806a6.584,6.584,0,0,0-2.893,4.91l-.03.36H5.631a3.747,3.747,0,0,0-.881.105,8.326,8.326,0,0,1-1-3.954Zm0,7.6a1.879,1.879,0,0,1,1.877-1.877H6.1l-.315,3.754H5.631A1.879,1.879,0,0,1,3.754,17.831Zm8.027,10.337A6.616,6.616,0,0,1,7.508,22v-.1c0-.183.008-.368.023-.55l.051-.612a4.69,4.69,0,0,0,8.372-2.906.938.938,0,1,1,1.877,0,4.69,4.69,0,0,0,8.349,2.935l.056.508A6.584,6.584,0,0,1,22,28.168l-3.235,1.213v2.139L16.892,33.4l-1.877-1.877V29.381Zm-9.9,17.817v-6.5a5.658,5.658,0,0,1,4.835-5.574l7.034-1L16.5,35.662H14.077a2.819,2.819,0,0,0-2.815,2.815v4.94a2.786,2.786,0,0,0-.829.574,2.807,2.807,0,0,0-1.987-.822H7.508V37.539H5.631V43.17H3.754v1.877H8.446a.94.94,0,0,1,.938.938V48.8H4.692a2.819,2.819,0,0,1-2.815-2.815ZM11.262,48.8V46.207l.321-.641a.933.933,0,0,1,.839-.519h1.655a.94.94,0,0,1,.938.938v1.877a.94.94,0,0,1-.938.938ZM7.508,50.678h3.754v.938a2.8,2.8,0,0,0,.161.938H7.508Zm6.569,1.877a.94.94,0,0,1-.938-.938v-.938h.938a2.819,2.819,0,0,0,2.815-2.815V45.985a2.819,2.819,0,0,0-2.815-2.815h-.938V38.477a.94.94,0,0,1,.938-.938h5.631a.94.94,0,0,1,.938.938V51.616a.94.94,0,0,1-.938.938Zm42.231.938a.94.94,0,0,1-.938.938H44.108v.938a.938.938,0,1,1-1.877,0v-.938H29.093a.94.94,0,0,1-.938-.938v-.938H56.308Z" transform="translate(0 0)"/>
          <path id="Trazado_1053151" data-name="Trazado 1053151" d="M344.055,277.461l.1-.2-1.679-.839-.1.2a2.1,2.1,0,0,1-3.754,0l-.1-.2-1.679.839.1.2a3.975,3.975,0,0,0,7.111,0Z" transform="translate(-297.329 -243.996)"/>
          <circle id="Elipse_13493" data-name="Elipse 13493" cx="1" cy="1" r="1" transform="translate(39.093 28.093)"/>
          <circle id="Elipse_13497" data-name="Elipse 13497" cx="1" cy="1" r="1" transform="translate(45.093 28.093)"/>
          <path id="Trazado_1053152" data-name="Trazado 1053152" d="M113.65,198.21l.048-.144-1.781-.593-.048.144a2.968,2.968,0,0,1-5.631,0l-.048-.144-1.781.593.048.145a4.845,4.845,0,0,0,9.192,0Z" transform="translate(-92.162 -174.307)"/>
          <ellipse id="Elipse_13496" data-name="Elipse 13496" cx="0.5" cy="1.5" rx="0.5" ry="1.5" transform="translate(15.093 39.092)"/>
        </g>
      </g>
    </g>
  </g>
</svg>
